DoulosSIL-R.ufo
<glyph name="Space" format="1">
  <advance width="591"/>
  <unicode hex="0020"/>
  <outline>
    <contour>
      <point x="591" y="900" type="move" name="R"/>
    </contour>
    <contour>
      <point x="296" y="1435" type="move" name="U"/>
    </contour>
    <contour>
      <point x="346" y="0" type="move" name="O"/>
    </contour>
    <contour>
      <point x="296" y="-100" type="move" name="L"/>
    </contour>
    <contour>
      <point x="296" y="0" type="move" name="H"/>
    </contour>
  </outline>
</glyph>
<glyph name="ExclamationMrk" format="1">
  <advance width="682"/>
  <unicode hex="0021"/>
  <outline>
    <contour>
      <point x="455" y="1238" type="curve"/>
      <point x="455" y="1348"/>
      <point x="393" y="1388"/>
      <point x="343" y="1388" type="curve" smooth="yes"/>
      <point x="278" y="1388"/>
      <point x="227" y="1337"/>
      <point x="227" y="1247" type="curve" smooth="yes"/>
      <point x="227" y="1232"/>
      <point x="229" y="1218"/>
      <point x="235" y="1171" type="curve" smooth="yes"/>
      <point x="321" y="359" type="line"/>
      <point x="361" y="359" type="line"/>
      <point x="451" y="1171" type="line" smooth="yes"/>
      <point x="455" y="1198"/>
      <point x="455" y="1222"/>
    </contour>
    <contour>
      <point x="451" y="85" type="curve"/>
      <point x="451" y="152"/>
      <point x="393" y="193"/>
      <point x="341" y="193" type="curve" smooth="yes"/>
      <point x="290" y="193"/>
      <point x="229" y="156"/>
      <point x="229" y="85" type="curve" smooth="yes"/>
      <point x="229" y="4"/>
      <point x="295" y="-30"/>
      <point x="341" y="-30" type="curve" smooth="yes"/>
      <point x="400" y="-30"/>
      <point x="451" y="22"/>
    </contour>
  </outline>
</glyph>
<glyph name="PercentSgn" format="1">
  <advance width="1772"/>
  <unicode hex="0025"/>
  <outline>
    <contour>
      <point x="1618" y="508" type="curve"/>
      <point x="1618" y="617"/>
      <point x="1539" y="735"/>
      <point x="1399" y="735" type="curve" smooth="yes"/>
      <point x="1166" y="735"/>
      <point x="954" y="475"/>
      <point x="954" y="252" type="curve" smooth="yes"/>
      <point x="954" y="98"/>
      <point x="1005" y="-30"/>
      <point x="1215" y="-30" type="curve" smooth="yes"/>
      <point x="1392" y="-30"/>
      <point x="1618" y="186"/>
    </contour>
    <contour>
      <point x="1334" y="1392" type="line"/>
      <point x="1236" y="1392" type="line"/>
      <point x="1168" y="1303"/>
      <point x="1053" y="1251"/>
      <point x="929" y="1249" type="curve" smooth="yes"/>
      <point x="743" y="1247"/>
      <point x="767" y="1362"/>
      <point x="600" y="1362" type="curve" smooth="yes"/>
      <point x="367" y="1362"/>
      <point x="156" y="1094"/>
      <point x="156" y="875" type="curve" smooth="yes"/>
      <point x="156" y="696"/>
      <point x="239" y="593"/>
      <point x="400" y="593" type="curve" smooth="yes"/>
      <point x="581" y="593"/>
      <point x="820" y="832"/>
      <point x="820" y="1110" type="curve" smooth="yes"/>
      <point x="820" y="1145"/>
      <point x="805" y="1189"/>
      <point x="805" y="1220" type="curve"/>
      <point x="885" y="1189"/>
      <point x="1037" y="1206"/>
      <point x="1161" y="1258" type="curve"/>
      <point x="444" y="-30" type="line"/>
      <point x="542" y="-30" type="line"/>
    </contour>
    <contour>
      <point x="1565" y="497" type="curve"/>
      <point x="1565" y="331"/>
      <point x="1431" y="34"/>
      <point x="1238" y="34" type="curve" smooth="yes"/>
      <point x="1145" y="34"/>
      <point x="1110" y="98"/>
      <point x="1110" y="175" type="curve" smooth="yes"/>
      <point x="1110" y="359"/>
      <point x="1249" y="668"/>
      <point x="1423" y="668" type="curve" smooth="yes"/>
      <point x="1516" y="668"/>
      <point x="1565" y="577"/>
    </contour>
    <contour>
      <point x="767" y="1139" type="curve"/>
      <point x="767" y="938"/>
      <point x="623" y="664"/>
      <point x="440" y="664" type="curve" smooth="yes"/>
      <point x="341" y="664"/>
      <point x="312" y="728"/>
      <point x="312" y="816" type="curve" smooth="yes"/>
      <point x="312" y="1098"/>
      <point x="532" y="1303"/>
      <point x="607" y="1303" type="curve" smooth="yes"/>
      <point x="643" y="1303"/>
      <point x="672" y="1256"/>
      <point x="749" y="1234" type="curve"/>
      <point x="755" y="1202"/>
      <point x="767" y="1173"/>
    </contour>
  </outline>
</glyph>
<glyph name="Ampersand" format="1">
  <advance width="1595"/>
  <unicode hex="0026"/>
  <outline>
    <contour>
      <point x="1531" y="244" type="curve"/>
      <point x="1494" y="270" type="line"/>
      <point x="1482" y="220"/>
      <point x="1439" y="122"/>
      <point x="1311" y="122" type="curve" smooth="yes"/>
      <point x="1171" y="122"/>
      <point x="1070" y="243"/>
      <point x="1011" y="310" type="curve"/>
      <point x="1084" y="402"/>
      <point x="1153" y="500"/>
      <point x="1210" y="607" type="curve" smooth="yes"/>
      <point x="1328" y="822"/>
      <point x="1354" y="822"/>
      <point x="1467" y="835" type="curve"/>
      <point x="1467" y="873" type="line"/>
      <point x="1044" y="873" type="line"/>
      <point x="1044" y="835" type="line"/>
      <point x="1062" y="835"/>
      <point x="1139" y="818"/>
      <point x="1139" y="724" type="curve" smooth="yes"/>
      <point x="1139" y="627"/>
      <point x="1080" y="508"/>
      <point x="963" y="369" type="curve"/>
      <point x="869" y="495"/>
      <point x="781" y="632"/>
      <point x="698" y="782" type="curve"/>
      <point x="820" y="848"/>
      <point x="1027" y="950"/>
      <point x="1027" y="1143" type="curve" smooth="yes"/>
      <point x="1027" y="1269"/>
      <point x="933" y="1388"/>
      <point x="756" y="1388" type="curve" smooth="yes"/>
      <point x="593" y="1388"/>
      <point x="408" y="1287"/>
      <point x="408" y="1057" type="curve" smooth="yes"/>
      <point x="408" y="934"/>
      <point x="459" y="828"/>
      <point x="491" y="758" type="curve"/>
      <point x="327" y="672"/>
      <point x="75" y="517"/>
      <point x="75" y="269" type="curve" smooth="yes"/>
      <point x="75" y="122"/>
      <point x="195" y="-32"/>
      <point x="434" y="-32" type="curve" smooth="yes"/>
      <point x="654" y="-32"/>
      <point x="788" y="92"/>
      <point x="871" y="164" type="curve"/>
      <point x="944" y="85"/>
      <point x="1064" y="-32"/>
      <point x="1222" y="-32" type="curve" smooth="yes"/>
      <point x="1431" y="-32"/>
      <point x="1510" y="144"/>
    </contour>
    <contour>
      <point x="910" y="1147" type="curve"/>
      <point x="910" y="976"/>
      <point x="747" y="887"/>
      <point x="664" y="850" type="curve"/>
      <point x="628" y="927"/>
      <point x="579" y="1042"/>
      <point x="579" y="1136" type="curve" smooth="yes"/>
      <point x="579" y="1175"/>
      <point x="611" y="1317"/>
      <point x="756" y="1317" type="curve" smooth="yes"/>
      <point x="837" y="1317"/>
      <point x="910" y="1249"/>
    </contour>
    <contour>
      <point x="818" y="220" type="curve"/>
      <point x="751" y="166"/>
      <point x="660" y="90"/>
      <point x="536" y="90" type="curve" smooth="yes"/>
      <point x="371" y="90"/>
      <point x="284" y="227"/>
      <point x="284" y="359" type="curve" smooth="yes"/>
      <point x="284" y="550"/>
      <point x="444" y="647"/>
      <point x="523" y="690" type="curve"/>
      <point x="566" y="609"/>
      <point x="601" y="542"/>
      <point x="634" y="485" type="curve" smooth="yes"/>
      <point x="668" y="427"/>
      <point x="729" y="343"/>
    </contour>
  </outline>
</glyph>
<glyph name="Apos" format="1">
  <advance width="371"/>
  <unicode hex="0027"/>
  <outline>
    <contour>
      <point x="286" y="1281" type="curve"/>
      <point x="286" y="1328"/>
      <point x="254" y="1388"/>
      <point x="179" y="1388" type="curve" smooth="yes"/>
      <point x="116" y="1388"/>
      <point x="85" y="1350"/>
      <point x="85" y="1267" type="curve" smooth="yes"/>
      <point x="85" y="1238"/>
      <point x="90" y="1183"/>
      <point x="107" y="1100" type="curve" smooth="yes"/>
      <point x="160" y="805" type="line"/>
      <point x="205" y="805" type="line"/>
      <point x="258" y="1098" type="line" smooth="yes"/>
      <point x="276" y="1196"/>
      <point x="286" y="1258"/>
    </contour>
  </outline>
</glyph>
<glyph name="LftParen" format="1">
  <advance width="682"/>
  <unicode hex="0028"/>
  <outline>
    <contour>
      <point x="634" y="-440" type="curve"/>
      <point x="634" y="-402" type="line"/>
      <point x="321" y="-209"/>
      <point x="276" y="193"/>
      <point x="276" y="519" type="curve" smooth="yes"/>
      <point x="276" y="963"/>
      <point x="412" y="1264"/>
      <point x="634" y="1382" type="curve"/>
      <point x="634" y="1423" type="line"/>
      <point x="307" y="1269"/>
      <point x="85" y="901"/>
      <point x="85" y="493" type="curve" smooth="yes"/>
      <point x="85" y="89"/>
      <point x="301" y="-284"/>
    </contour>
  </outline>
</glyph>
<glyph name="RtParen" format="1">
  <advance width="682"/>
  <unicode hex="0029"/>
  <outline>
    <contour>
      <point x="600" y="489" type="curve"/>
      <point x="600" y="893"/>
      <point x="398" y="1247"/>
      <point x="45" y="1423" type="curve"/>
      <point x="45" y="1384" type="line"/>
      <point x="395" y="1157"/>
      <point x="408" y="724"/>
      <point x="408" y="463" type="curve" smooth="yes"/>
      <point x="408" y="17"/>
      <point x="274" y="-280"/>
      <point x="45" y="-402" type="curve"/>
      <point x="45" y="-440" type="line"/>
      <point x="369" y="-297"/>
      <point x="600" y="81"/>
    </contour>
  </outline>
</glyph>
<glyph name="HyphenMinus" format="1">
  <advance width="682"/>
  <unicode hex="002D"/>
  <outline>
    <contour>
      <point x="600" y="382" type="line"/>
      <point x="600" y="534" type="line"/>
      <point x="83" y="534" type="line"/>
      <point x="83" y="382" type="line"/>
    </contour>
    <contour>
      <point x="342" y="1000" type="move" name="U"/>
    </contour>
  </outline>
</glyph>
<glyph name="FullStop" format="1">
  <advance width="512"/>
  <unicode hex="002E"/>
  <outline>
    <contour>
      <point x="367" y="85" type="curve"/>
      <point x="367" y="150"/>
      <point x="316" y="195"/>
      <point x="256" y="195" type="curve" smooth="yes"/>
      <point x="193" y="195"/>
      <point x="146" y="148"/>
      <point x="146" y="85" type="curve" smooth="yes"/>
      <point x="146" y="24"/>
      <point x="188" y="-30"/>
      <point x="256" y="-30" type="curve" smooth="yes"/>
      <point x="321" y="-30"/>
      <point x="367" y="24"/>
    </contour>
  </outline>
</glyph>
<glyph name="DigitOne" format="1">
  <advance width="1025"/>
  <unicode hex="0031"/>
  <outline>
    <contour>
      <point x="775" y="0" type="line" name="ab01"/>
      <point x="775" y="38" type="line" name="sh04"/>
      <point x="604" y="38" name="sh03"/>
      <point x="605" y="68" name="at01"/>
      <point x="605" y="241" type="curve" smooth="yes"/>
      <point x="605" y="1386" type="line"/>
      <point x="570" y="1386" type="line"/>
      <point x="241" y="1224" type="line"/>
      <point x="254" y="1192" type="line"/>
      <point x="421" y="1269" name="sh01"/>
      <point x="440" y="1190" name="sh02"/>
      <point x="440" y="1057" type="curve" smooth="yes"/>
      <point x="440" y="972" type="line" name="ah01"/>
      <point x="440" y="241" type="line" smooth="yes" name="sh05"/>
      <point x="440" y="69"/>
      <point x="435" y="38"/>
      <point x="264" y="38" type="curve"/>
      <point x="264" y="0" type="line"/>
    </contour>
    <contour>
      <point x="508" y="1435" type="move" name="U"/>
    </contour>
    <contour>
      <point x="508" y="-100" type="move" name="L"/>
    </contour>
  </outline>
</glyph>
<glyph name="DigitTwo" format="1">
  <advance width="1025"/>
  <unicode hex="0032"/>
  <outline>
    <contour>
      <point x="940" y="260" type="line"/>
      <point x="903" y="260" type="line"/>
      <point x="842" y="172" name="sv02"/>
      <point x="817" y="152"/>
      <point x="613" y="152" type="curve" smooth="yes"/>
      <point x="258" y="152" type="line" name="dh02"/>
      <point x="299" y="191" name="at01"/>
      <point x="401" y="298"/>
      <point x="568" y="479" type="curve" smooth="yes"/>
      <point x="680" y="602" name="sv01"/>
      <point x="857" y="816" name="dh01"/>
      <point x="857" y="1029" type="curve" smooth="yes"/>
      <point x="857" y="1251" name="mh01"/>
      <point x="662" y="1386"/>
      <point x="469" y="1386" type="curve" smooth="yes" name="ab01"/>
      <point x="171" y="1386"/>
      <point x="101" y="1124"/>
      <point x="85" y="1003" type="curve"/>
      <point x="120" y="1003" type="line"/>
      <point x="147" y="1079"/>
      <point x="227" y="1232"/>
      <point x="418" y="1232" type="curve" smooth="yes"/>
      <point x="502" y="1232"/>
      <point x="686" y="1168"/>
      <point x="686" y="936" type="curve" smooth="yes"/>
      <point x="686" y="825"/>
      <point x="638" y="701"/>
      <point x="542" y="564" type="curve"/>
      <point x="446" y="424"/>
      <point x="280" y="253"/>
      <point x="45" y="38" type="curve"/>
      <point x="45" y="0" type="line"/>
      <point x="844" y="0" type="line"/>
    </contour>
    <contour>
      <point x="493" y="1435" type="move" name="U"/>
    </contour>
    <contour>
      <point x="493" y="-100" type="move" name="L"/>
    </contour>
  </outline>
</glyph>
<glyph name="DigitSeven" format="1">
  <advance width="1025"/>
  <unicode hex="0037"/>
  <outline>
    <contour>
      <point x="931" y="1320" type="line"/>
      <point x="931" y="1356" type="line" name="at01"/>
      <point x="207" y="1356" type="line"/>
      <point x="75" y="1037" type="line"/>
      <point x="105" y="1027" type="line"/>
      <point x="145" y="1098"/>
      <point x="182" y="1192" name="sv01"/>
      <point x="402" y="1192" type="curve" smooth="yes" name="ab01"/>
      <point x="775" y="1192" type="line"/>
      <point x="369" y="-30" type="line"/>
      <point x="479" y="-30" type="line"/>
    </contour>
    <contour>
      <point x="503" y="1435" type="move" name="U"/>
    </contour>
    <contour>
      <point x="503" y="-100" type="move" name="L"/>
    </contour>
  </outline>
</glyph>
<glyph name="LTSgn" format="1">
  <advance width="1971"/>
  <unicode hex="003C"/>
  <outline>
    <contour>
      <point x="1576" y="77" type="line"/>
      <point x="1576" y="199" type="line"/>
      <point x="521" y="591" type="line"/>
      <point x="1576" y="984" type="line"/>
      <point x="1576" y="1106" type="line"/>
      <point x="395" y="653" type="line"/>
      <point x="395" y="530" type="line"/>
    </contour>
  </outline>
</glyph>
<glyph name="EqSgn" format="1">
  <advance width="1971"/>
  <unicode hex="003D"/>
  <outline>
    <contour>
      <point x="1576" y="709" type="line"/>
      <point x="1576" y="832" type="line"/>
      <point x="395" y="832" type="line"/>
      <point x="395" y="709" type="line"/>
    </contour>
    <contour>
      <point x="1576" y="351" type="line"/>
      <point x="1576" y="474" type="line"/>
      <point x="395" y="474" type="line"/>
      <point x="395" y="351" type="line"/>
    </contour>
  </outline>
</glyph>
<glyph name="GTSgn" format="1">
  <advance width="1971"/>
  <unicode hex="003E"/>
  <outline>
    <contour>
      <point x="1576" y="530" type="line"/>
      <point x="1576" y="653" type="line"/>
      <point x="395" y="1106" type="line"/>
      <point x="395" y="984" type="line"/>
      <point x="1450" y="591" type="line"/>
      <point x="395" y="199" type="line"/>
      <point x="395" y="77" type="line"/>
    </contour>
  </outline>
</glyph>
<glyph name="AtSgn" format="1">
  <advance width="1888"/>
  <unicode hex="0040"/>
  <outline>
    <contour>
      <point x="1837" y="171" type="curve"/>
      <point x="1779" y="171" type="line"/>
      <point x="1701" y="-8"/>
      <point x="1482" y="-380"/>
      <point x="976" y="-380" type="curve" smooth="yes"/>
      <point x="444" y="-380"/>
      <point x="192" y="15"/>
      <point x="192" y="418" type="curve" smooth="yes"/>
      <point x="192" y="980"/>
      <point x="587" y="1371"/>
      <point x="1049" y="1371" type="curve" smooth="yes"/>
      <point x="1405" y="1371"/>
      <point x="1697" y="1141"/>
      <point x="1697" y="756" type="curve" smooth="yes"/>
      <point x="1697" y="345"/>
      <point x="1433" y="102"/>
      <point x="1275" y="102" type="curve" smooth="yes"/>
      <point x="1213" y="102"/>
      <point x="1198" y="158"/>
      <point x="1198" y="177" type="curve" smooth="yes"/>
      <point x="1198" y="239"/>
      <point x="1249" y="408"/>
      <point x="1293" y="560" type="curve" smooth="yes"/>
      <point x="1407" y="960" type="line"/>
      <point x="1251" y="936" type="line"/>
      <point x="1220" y="826" type="line"/>
      <point x="1210" y="873"/>
      <point x="1173" y="966"/>
      <point x="1046" y="966" type="curve" smooth="yes"/>
      <point x="820" y="966"/>
      <point x="497" y="589"/>
      <point x="497" y="262" type="curve" smooth="yes"/>
      <point x="497" y="118"/>
      <point x="583" y="32"/>
      <point x="676" y="32" type="curve" smooth="yes"/>
      <point x="830" y="32"/>
      <point x="972" y="197"/>
      <point x="1070" y="316" type="curve"/>
      <point x="1042" y="154"/>
      <point x="1033" y="32"/>
      <point x="1206" y="32" type="curve" smooth="yes"/>
      <point x="1516" y="32"/>
      <point x="1758" y="343"/>
      <point x="1758" y="737" type="curve" smooth="yes"/>
      <point x="1758" y="1185"/>
      <point x="1433" y="1423"/>
      <point x="1042" y="1423" type="curve" smooth="yes"/>
      <point x="607" y="1423"/>
      <point x="96" y="1090"/>
      <point x="96" y="446" type="curve" smooth="yes"/>
      <point x="96" y="28"/>
      <point x="388" y="-444"/>
      <point x="970" y="-444" type="curve" smooth="yes"/>
      <point x="1523" y="-444"/>
      <point x="1785" y="-15"/>
    </contour>
    <contour>
      <point x="1127" y="515" type="curve"/>
      <point x="1059" y="339"/>
      <point x="901" y="152"/>
      <point x="769" y="152" type="curve" smooth="yes"/>
      <point x="720" y="152"/>
      <point x="654" y="197"/>
      <point x="654" y="294" type="curve" smooth="yes"/>
      <point x="654" y="465"/>
      <point x="861" y="918"/>
      <point x="1059" y="918" type="curve" smooth="yes"/>
      <point x="1185" y="918"/>
      <point x="1228" y="767"/>
    </contour>
  </outline>
</glyph>
<glyph name="LtnCapD" format="1">
  <advance width="1480"/>
  <unicode hex="0044"/>
  <outline>
    <contour>
      <point x="1401" y="686" type="curve" smooth="yes"/>
      <point x="1401" y="899"/>
      <point x="1317" y="1084" name="at01"/>
      <point x="1192" y="1196" type="curve"/>
      <point x="1063" y="1309" name="sv02"/>
      <point x="888" y="1356"/>
      <point x="587" y="1356" type="curve" smooth="yes"/>
      <point x="36" y="1356" type="line" name="sh01"/>
      <point x="36" y="1320" type="line"/>
      <point x="87" y="1320" type="line" smooth="yes"/>
      <point x="138" y="1320"/>
      <point x="175" y="1305" name="sv01"/>
      <point x="203" y="1277" type="curve" name="ab01"/>
      <point x="220" y="1254"/>
      <point x="229" y="1200" name="dh02"/>
      <point x="229" y="1117" type="curve" smooth="yes"/>
      <point x="229" y="241" type="line" smooth="yes" name="sv04"/>
      <point x="229" y="164"/>
      <point x="220" y="115" name="sh02"/>
      <point x="207" y="92" type="curve" smooth="yes" name="sv03"/>
      <point x="186" y="55" name="dh01"/>
      <point x="144" y="38" name="ah01"/>
      <point x="87" y="38" type="curve" smooth="yes"/>
      <point x="36" y="38" type="line"/>
      <point x="36" y="0" type="line"/>
      <point x="643" y="0" type="line" smooth="yes"/>
      <point x="1166" y="0"/>
      <point x="1401" y="305"/>
    </contour>
    <contour>
      <point x="1175" y="676" type="curve" smooth="yes"/>
      <point x="1175" y="297"/>
      <point x="941" y="66"/>
      <point x="634" y="69" type="curve" smooth="yes"/>
      <point x="577" y="69"/>
      <point x="506" y="81"/>
      <point x="422" y="98" type="curve"/>
      <point x="422" y="1251" type="line"/>
      <point x="501" y="1274"/>
      <point x="567" y="1281"/>
      <point x="627" y="1281" type="curve" smooth="yes"/>
      <point x="946" y="1281"/>
      <point x="1175" y="1051"/>
    </contour>
    <contour>
      <point x="718" y="1435" type="move" name="U"/>
    </contour>
    <contour>
      <point x="718" y="-100" type="move" name="L"/>
    </contour>
  </outline>
</glyph>
<glyph name="LtnCapF" format="1">
  <advance width="1139"/>
  <unicode hex="0046"/>
  <outline>
    <contour>
      <point x="1057" y="1061" type="line"/>
      <point x="1042" y="1356" type="line" name="at02"/>
      <point x="34" y="1356" type="line"/>
      <point x="34" y="1320" type="line" name="sv03"/>
      <point x="83" y="1320" type="line" smooth="yes"/>
      <point x="126" y="1320"/>
      <point x="171" y="1303" name="dh01"/>
      <point x="199" y="1275" type="curve" smooth="yes"/>
      <point x="219" y="1255"/>
      <point x="227" y="1215"/>
      <point x="227" y="1117" type="curve" smooth="yes" name="sv02"/>
      <point x="227" y="241" type="line" smooth="yes" name="ab01"/>
      <point x="227" y="160"/>
      <point x="219" y="108" name="sv01"/>
      <point x="203" y="87" type="curve" smooth="yes"/>
      <point x="176" y="54"/>
      <point x="136" y="38" name="sh01"/>
      <point x="83" y="38" type="curve" smooth="yes" name="dv01"/>
      <point x="34" y="38" type="line"/>
      <point x="34" y="0" type="line"/>
      <point x="615" y="0" type="line"/>
      <point x="615" y="38" type="line" name="at01"/>
      <point x="566" y="38" type="line" smooth="yes"/>
      <point x="519" y="38"/>
      <point x="469" y="54" name="dv02"/>
      <point x="442" y="89" type="curve" name="dh02"/>
      <point x="422" y="109"/>
      <point x="420" y="153" name="mv01"/>
      <point x="420" y="241" type="curve" smooth="yes"/>
      <point x="420" y="666" type="line"/>
      <point x="666" y="666" type="line" smooth="yes"/>
      <point x="803" y="666"/>
      <point x="844" y="603"/>
      <point x="844" y="475" type="curve"/>
      <point x="881" y="475" type="line"/>
      <point x="881" y="934" type="line"/>
      <point x="844" y="934" type="line"/>
      <point x="825" y="794"/>
      <point x="783" y="751"/>
      <point x="666" y="751" type="curve" smooth="yes"/>
      <point x="420" y="751" type="line"/>
      <point x="420" y="1283" type="line"/>
      <point x="720" y="1283" type="line" smooth="yes"/>
      <point x="917" y="1283"/>
      <point x="973" y="1226"/>
      <point x="1021" y="1061" type="curve"/>
    </contour>
    <contour>
      <point x="545" y="1435" type="move" name="U"/>
    </contour>
    <contour>
      <point x="545" y="-100" type="move" name="L"/>
    </contour>
  </outline>
</glyph>
<glyph name="LtnCapI" format="1">
  <advance width="682"/>
  <unicode hex="0049"/>
  <outline>
    <contour>
      <point x="632" y="0" type="line" name="ab01"/>
      <point x="632" y="38" type="line" name="sv01"/>
      <point x="583" y="38" type="line" smooth="yes"/>
      <point x="536" y="38"/>
      <point x="474" y="64"/>
      <point x="461" y="85" type="curve" smooth="yes" name="dh02"/>
      <point x="446" y="109"/>
      <point x="438" y="153"/>
      <point x="438" y="241" type="curve" smooth="yes" name="sv03"/>
      <point x="438" y="1117" type="line" smooth="yes" name="at01"/>
      <point x="438" y="1198"/>
      <point x="448" y="1248" name="sv04"/>
      <point x="463" y="1271" type="curve"/>
      <point x="490" y="1304"/>
      <point x="530" y="1320" name="dh01"/>
      <point x="583" y="1320" type="curve" smooth="yes"/>
      <point x="632" y="1320" type="line"/>
      <point x="632" y="1356" type="line"/>
      <point x="51" y="1356" type="line" name="sv02"/>
      <point x="51" y="1320" type="line"/>
      <point x="100" y="1320" type="line" smooth="yes"/>
      <point x="147" y="1320"/>
      <point x="197" y="1301"/>
      <point x="222" y="1269" type="curve"/>
      <point x="244" y="1245"/>
      <point x="244" y="1210"/>
      <point x="244" y="1117" type="curve" smooth="yes"/>
      <point x="244" y="241" type="line" smooth="yes"/>
      <point x="244" y="157"/>
      <point x="236" y="106"/>
      <point x="220" y="87" type="curve" smooth="yes"/>
      <point x="193" y="52"/>
      <point x="156" y="38"/>
      <point x="100" y="38" type="curve" smooth="yes"/>
      <point x="51" y="38" type="line"/>
      <point x="51" y="0" type="line"/>
    </contour>
    <contour>
      <point x="341" y="1435" type="move" name="U"/>
    </contour>
    <contour>
      <point x="341" y="-100" type="move" name="L"/>
    </contour>
    <contour>
      <point x="510" y="0" type="move" name="O"/>
    </contour>
    <contour>
      <point x="341" y="0" type="move" name="H"/>
    </contour>
    <contour>
      <point x="682" y="1100" type="move" name="R"/>
    </contour>
  </outline>
</glyph>
<glyph name="LtnCapJ" format="1">
  <advance width="798"/>
  <unicode hex="004A"/>
  <outline>
    <contour>
      <point x="784" y="1320" type="line"/>
      <point x="784" y="1356" type="line"/>
      <point x="205" y="1356" type="line"/>
      <point x="205" y="1320" type="line"/>
      <point x="252" y="1320" type="line" smooth="yes"/>
      <point x="307" y="1320"/>
      <point x="364" y="1293"/>
      <point x="380" y="1266" type="curve" smooth="yes"/>
      <point x="397" y="1239"/>
      <point x="400" y="1197"/>
      <point x="400" y="1117" type="curve" smooth="yes"/>
      <point x="400" y="192" type="line" smooth="yes"/>
      <point x="400" y="79"/>
      <point x="359" y="39"/>
      <point x="325" y="39" type="curve" smooth="yes"/>
      <point x="244" y="39"/>
      <point x="266" y="227"/>
      <point x="144" y="227" type="curve" smooth="yes"/>
      <point x="92" y="227"/>
      <point x="43" y="195"/>
      <point x="43" y="122" type="curve" smooth="yes"/>
      <point x="43" y="45"/>
      <point x="111" y="-32"/>
      <point x="244" y="-32" type="curve" smooth="yes"/>
      <point x="369" y="-32"/>
      <point x="591" y="38"/>
      <point x="591" y="453" type="curve" smooth="yes"/>
      <point x="591" y="1117" type="line" smooth="yes"/>
      <point x="591" y="1196"/>
      <point x="599" y="1248"/>
      <point x="615" y="1271" type="curve"/>
      <point x="643" y="1303"/>
      <point x="679" y="1320"/>
      <point x="735" y="1320" type="curve" smooth="yes"/>
    </contour>
    <contour>
      <point x="495" y="1435" type="move" name="U"/>
    </contour>
    <contour>
      <point x="413" y="-100" type="move" name="L"/>
    </contour>
  </outline>
</glyph>
<glyph name="LtnCapP" format="1">
  <advance width="1139"/>
  <unicode hex="0050"/>
  <outline>
    <contour>
      <point x="1068" y="982" type="curve" smooth="yes"/>
      <point x="1068" y="1122"/>
      <point x="1000" y="1207" name="at01"/>
      <point x="912" y="1271" type="curve" name="at02"/>
      <point x="818" y="1343" name="sv04"/>
      <point x="668" y="1356"/>
      <point x="530" y="1356" type="curve" smooth="yes"/>
      <point x="36" y="1356" type="line" name="sh01"/>
      <point x="36" y="1320" type="line"/>
      <point x="85" y="1320" type="line" smooth="yes"/>
      <point x="138" y="1320"/>
      <point x="174" y="1305" name="sv02"/>
      <point x="201" y="1277" type="curve" name="ab01"/>
      <point x="218" y="1254"/>
      <point x="227" y="1200" name="sv03"/>
      <point x="227" y="1117" type="curve" smooth="yes"/>
      <point x="227" y="241" type="line" smooth="yes"/>
      <point x="227" y="161" name="sh05"/>
      <point x="218" y="113"/>
      <point x="207" y="92" type="curve" name="sv01"/>
      <point x="183" y="55" name="dv01"/>
      <point x="141" y="38" name="sh04"/>
      <point x="85" y="38" type="curve" smooth="yes"/>
      <point x="36" y="38" type="line" name="dv02"/>
      <point x="36" y="0" type="line"/>
      <point x="615" y="0" type="line" name="sh02"/>
      <point x="615" y="38" type="line" name="sv05"/>
      <point x="564" y="38" type="line" smooth="yes" name="sh03"/>
      <point x="513" y="38" name="ah01"/>
      <point x="474" y="53" name="sh06"/>
      <point x="449" y="83" type="curve"/>
      <point x="426" y="102"/>
      <point x="420" y="156"/>
      <point x="420" y="241" type="curve" smooth="yes"/>
      <point x="420" y="617" type="line"/>
      <point x="498" y="609"/>
      <point x="527" y="607"/>
      <point x="559" y="607" type="curve" smooth="yes"/>
      <point x="593" y="607" type="line" smooth="yes"/>
      <point x="950" y="604"/>
      <point x="1068" y="775"/>
    </contour>
    <contour>
      <point x="839" y="961" type="curve" smooth="yes"/>
      <point x="836" y="786"/>
      <point x="723" y="672"/>
      <point x="583" y="672" type="curve" smooth="yes"/>
      <point x="544" y="672"/>
      <point x="489" y="673"/>
      <point x="420" y="684" type="curve"/>
      <point x="420" y="1258" type="line"/>
      <point x="475" y="1269"/>
      <point x="519" y="1277"/>
      <point x="551" y="1277" type="curve" smooth="yes"/>
      <point x="743" y="1277"/>
      <point x="842" y="1127"/>
    </contour>
    <contour>
      <point x="552" y="1435" type="move" name="U"/>
    </contour>
    <contour>
      <point x="552" y="-100" type="move" name="L"/>
    </contour>
  </outline>
</glyph>
<glyph name="LtnCapQ" format="1">
  <advance width="1480"/>
  <unicode hex="0051"/>
  <outline>
    <contour>
      <point x="1401" y="678" type="curve" smooth="yes"/>
      <point x="1401" y="1092" name="at01"/>
      <point x="1108" y="1388" name="sh01"/>
      <point x="747" y="1388" type="curve" smooth="yes" name="ab01"/>
      <point x="367" y="1388" name="av01"/>
      <point x="71" y="1089"/>
      <point x="71" y="680" type="curve" smooth="yes" name="ab02"/>
      <point x="71" y="389" name="dh02"/>
      <point x="199" y="112"/>
      <point x="558" y="-13" type="curve" name="sv02"/>
      <point x="732" y="-205" name="sh02"/>
      <point x="1071" y="-389" name="sv01"/>
      <point x="1394" y="-402" type="curve" name="dh01"/>
      <point x="1394" y="-369" type="line" name="ah01"/>
      <point x="1187" y="-353"/>
      <point x="1036" y="-244"/>
      <point x="903" y="-13" type="curve"/>
      <point x="1202" y="78"/>
      <point x="1401" y="346"/>
    </contour>
    <contour>
      <point x="1173" y="653" type="curve" smooth="yes"/>
      <point x="1173" y="269"/>
      <point x="1013" y="35"/>
      <point x="733" y="38" type="curve"/>
      <point x="453" y="38"/>
      <point x="301" y="300"/>
      <point x="301" y="680" type="curve" smooth="yes"/>
      <point x="301" y="1092"/>
      <point x="465" y="1313"/>
      <point x="733" y="1313" type="curve" smooth="yes"/>
      <point x="1019" y="1313"/>
      <point x="1173" y="1056"/>
    </contour>
    <contour>
      <point x="736" y="1435" type="move" name="U"/>
    </contour>
    <contour>
      <point x="736" y="-270" type="move" name="L"/>
    </contour>
  </outline>
</glyph>
<glyph name="LtnCapT" format="1">
  <advance width="1247"/>
  <unicode hex="0054"/>
  <outline>
    <contour>
      <point x="1200" y="1038" type="line"/>
      <point x="1189" y="1356" type="line" name="at01"/>
      <point x="64" y="1356" type="line"/>
      <point x="49" y="1038" type="line"/>
      <point x="94" y="1038" type="line"/>
      <point x="102" y="1130"/>
      <point x="130" y="1194" name="sv01"/>
      <point x="179" y="1230" type="curve" name="dh01"/>
      <point x="216" y="1264"/>
      <point x="255" y="1273"/>
      <point x="363" y="1273" type="curve" smooth="yes"/>
      <point x="525" y="1273" type="line" name="sv03"/>
      <point x="525" y="237" type="line" smooth="yes" name="ab01"/>
      <point x="525" y="157"/>
      <point x="517" y="111" name="sv04"/>
      <point x="504" y="90" type="curve"/>
      <point x="477" y="53"/>
      <point x="441" y="38"/>
      <point x="382" y="38" type="curve" smooth="yes" name="dh02"/>
      <point x="333" y="38" type="line" name="sv02"/>
      <point x="333" y="0" type="line"/>
      <point x="909" y="0" type="line"/>
      <point x="909" y="38" type="line"/>
      <point x="861" y="38" type="line" smooth="yes"/>
      <point x="807" y="38"/>
      <point x="768" y="52"/>
      <point x="745" y="79" type="curve" smooth="yes"/>
      <point x="728" y="100"/>
      <point x="717" y="152"/>
      <point x="717" y="237" type="curve" smooth="yes"/>
      <point x="717" y="1273" type="line"/>
      <point x="909" y="1273" type="line" smooth="yes"/>
      <point x="1000" y="1273"/>
      <point x="1051" y="1251"/>
      <point x="1094" y="1206" type="curve" smooth="yes"/>
      <point x="1125" y="1175"/>
      <point x="1146" y="1137"/>
      <point x="1157" y="1038" type="curve"/>
    </contour>
    <contour>
      <point x="624" y="1435" type="move" name="U"/>
    </contour>
    <contour>
      <point x="624" y="-100" type="move" name="L"/>
    </contour>
    <contour>
      <point x="624" y="0" type="move" name="H"/>
    </contour>
  </outline>
</glyph>
<glyph name="LtnCapX" format="1">
  <advance width="1480"/>
  <unicode hex="0058"/>
  <outline>
    <contour>
      <point x="1454" y="0" type="line" name="ab02"/>
      <point x="1454" y="38" type="line"/>
      <point x="1334" y="46" name="mh08"/>
      <point x="1292" y="76" name="mh07"/>
      <point x="1127" y="318" type="curve"/>
      <point x="835" y="753" type="line"/>
      <point x="1108" y="1096" type="line" name="at01"/>
      <point x="1225" y="1245"/>
      <point x="1279" y="1312"/>
      <point x="1425" y="1320" type="curve"/>
      <point x="1425" y="1356" type="line" name="mh06"/>
      <point x="942" y="1356" type="line" name="ih04"/>
      <point x="942" y="1320" type="line" name="mh05"/>
      <point x="1040" y="1317"/>
      <point x="1059" y="1308"/>
      <point x="1078" y="1281" type="curve" name="at02"/>
      <point x="1105" y="1246"/>
      <point x="1084" y="1202"/>
      <point x="1027" y="1130" type="curve" smooth="yes"/>
      <point x="786" y="824" type="line" name="mh04"/>
      <point x="577" y="1136" type="line"/>
      <point x="516" y="1229"/>
      <point x="519" y="1260" name="ab01"/>
      <point x="560" y="1293" type="curve" smooth="yes"/>
      <point x="581" y="1309"/>
      <point x="618" y="1318"/>
      <point x="670" y="1320" type="curve" name="mh03"/>
      <point x="670" y="1356" type="line" name="ih01"/>
      <point x="43" y="1356" type="line" name="mh02"/>
      <point x="43" y="1320" type="line"/>
      <point x="177" y="1312" name="mh01"/>
      <point x="263" y="1266"/>
      <point x="402" y="1061" type="curve" smooth="yes" name="ih02"/>
      <point x="670" y="668" type="line" name="ih03"/>
      <point x="348" y="262" type="line" smooth="yes"/>
      <point x="257" y="148"/>
      <point x="133" y="41"/>
      <point x="13" y="38" type="curve"/>
      <point x="13" y="0" type="line"/>
      <point x="497" y="0" type="line"/>
      <point x="497" y="38" type="line"/>
      <point x="391" y="41"/>
      <point x="367" y="73"/>
      <point x="367" y="115" type="curve" smooth="yes"/>
      <point x="367" y="148"/>
      <point x="374" y="164"/>
      <point x="427" y="233" type="curve"/>
      <point x="713" y="598" type="line"/>
      <point x="942" y="248" type="line" smooth="yes"/>
      <point x="1016" y="134"/>
      <point x="1022" y="115"/>
      <point x="993" y="75" type="curve" smooth="yes"/>
      <point x="974" y="47"/>
      <point x="941" y="38"/>
      <point x="873" y="38" type="curve"/>
      <point x="873" y="0" type="line"/>
    </contour>
    <contour>
      <point x="733" y="1435" type="move" name="U"/>
    </contour>
    <contour>
      <point x="733" y="-100" type="move" name="L"/>
    </contour>
  </outline>
</glyph>
<glyph name="RtSqrBrac" format="1">
  <advance width="682"/>
  <unicode hex="005D"/>
  <outline>
    <contour>
      <point x="517" y="-408" type="line"/>
      <point x="517" y="1388" type="line"/>
      <point x="77" y="1388" type="line"/>
      <point x="77" y="1311" type="line"/>
      <point x="367" y="1311" type="line"/>
      <point x="367" y="-327" type="line"/>
      <point x="77" y="-327" type="line"/>
      <point x="77" y="-408" type="line"/>
    </contour>
  </outline>
</glyph>
<glyph name="GraveAccent" format="1">
  <advance width="702"/>
  <unicode hex="0060"/>
  <outline>
    <component base="CombGrave" xOffset="802"/>
    <contour>
      <point x="233" y="1375" type="move" name="U"/>
    </contour>
  </outline>
</glyph>
<glyph name="LtnSmA" format="1">
  <advance width="910"/>
  <unicode hex="0061"/>
  <outline>
    <contour>
      <point x="909" y="190" type="line"/>
      <point x="835" y="116"/>
      <point x="825" y="109"/>
      <point x="800" y="109" type="curve" smooth="yes" name="sh04"/>
      <point x="775" y="109"/>
      <point x="763" y="122" name="at01"/>
      <point x="756" y="158" type="curve"/>
      <point x="755" y="177"/>
      <point x="751" y="233"/>
      <point x="751" y="318" type="curve" smooth="yes"/>
      <point x="751" y="630" type="line" smooth="yes"/>
      <point x="751" y="823"/>
      <point x="709" y="942"/>
      <point x="444" y="942" type="curve" smooth="yes" name="sh01"/>
      <point x="268" y="942" name="ab01"/>
      <point x="109" y="857"/>
      <point x="109" y="713" type="curve" smooth="yes" name="ab02"/>
      <point x="109" y="653"/>
      <point x="140" y="617" name="sh03"/>
      <point x="193" y="617" type="curve" smooth="yes"/>
      <point x="244" y="617" name="sh02"/>
      <point x="279" y="654"/>
      <point x="276" y="711" type="curve" name="ah01"/>
      <point x="274" y="771" type="line" name="sh05"/>
      <point x="278" y="834"/>
      <point x="328" y="883"/>
      <point x="412" y="883" type="curve" smooth="yes"/>
      <point x="528" y="883"/>
      <point x="583" y="820"/>
      <point x="583" y="645" type="curve" smooth="yes"/>
      <point x="583" y="607" type="line"/>
      <point x="148" y="458"/>
      <point x="73" y="352"/>
      <point x="73" y="217" type="curve" smooth="yes"/>
      <point x="73" y="75"/>
      <point x="162" y="-17"/>
      <point x="292" y="-17" type="curve" smooth="yes"/>
      <point x="389" y="-17"/>
      <point x="422" y="6"/>
      <point x="583" y="132" type="curve"/>
      <point x="583" y="16"/>
      <point x="631" y="-17"/>
      <point x="690" y="-17" type="curve" smooth="yes"/>
      <point x="761" y="-17"/>
      <point x="834" y="33"/>
      <point x="909" y="132" type="curve"/>
    </contour>
    <contour>
      <point x="583" y="197" type="line"/>
      <point x="499" y="129"/>
      <point x="434" y="93"/>
      <point x="382" y="96" type="curve"/>
      <point x="305" y="99"/>
      <point x="243" y="169"/>
      <point x="243" y="264" type="curve" smooth="yes"/>
      <point x="243" y="352"/>
      <point x="274" y="428"/>
      <point x="583" y="548" type="curve"/>
    </contour>
    <contour>
      <point x="445" y="1000" type="move" name="U"/>
    </contour>
    <contour>
      <point x="445" y="-100" type="move" name="L"/>
    </contour>
    <contour>
      <point x="910" y="900" type="move" name="R"/>
    </contour>
    <contour>
      <point x="817" y="0" type="move" name="O"/>
    </contour>
    <contour>
      <point x="445" y="0" type="move" name="H"/>
    </contour>
  </outline>
</glyph>
<glyph name="LtnSmC" format="1">
  <advance width="910"/>
  <unicode hex="0063"/>
  <outline>
    <contour>
      <point x="814" y="363" type="line"/>
      <point x="734" y="173"/>
      <point x="642" y="130"/>
      <point x="530" y="130" type="curve" smooth="yes"/>
      <point x="339" y="130"/>
      <point x="233" y="327"/>
      <point x="233" y="544" type="curve" smooth="yes"/>
      <point x="233" y="733"/>
      <point x="321" y="877"/>
      <point x="474" y="877" type="curve" smooth="yes"/>
      <point x="566" y="877"/>
      <point x="606" y="828"/>
      <point x="613" y="756" type="curve"/>
      <point x="621" y="647"/>
      <point x="684" y="639"/>
      <point x="724" y="639" type="curve" smooth="yes"/>
      <point x="787" y="639"/>
      <point x="818" y="677"/>
      <point x="818" y="724" type="curve" smooth="yes"/>
      <point x="818" y="775"/>
      <point x="786" y="824"/>
      <point x="729" y="871" type="curve" smooth="yes"/>
      <point x="672" y="918"/>
      <point x="597" y="942"/>
      <point x="506" y="942" type="curve" smooth="yes"/>
      <point x="269" y="942"/>
      <point x="69" y="748"/>
      <point x="69" y="457" type="curve" smooth="yes"/>
      <point x="69" y="161"/>
      <point x="243" y="-30"/>
      <point x="459" y="-30" type="curve" smooth="yes"/>
      <point x="639" y="-30"/>
      <point x="806" y="127"/>
      <point x="841" y="348" type="curve"/>
    </contour>
    <contour>
      <point x="480" y="1000" type="move" name="U"/>
    </contour>
    <contour>
      <point x="480" y="-100" type="move" name="L"/>
    </contour>
    <contour>
      <point x="455" y="0" type="move" name="H"/>
    </contour>
    <contour>
      <point x="910" y="900" type="move" name="R"/>
    </contour>
  </outline>
</glyph>
<glyph name="LtnSmM" format="1">
  <advance width="1595"/>
  <unicode hex="006D"/>
  <outline>
    <contour>
      <point x="1587" y="0" type="line" name="ab02"/>
      <point x="1587" y="38" type="line" name="sh14"/>
      <point x="1476" y="38" name="sh07"/>
      <point x="1448" y="67"/>
      <point x="1448" y="207" type="curve" smooth="yes" name="at03"/>
      <point x="1448" y="603" type="line" smooth="yes" name="iv03"/>
      <point x="1448" y="851" name="at02"/>
      <point x="1354" y="942" name="sh13"/>
      <point x="1206" y="942" type="curve" smooth="yes"/>
      <point x="1104" y="942" name="at01"/>
      <point x="1020" y="905"/>
      <point x="885" y="749" type="curve" name="sh12"/>
      <point x="856" y="882"/>
      <point x="761" y="942" name="sh01"/>
      <point x="653" y="942" type="curve" smooth="yes" name="sh11"/>
      <point x="561" y="942" name="ab01"/>
      <point x="485" y="909"/>
      <point x="335" y="749" type="curve" name="sh10"/>
      <point x="335" y="942" type="line" name="sh02"/>
      <point x="292" y="942" type="line"/>
      <point x="13" y="832" type="line" name="ih02"/>
      <point x="30" y="796" type="line" name="iv02"/>
      <point x="179" y="849" name="sh03"/>
      <point x="167" y="762" name="sh09"/>
      <point x="167" y="558" type="curve" smooth="yes"/>
      <point x="167" y="207" type="line" smooth="yes" name="ab04"/>
      <point x="167" y="64" name="sh08"/>
      <point x="146" y="38" name="sh04"/>
      <point x="30" y="38" type="curve"/>
      <point x="30" y="0" type="line" name="ih01"/>
      <point x="483" y="0" type="line" name="iv01"/>
      <point x="483" y="38" type="line" name="sh05"/>
      <point x="365" y="38" name="sh06"/>
      <point x="335" y="53" name="ab03"/>
      <point x="335" y="207" type="curve" smooth="yes" name="ah01"/>
      <point x="335" y="700" type="line" name="sh15"/>
      <point x="391" y="759"/>
      <point x="474" y="826"/>
      <point x="570" y="826" type="curve" smooth="yes"/>
      <point x="666" y="826"/>
      <point x="726" y="766"/>
      <point x="726" y="603" type="curve" smooth="yes"/>
      <point x="726" y="207" type="line" smooth="yes"/>
      <point x="726" y="91"/>
      <point x="732" y="38"/>
      <point x="576" y="38" type="curve"/>
      <point x="576" y="0" type="line"/>
      <point x="1040" y="0" type="line"/>
      <point x="1040" y="38" type="line"/>
      <point x="901" y="38"/>
      <point x="893" y="76"/>
      <point x="893" y="207" type="curve" smooth="yes"/>
      <point x="893" y="700" type="line"/>
      <point x="991" y="798"/>
      <point x="1069" y="824"/>
      <point x="1130" y="824" type="curve" smooth="yes"/>
      <point x="1232" y="824"/>
      <point x="1281" y="767"/>
      <point x="1281" y="603" type="curve" smooth="yes"/>
      <point x="1281" y="207" type="line" smooth="yes"/>
      <point x="1281" y="83"/>
      <point x="1277" y="38"/>
      <point x="1134" y="38" type="curve"/>
      <point x="1134" y="0" type="line"/>
    </contour>
    <contour>
      <point x="800" y="1000" type="move" name="U"/>
    </contour>
    <contour>
      <point x="800" y="-100" type="move" name="L"/>
    </contour>
    <contour>
      <point x="1365" y="0" type="move" name="H"/>
    </contour>
  </outline>
</glyph>
<glyph name="LtnSmP" format="1">
  <advance width="1025"/>
  <unicode hex="0070"/>
  <outline>
    <contour>
      <point x="956" y="493" type="curve" smooth="yes"/>
      <point x="956" y="746" name="at01"/>
      <point x="816" y="942" name="sh04"/>
      <point x="613" y="942" type="curve" smooth="yes" name="at02"/>
      <point x="502" y="942"/>
      <point x="412" y="887"/>
      <point x="318" y="726" type="curve"/>
      <point x="318" y="940" type="line"/>
      <point x="280" y="940" type="line" name="sh01"/>
      <point x="-6" y="826" type="line" name="iv02"/>
      <point x="6" y="792" type="line" name="sv01"/>
      <point x="65" y="816" name="ab01"/>
      <point x="94" y="811"/>
      <point x="115" y="796" type="curve" smooth="yes" name="sv02"/>
      <point x="148" y="771" name="sh03"/>
      <point x="148" y="749" name="iv01"/>
      <point x="148" y="647" type="curve" smooth="yes" name="ab02"/>
      <point x="148" y="-220" type="line" smooth="yes" name="dh02"/>
      <point x="148" y="-373"/>
      <point x="137" y="-397" name="sv04"/>
      <point x="-12" y="-402" type="curve"/>
      <point x="-12" y="-440" type="line"/>
      <point x="474" y="-440" type="line" name="sh02"/>
      <point x="474" y="-402" type="line" name="sv03"/>
      <point x="326" y="-397" name="dh01"/>
      <point x="318" y="-369" name="ah01"/>
      <point x="318" y="-224" type="curve" smooth="yes"/>
      <point x="318" y="53" type="line"/>
      <point x="403" y="-24"/>
      <point x="477" y="-30"/>
      <point x="536" y="-30" type="curve" smooth="yes"/>
      <point x="786" y="-30"/>
      <point x="956" y="205"/>
    </contour>
    <contour>
      <point x="796" y="398" type="curve" smooth="yes"/>
      <point x="796" y="171"/>
      <point x="688" y="32"/>
      <point x="532" y="32" type="curve" smooth="yes"/>
      <point x="414" y="32"/>
      <point x="346" y="108"/>
      <point x="327" y="177" type="curve"/>
      <point x="321" y="203"/>
      <point x="318" y="252"/>
      <point x="318" y="323" type="curve" smooth="yes"/>
      <point x="318" y="666" type="line"/>
      <point x="400" y="756"/>
      <point x="453" y="820"/>
      <point x="532" y="820" type="curve" smooth="yes"/>
      <point x="676" y="820"/>
      <point x="796" y="694"/>
    </contour>
    <contour>
      <point x="472" y="1000" type="move" name="U"/>
    </contour>
    <contour>
      <point x="472" y="-500" type="move" name="L"/>
    </contour>
    <contour>
      <point x="1025" y="900" type="move" name="R"/>
    </contour>
    <contour>
      <point x="230" y="-435" type="move" name="H"/>
    </contour>
  </outline>
</glyph>
<glyph name="LtnSmR" format="1">
  <advance width="702"/>
  <unicode hex="0072"/>
  <outline>
    <contour>
      <point x="698" y="832" type="curve" smooth="yes"/>
      <point x="698" y="897" name="at01"/>
      <point x="641" y="942" name="sh04"/>
      <point x="568" y="942" type="curve" smooth="yes" name="at02"/>
      <point x="486" y="942"/>
      <point x="407" y="874"/>
      <point x="331" y="737" type="curve"/>
      <point x="331" y="942" type="line"/>
      <point x="292" y="942" type="line" name="sh01"/>
      <point x="8" y="832" type="line" name="iv02"/>
      <point x="17" y="796" type="line" name="sv02"/>
      <point x="73" y="820" name="ab01"/>
      <point x="105" y="814"/>
      <point x="134" y="798" type="curve" name="sv03"/>
      <point x="156" y="773" name="iv01"/>
      <point x="164" y="755" name="sh02"/>
      <point x="164" y="562" type="curve" smooth="yes"/>
      <point x="164" y="207" type="line" smooth="yes" name="sv01"/>
      <point x="164" y="51" name="sh03"/>
      <point x="132" y="38" name="ah01"/>
      <point x="17" y="38" type="curve" name="sh05"/>
      <point x="17" y="0" type="line"/>
      <point x="493" y="0" type="line"/>
      <point x="493" y="38" type="line"/>
      <point x="362" y="38"/>
      <point x="331" y="97"/>
      <point x="331" y="213" type="curve" smooth="yes"/>
      <point x="331" y="654" type="line"/>
      <point x="382" y="751"/>
      <point x="432" y="810"/>
      <point x="465" y="810" type="curve" smooth="yes"/>
      <point x="508" y="810"/>
      <point x="540" y="739"/>
      <point x="607" y="739" type="curve" smooth="yes"/>
      <point x="658" y="739"/>
      <point x="698" y="784"/>
    </contour>
    <contour>
      <point x="353" y="1000" type="move" name="U"/>
    </contour>
    <contour>
      <point x="353" y="-100" type="move" name="L"/>
    </contour>
    <contour>
      <point x="256" y="0" type="move" name="H"/>
    </contour>
  </outline>
</glyph>
<glyph name="LtnSmT" format="1">
  <advance width="570"/>
  <unicode hex="0074"/>
  <outline>
    <contour>
      <point x="532" y="167" type="line"/>
      <point x="508" y="115"/>
      <point x="469" y="82"/>
      <point x="420" y="85" type="curve" smooth="yes" name="sh02"/>
      <point x="369" y="88"/>
      <point x="329" y="117" name="at01"/>
      <point x="329" y="237" type="curve" smooth="yes" name="sh03"/>
      <point x="329" y="848" type="line" name="av01"/>
      <point x="544" y="848" type="line"/>
      <point x="544" y="916" type="line"/>
      <point x="329" y="916" type="line" name="sv02"/>
      <point x="329" y="1218" type="line" name="sv01"/>
      <point x="299" y="1218" type="line" name="sh01"/>
      <point x="243" y="1086"/>
      <point x="222" y="1059" name="ab01"/>
      <point x="186" y="1015" type="curve" smooth="yes" name="iv01"/>
      <point x="134" y="954" name="ah01"/>
      <point x="70" y="899" name="sh04"/>
      <point x="15" y="879" type="curve"/>
      <point x="15" y="848" type="line"/>
      <point x="162" y="848" type="line"/>
      <point x="162" y="213" type="line" smooth="yes"/>
      <point x="162" y="8"/>
      <point x="256" y="-30"/>
      <point x="343" y="-30" type="curve" smooth="yes"/>
      <point x="422" y="-30"/>
      <point x="530" y="32"/>
      <point x="572" y="167" type="curve"/>
    </contour>
    <contour>
      <point x="285" y="1298" type="move" name="U"/>
    </contour>
    <contour>
      <point x="293" y="-100" type="move" name="L"/>
    </contour>
    <contour>
      <point x="570" y="900" type="move" name="R"/>
    </contour>
    <contour>
      <point x="293" y="0" type="move" name="H"/>
    </contour>
  </outline>
</glyph>
<glyph name="LtnSmW" format="1">
  <advance width="1480"/>
  <unicode hex="0077"/>
  <outline>
    <contour>
      <point x="1463" y="916" type="line"/>
      <point x="1173" y="916" type="line"/>
      <point x="1173" y="879" type="line"/>
      <point x="1258" y="879"/>
      <point x="1269" y="844"/>
      <point x="1269" y="828" type="curve" smooth="yes"/>
      <point x="1269" y="807"/>
      <point x="1262" y="778"/>
      <point x="1247" y="741" type="curve"/>
      <point x="1057" y="237" type="line"/>
      <point x="848" y="763" type="line"/>
      <point x="829" y="796"/>
      <point x="843" y="840"/>
      <point x="859" y="856" type="curve"/>
      <point x="879" y="871"/>
      <point x="912" y="876"/>
      <point x="961" y="879" type="curve"/>
      <point x="961" y="916" type="line"/>
      <point x="525" y="916" type="line"/>
      <point x="525" y="879" type="line"/>
      <point x="564" y="877"/>
      <point x="592" y="872"/>
      <point x="607" y="863" type="curve" smooth="yes"/>
      <point x="633" y="848"/>
      <point x="654" y="820"/>
      <point x="670" y="781" type="curve"/>
      <point x="722" y="645" type="line"/>
      <point x="525" y="215" type="line"/>
      <point x="327" y="741" type="line" smooth="yes"/>
      <point x="303" y="804"/>
      <point x="304" y="838"/>
      <point x="327" y="861" type="curve"/>
      <point x="339" y="871"/>
      <point x="363" y="877"/>
      <point x="398" y="879" type="curve"/>
      <point x="398" y="916" type="line"/>
      <point x="12" y="916" type="line"/>
      <point x="12" y="879" type="line"/>
      <point x="53" y="871"/>
      <point x="85" y="858"/>
      <point x="100" y="839" type="curve"/>
      <point x="120" y="822"/>
      <point x="138" y="790"/>
      <point x="158" y="741" type="curve"/>
      <point x="453" y="-30" type="line"/>
      <point x="491" y="-30" type="line"/>
      <point x="756" y="558" type="line"/>
      <point x="985" y="-30" type="line"/>
      <point x="1027" y="-30" type="line"/>
      <point x="1332" y="763" type="line"/>
      <point x="1360" y="832"/>
      <point x="1404" y="871"/>
      <point x="1463" y="879" type="curve"/>
    </contour>
    <contour>
      <point x="737" y="1000" type="move" name="U"/>
    </contour>
    <contour>
      <point x="737" y="-100" type="move" name="L"/>
    </contour>
  </outline>
</glyph>
<glyph name="LtnSmX" format="1">
  <advance width="1025"/>
  <unicode hex="0078"/>
  <outline>
    <contour>
      <point x="1001" y="0" type="line" name="mh02"/>
      <point x="1001" y="38" type="line" name="sv04"/>
      <point x="961" y="39"/>
      <point x="918" y="51"/>
      <point x="907" y="64" type="curve"/>
      <point x="851" y="117" name="mv04"/>
      <point x="841" y="130" name="mh01"/>
      <point x="786" y="209" type="curve" smooth="yes" name="at01"/>
      <point x="558" y="536" type="line"/>
      <point x="682" y="705" type="line" smooth="yes"/>
      <point x="777" y="834"/>
      <point x="820" y="876" name="iv02"/>
      <point x="903" y="879" type="curve" name="mv03"/>
      <point x="903" y="916" type="line" name="fh01"/>
      <point x="593" y="916" type="line" name="at02"/>
      <point x="593" y="879" type="line"/>
      <point x="673" y="879"/>
      <point x="675" y="827" name="mv02"/>
      <point x="654" y="798" type="curve" name="mv01"/>
      <point x="519" y="601" type="line"/>
      <point x="388" y="806" type="line" name="sv01"/>
      <point x="375" y="829" name="ab01"/>
      <point x="379" y="884"/>
      <point x="459" y="879" type="curve" name="sv03"/>
      <point x="459" y="916" type="line"/>
      <point x="28" y="916" type="line" name="iv01"/>
      <point x="28" y="879" type="line"/>
      <point x="114" y="876" name="sv02"/>
      <point x="146" y="863"/>
      <point x="244" y="717" type="curve"/>
      <point x="418" y="465" type="line"/>
      <point x="224" y="209" type="line" smooth="yes"/>
      <point x="123" y="74"/>
      <point x="88" y="41"/>
      <point x="36" y="38" type="curve"/>
      <point x="36" y="0" type="line"/>
      <point x="335" y="0" type="line"/>
      <point x="335" y="38" type="line"/>
      <point x="233" y="41"/>
      <point x="233" y="105"/>
      <point x="260" y="140" type="curve" smooth="yes"/>
      <point x="459" y="406" type="line"/>
      <point x="649" y="126" type="line"/>
      <point x="665" y="99"/>
      <point x="669" y="38"/>
      <point x="568" y="38" type="curve"/>
      <point x="568" y="0" type="line"/>
    </contour>
    <contour>
      <point x="514" y="1000" type="move" name="U"/>
    </contour>
    <contour>
      <point x="514" y="-100" type="move" name="L"/>
    </contour>
    <contour>
      <point x="770" y="0" type="move" name="H"/>
    </contour>
  </outline>
</glyph>
<glyph name="LtnSmZ" format="1">
  <advance width="910"/>
  <unicode hex="007A"/>
  <outline>
    <contour>
      <point x="877" y="879" type="line"/>
      <point x="877" y="916" type="line" name="at01"/>
      <point x="109" y="916" type="line"/>
      <point x="102" y="662" type="line"/>
      <point x="141" y="662" type="line"/>
      <point x="152" y="771"/>
      <point x="181" y="816" name="sv01"/>
      <point x="220" y="833" type="curve"/>
      <point x="244" y="841"/>
      <point x="285" y="848" name="ab01"/>
      <point x="348" y="848" type="curve" smooth="yes"/>
      <point x="651" y="848" type="line"/>
      <point x="41" y="38" type="line"/>
      <point x="41" y="0" type="line"/>
      <point x="850" y="0" type="line" name="sv02"/>
      <point x="861" y="280" type="line"/>
      <point x="826" y="280" type="line"/>
      <point x="807" y="112"/>
      <point x="781" y="106"/>
      <point x="737" y="85" type="curve" smooth="yes"/>
      <point x="713" y="73"/>
      <point x="667" y="67"/>
      <point x="598" y="67" type="curve" smooth="yes"/>
      <point x="262" y="67" type="line"/>
    </contour>
    <contour>
      <point x="459" y="1000" type="move" name="U"/>
    </contour>
    <contour>
      <point x="459" y="-100" type="move" name="L"/>
    </contour>
    <contour>
      <point x="459" y="0" type="move" name="H"/>
    </contour>
  </outline>
</glyph>
<glyph name="RtCurlyBrac" format="1">
  <advance width="980"/>
  <unicode hex="007D"/>
  <outline>
    <contour>
      <point x="761" y="465" type="curve"/>
      <point x="761" y="517" type="line"/>
      <point x="666" y="528"/>
      <point x="532" y="605"/>
      <point x="532" y="731" type="curve" smooth="yes"/>
      <point x="532" y="824"/>
      <point x="577" y="940"/>
      <point x="577" y="1053" type="curve" smooth="yes"/>
      <point x="577" y="1245"/>
      <point x="391" y="1403"/>
      <point x="205" y="1423" type="curve"/>
      <point x="205" y="1388" type="line"/>
      <point x="337" y="1354"/>
      <point x="427" y="1269"/>
      <point x="427" y="1123" type="curve" smooth="yes"/>
      <point x="427" y="1029"/>
      <point x="384" y="942"/>
      <point x="384" y="846" type="curve" smooth="yes"/>
      <point x="384" y="668"/>
      <point x="500" y="548"/>
      <point x="658" y="491" type="curve"/>
      <point x="499" y="434"/>
      <point x="384" y="312"/>
      <point x="384" y="132" type="curve" smooth="yes"/>
      <point x="384" y="38"/>
      <point x="427" y="-47"/>
      <point x="427" y="-141" type="curve" smooth="yes"/>
      <point x="427" y="-288"/>
      <point x="337" y="-372"/>
      <point x="205" y="-406" type="curve"/>
      <point x="205" y="-442" type="line"/>
      <point x="397" y="-422"/>
      <point x="577" y="-258"/>
      <point x="577" y="-57" type="curve" smooth="yes"/>
      <point x="577" y="49"/>
      <point x="532" y="158"/>
      <point x="532" y="246" type="curve" smooth="yes"/>
      <point x="532" y="374"/>
      <point x="664" y="453"/>
    </contour>
  </outline>
</glyph>
<glyph name="CurrSgn" format="1">
  <advance width="1202"/>
  <unicode hex="00A4"/>
  <outline>
    <contour>
      <point x="1143" y="386" type="line"/>
      <point x="940" y="589" type="line"/>
      <point x="999" y="660"/>
      <point x="1027" y="751"/>
      <point x="1027" y="844" type="curve" smooth="yes"/>
      <point x="1027" y="936"/>
      <point x="993" y="1035"/>
      <point x="938" y="1104" type="curve"/>
      <point x="1143" y="1309" type="line"/>
      <point x="1072" y="1380" type="line"/>
      <point x="863" y="1171" type="line"/>
      <point x="796" y="1228"/>
      <point x="705" y="1260"/>
      <point x="615" y="1260" type="curve" smooth="yes"/>
      <point x="523" y="1260"/>
      <point x="427" y="1230"/>
      <point x="357" y="1173" type="curve"/>
      <point x="150" y="1380" type="line"/>
      <point x="79" y="1309" type="line"/>
      <point x="286" y="1102" type="line"/>
      <point x="222" y="1033"/>
      <point x="195" y="933"/>
      <point x="195" y="841" type="curve" smooth="yes"/>
      <point x="195" y="749"/>
      <point x="224" y="660"/>
      <point x="282" y="589" type="curve"/>
      <point x="79" y="386" type="line"/>
      <point x="150" y="316" type="line"/>
      <point x="353" y="519" type="line"/>
      <point x="425" y="455"/>
      <point x="517" y="425"/>
      <point x="615" y="425" type="curve" smooth="yes"/>
      <point x="705" y="425"/>
      <point x="798" y="457"/>
      <point x="869" y="519" type="curve"/>
      <point x="1072" y="316" type="line"/>
    </contour>
    <contour>
      <point x="914" y="844" type="curve"/>
      <point x="914" y="678"/>
      <point x="782" y="538"/>
      <point x="615" y="538" type="curve" smooth="yes"/>
      <point x="446" y="538"/>
      <point x="307" y="672"/>
      <point x="307" y="841" type="curve" smooth="yes"/>
      <point x="307" y="1013"/>
      <point x="444" y="1147"/>
      <point x="615" y="1147" type="curve" smooth="yes"/>
      <point x="781" y="1147"/>
      <point x="914" y="1008"/>
    </contour>
  </outline>
</glyph>
<glyph name="SectionSgn" format="1">
  <advance width="1025"/>
  <unicode hex="00A7"/>
  <outline>
    <contour>
      <point x="869" y="481" type="curve"/>
      <point x="869" y="678"/>
      <point x="674" y="814"/>
      <point x="542" y="914" type="curve" smooth="yes"/>
      <point x="446" y="987"/>
      <point x="363" y="1053"/>
      <point x="363" y="1168" type="curve" smooth="yes"/>
      <point x="363" y="1258"/>
      <point x="427" y="1343"/>
      <point x="536" y="1343" type="curve" smooth="yes"/>
      <point x="607" y="1343"/>
      <point x="647" y="1301"/>
      <point x="647" y="1247" type="curve" smooth="yes"/>
      <point x="647" y="1216"/>
      <point x="632" y="1171"/>
      <point x="632" y="1151" type="curve" smooth="yes"/>
      <point x="632" y="1115"/>
      <point x="664" y="1074"/>
      <point x="711" y="1074" type="curve" smooth="yes"/>
      <point x="755" y="1074"/>
      <point x="790" y="1110"/>
      <point x="790" y="1165" type="curve" smooth="yes"/>
      <point x="790" y="1303"/>
      <point x="666" y="1386"/>
      <point x="536" y="1386" type="curve" smooth="yes"/>
      <point x="429" y="1386"/>
      <point x="252" y="1299"/>
      <point x="252" y="1104" type="curve" smooth="yes"/>
      <point x="252" y="980"/>
      <point x="335" y="893"/>
      <point x="376" y="844" type="curve"/>
      <point x="301" y="798"/>
      <point x="156" y="686"/>
      <point x="156" y="504" type="curve" smooth="yes"/>
      <point x="156" y="346"/>
      <point x="274" y="224"/>
      <point x="463" y="85" type="curve" smooth="yes"/>
      <point x="550" y="22"/>
      <point x="668" y="-69"/>
      <point x="668" y="-197" type="curve" smooth="yes"/>
      <point x="668" y="-274"/>
      <point x="585" y="-361"/>
      <point x="493" y="-361" type="curve" smooth="yes"/>
      <point x="438" y="-361"/>
      <point x="372" y="-335"/>
      <point x="372" y="-284" type="curve" smooth="yes"/>
      <point x="372" y="-256"/>
      <point x="391" y="-201"/>
      <point x="391" y="-173" type="curve" smooth="yes"/>
      <point x="391" y="-148"/>
      <point x="374" y="-87"/>
      <point x="314" y="-87" type="curve" smooth="yes"/>
      <point x="278" y="-87"/>
      <point x="237" y="-116"/>
      <point x="237" y="-175" type="curve" smooth="yes"/>
      <point x="237" y="-323"/>
      <point x="372" y="-400"/>
      <point x="485" y="-400" type="curve" smooth="yes"/>
      <point x="639" y="-400"/>
      <point x="771" y="-286"/>
      <point x="771" y="-115" type="curve" smooth="yes"/>
      <point x="771" y="12"/>
      <point x="694" y="90"/>
      <point x="649" y="140" type="curve"/>
      <point x="726" y="188"/>
      <point x="869" y="297"/>
    </contour>
    <contour>
      <point x="724" y="525" type="curve"/>
      <point x="832" y="353"/>
      <point x="717" y="233"/>
      <point x="615" y="167" type="curve"/>
      <point x="544" y="248"/>
      <point x="374" y="329"/>
      <point x="295" y="461" type="curve" smooth="yes"/>
      <point x="195" y="628"/>
      <point x="310" y="753"/>
      <point x="410" y="812" type="curve"/>
      <point x="446" y="773"/>
      <point x="653" y="637"/>
    </contour>
  </outline>
</glyph>
<glyph name="Diaer" format="1">
  <advance width="613"/>
  <unicode hex="00A8"/>
  <outline>
    <component base="CombDiaer" xOffset="818"/>
    <contour>
      <point x="306" y="1375" type="move" name="U"/>
    </contour>
  </outline>
</glyph>
<glyph name="CopyrightSgn" format="1">
  <advance width="1557"/>
  <unicode hex="00A9"/>
  <outline>
    <contour>
      <point x="1490" y="678" type="curve"/>
      <point x="1490" y="1076"/>
      <point x="1179" y="1388"/>
      <point x="779" y="1388" type="curve" smooth="yes"/>
      <point x="427" y="1388"/>
      <point x="69" y="1121"/>
      <point x="69" y="678" type="curve" smooth="yes"/>
      <point x="69" y="272"/>
      <point x="388" y="-32"/>
      <point x="779" y="-32" type="curve" smooth="yes"/>
      <point x="1171" y="-32"/>
      <point x="1490" y="278"/>
    </contour>
    <contour>
      <point x="1427" y="678" type="curve"/>
      <point x="1427" y="301"/>
      <point x="1123" y="32"/>
      <point x="779" y="32" type="curve" smooth="yes"/>
      <point x="429" y="32"/>
      <point x="132" y="305"/>
      <point x="132" y="678" type="curve" smooth="yes"/>
      <point x="132" y="1078"/>
      <point x="461" y="1326"/>
      <point x="779" y="1326" type="curve" smooth="yes"/>
      <point x="1136" y="1326"/>
      <point x="1427" y="1042"/>
    </contour>
    <contour>
      <point x="1166" y="429" type="curve"/>
      <point x="1130" y="451" type="line"/>
      <point x="1053" y="343"/>
      <point x="950" y="290"/>
      <point x="818" y="290" type="curve" smooth="yes"/>
      <point x="619" y="290"/>
      <point x="485" y="423"/>
      <point x="485" y="702" type="curve" smooth="yes"/>
      <point x="485" y="936"/>
      <point x="605" y="1090"/>
      <point x="808" y="1090" type="curve" smooth="yes"/>
      <point x="1019" y="1090"/>
      <point x="1086" y="933"/>
      <point x="1112" y="856" type="curve"/>
      <point x="1149" y="856" type="line"/>
      <point x="1130" y="1136" type="line"/>
      <point x="1090" y="1136" type="line"/>
      <point x="1082" y="1117"/>
      <point x="1078" y="1090"/>
      <point x="1040" y="1090" type="curve" smooth="yes"/>
      <point x="1001" y="1090"/>
      <point x="946" y="1136"/>
      <point x="818" y="1136" type="curve" smooth="yes"/>
      <point x="560" y="1136"/>
      <point x="320" y="968"/>
      <point x="320" y="672" type="curve" smooth="yes"/>
      <point x="320" y="408"/>
      <point x="532" y="227"/>
      <point x="782" y="227" type="curve" smooth="yes"/>
      <point x="950" y="227"/>
      <point x="1074" y="297"/>
    </contour>
  </outline>
</glyph>
<glyph name="FemOrdIndicator" format="1">
  <advance width="653"/>
  <unicode hex="00AA"/>
  <outline>
    <contour>
      <point x="651" y="885" type="curve"/>
      <point x="651" y="920" type="line"/>
      <point x="600" y="875"/>
      <point x="589" y="871"/>
      <point x="574" y="871" type="curve" smooth="yes"/>
      <point x="553" y="871"/>
      <point x="544" y="879"/>
      <point x="542" y="901" type="curve"/>
      <point x="538" y="912"/>
      <point x="538" y="946"/>
      <point x="538" y="997" type="curve" smooth="yes"/>
      <point x="538" y="1185" type="line" smooth="yes"/>
      <point x="538" y="1299"/>
      <point x="508" y="1371"/>
      <point x="318" y="1371" type="curve" smooth="yes"/>
      <point x="192" y="1371"/>
      <point x="77" y="1320"/>
      <point x="77" y="1234" type="curve" smooth="yes"/>
      <point x="77" y="1198"/>
      <point x="98" y="1177"/>
      <point x="138" y="1177" type="curve" smooth="yes"/>
      <point x="173" y="1177"/>
      <point x="199" y="1198"/>
      <point x="197" y="1234" type="curve" smooth="yes"/>
      <point x="195" y="1269" type="line"/>
      <point x="199" y="1307"/>
      <point x="235" y="1337"/>
      <point x="294" y="1337" type="curve" smooth="yes"/>
      <point x="378" y="1337"/>
      <point x="418" y="1299"/>
      <point x="418" y="1192" type="curve" smooth="yes"/>
      <point x="418" y="1171" type="line"/>
      <point x="105" y="1080"/>
      <point x="51" y="1017"/>
      <point x="51" y="936" type="curve" smooth="yes"/>
      <point x="51" y="852"/>
      <point x="115" y="796"/>
      <point x="209" y="796" type="curve" smooth="yes"/>
      <point x="278" y="796"/>
      <point x="301" y="810"/>
      <point x="418" y="885" type="curve"/>
      <point x="418" y="816"/>
      <point x="453" y="796"/>
      <point x="495" y="796" type="curve" smooth="yes"/>
      <point x="546" y="796"/>
      <point x="598" y="826"/>
    </contour>
    <contour>
      <point x="639" y="654" type="line"/>
      <point x="639" y="698" type="line"/>
      <point x="59" y="698" type="line"/>
      <point x="59" y="654" type="line"/>
    </contour>
    <contour>
      <point x="418" y="925" type="line"/>
      <point x="359" y="885"/>
      <point x="310" y="861"/>
      <point x="274" y="863" type="curve" smooth="yes"/>
      <point x="218" y="865"/>
      <point x="173" y="909"/>
      <point x="173" y="963" type="curve" smooth="yes"/>
      <point x="173" y="1017"/>
      <point x="195" y="1062"/>
      <point x="418" y="1136" type="curve"/>
    </contour>
  </outline>
</glyph>
<glyph name="NotSgn" format="1">
  <advance width="1222"/>
  <unicode hex="00AC"/>
  <outline>
    <contour>
      <point x="1143" y="372" type="line"/>
      <point x="1143" y="828" type="line"/>
      <point x="79" y="828" type="line"/>
      <point x="79" y="709" type="line"/>
      <point x="1025" y="709" type="line"/>
      <point x="1025" y="372" type="line"/>
    </contour>
  </outline>
</glyph>
<glyph name="Macron" format="1">
  <advance width="643"/>
  <unicode hex="00AF"/>
  <outline>
    <contour>
      <point x="643" y="1125" type="line"/>
      <point x="643" y="1236" type="line"/>
      <point x="0" y="1236" type="line"/>
      <point x="0" y="1125" type="line"/>
    </contour>
  </outline>
</glyph>
<glyph name="DegreeSgn" format="1">
  <advance width="630"/>
  <unicode hex="00B0"/>
  <outline>
    <contour>
      <point x="532" y="1202" type="curve"/>
      <point x="532" y="1322"/>
      <point x="436" y="1420"/>
      <point x="316" y="1420" type="curve" smooth="yes"/>
      <point x="195" y="1420"/>
      <point x="98" y="1322"/>
      <point x="98" y="1202" type="curve" smooth="yes"/>
      <point x="98" y="1082"/>
      <point x="195" y="985"/>
      <point x="316" y="985" type="curve" smooth="yes"/>
      <point x="436" y="985"/>
      <point x="532" y="1082"/>
    </contour>
    <contour>
      <point x="453" y="1202" type="curve"/>
      <point x="453" y="1125"/>
      <point x="393" y="1064"/>
      <point x="316" y="1064" type="curve" smooth="yes"/>
      <point x="239" y="1064"/>
      <point x="177" y="1125"/>
      <point x="177" y="1202" type="curve" smooth="yes"/>
      <point x="177" y="1279"/>
      <point x="239" y="1341"/>
      <point x="316" y="1341" type="curve" smooth="yes"/>
      <point x="393" y="1341"/>
      <point x="453" y="1279"/>
    </contour>
  </outline>
</glyph>
<glyph name="SupTwo" format="1">
  <advance width="737"/>
  <unicode hex="00B2"/>
  <outline>
    <contour>
      <point x="676" y="961" type="line"/>
      <point x="651" y="961" type="line"/>
      <point x="605" y="909"/>
      <point x="589" y="897"/>
      <point x="442" y="897" type="curve" smooth="yes"/>
      <point x="186" y="897" type="line"/>
      <point x="215" y="920"/>
      <point x="290" y="985"/>
      <point x="408" y="1094" type="curve" smooth="yes"/>
      <point x="489" y="1166"/>
      <point x="617" y="1295"/>
      <point x="617" y="1423" type="curve" smooth="yes"/>
      <point x="617" y="1557"/>
      <point x="477" y="1638"/>
      <point x="337" y="1638" type="curve" smooth="yes"/>
      <point x="122" y="1638"/>
      <point x="73" y="1482"/>
      <point x="61" y="1407" type="curve"/>
      <point x="87" y="1407" type="line"/>
      <point x="105" y="1452"/>
      <point x="164" y="1546"/>
      <point x="299" y="1546" type="curve" smooth="yes"/>
      <point x="361" y="1546"/>
      <point x="493" y="1508"/>
      <point x="493" y="1368" type="curve" smooth="yes"/>
      <point x="493" y="1301"/>
      <point x="457" y="1226"/>
      <point x="391" y="1145" type="curve" smooth="yes"/>
      <point x="321" y="1062"/>
      <point x="199" y="958"/>
      <point x="32" y="828" type="curve"/>
      <point x="32" y="806" type="line"/>
      <point x="607" y="806" type="line"/>
    </contour>
    <contour>
      <point x="354" y="1625" type="move" name="U"/>
    </contour>
    <contour>
      <point x="354" y="750" type="move" name="L"/>
    </contour>
  </outline>
</glyph>
<glyph name="AcuteAccent" format="1">
  <advance width="702"/>
  <unicode hex="00B4"/>
  <outline>
    <component base="CombAcute" xOffset="927"/>
    <contour>
      <point x="471" y="1375" type="move" name="U"/>
    </contour>
  </outline>
</glyph>
<glyph name="PilcrowSgn" format="1">
  <advance width="929"/>
  <unicode hex="00B6"/>
  <outline>
    <contour>
      <point x="933" y="1301" type="line"/>
      <point x="933" y="1356" type="line"/>
      <point x="438" y="1356" type="line" smooth="yes"/>
      <point x="222" y="1356"/>
      <point x="-13" y="1271"/>
      <point x="-13" y="982" type="curve" smooth="yes"/>
      <point x="-13" y="668"/>
      <point x="237" y="609"/>
      <point x="467" y="603" type="curve"/>
      <point x="467" y="-444" type="line"/>
      <point x="540" y="-444" type="line"/>
      <point x="540" y="1301" type="line"/>
      <point x="726" y="1301" type="line"/>
      <point x="726" y="-444" type="line"/>
      <point x="800" y="-444" type="line"/>
      <point x="800" y="1301" type="line"/>
    </contour>
  </outline>
</glyph>
<glyph name="MiddleDot" format="1">
  <advance width="371"/>
  <unicode hex="00B7"/>
  <outline>
    <contour>
      <point x="301" y="670" type="curve"/>
      <point x="301" y="735"/>
      <point x="250" y="786"/>
      <point x="186" y="786" type="curve" smooth="yes"/>
      <point x="120" y="786"/>
      <point x="69" y="735"/>
      <point x="69" y="670" type="curve" smooth="yes"/>
      <point x="69" y="605"/>
      <point x="120" y="553"/>
      <point x="186" y="553" type="curve" smooth="yes"/>
      <point x="250" y="553"/>
      <point x="301" y="605"/>
    </contour>
  </outline>
</glyph>
<glyph name="SupOne" format="1">
  <advance width="737"/>
  <unicode hex="00B9"/>
  <outline>
    <contour>
      <point x="558" y="806" type="line"/>
      <point x="558" y="828" type="line"/>
      <point x="436" y="828"/>
      <point x="436" y="846"/>
      <point x="436" y="950" type="curve" smooth="yes"/>
      <point x="436" y="1638" type="line"/>
      <point x="410" y="1638" type="line"/>
      <point x="173" y="1542" type="line"/>
      <point x="183" y="1522" type="line"/>
      <point x="327" y="1576"/>
      <point x="316" y="1496"/>
      <point x="316" y="1390" type="curve" smooth="yes"/>
      <point x="316" y="950" type="line" smooth="yes"/>
      <point x="316" y="848"/>
      <point x="312" y="828"/>
      <point x="190" y="828" type="curve"/>
      <point x="190" y="806" type="line"/>
    </contour>
    <contour>
      <point x="366" y="1625" type="move" name="U"/>
    </contour>
    <contour>
      <point x="366" y="750" type="move" name="L"/>
    </contour>
  </outline>
</glyph>
<glyph name="MascOrdIndicator" format="1">
  <advance width="751"/>
  <unicode hex="00BA"/>
  <outline>
    <contour>
      <point x="694" y="1092" type="curve"/>
      <point x="694" y="1247"/>
      <point x="566" y="1371"/>
      <point x="376" y="1371" type="curve" smooth="yes"/>
      <point x="177" y="1371"/>
      <point x="57" y="1224"/>
      <point x="57" y="1076" type="curve" smooth="yes"/>
      <point x="57" y="922"/>
      <point x="186" y="788"/>
      <point x="371" y="788" type="curve" smooth="yes"/>
      <point x="585" y="788"/>
      <point x="694" y="950"/>
    </contour>
    <contour>
      <point x="684" y="654" type="line"/>
      <point x="684" y="698" type="line"/>
      <point x="69" y="698" type="line"/>
      <point x="69" y="654" type="line"/>
    </contour>
    <contour>
      <point x="560" y="1044" type="curve"/>
      <point x="560" y="887"/>
      <point x="495" y="832"/>
      <point x="400" y="832" type="curve" smooth="yes"/>
      <point x="274" y="832"/>
      <point x="192" y="968"/>
      <point x="192" y="1125" type="curve" smooth="yes"/>
      <point x="192" y="1285"/>
      <point x="280" y="1334"/>
      <point x="355" y="1334" type="curve" smooth="yes"/>
      <point x="481" y="1334"/>
      <point x="560" y="1208"/>
    </contour>
  </outline>
</glyph>
<glyph name="VulgFracOneQuarter" format="1">
  <advance width="1518"/>
  <unicode hex="00BC"/>
  <outline>
    <contour>
      <point x="1352" y="211" type="line"/>
      <point x="1352" y="295" type="line"/>
      <point x="1243" y="295" type="line"/>
      <point x="1243" y="832" type="line"/>
      <point x="1177" y="832" type="line"/>
      <point x="794" y="286" type="line"/>
      <point x="794" y="211" type="line"/>
      <point x="1143" y="211" type="line"/>
      <point x="1143" y="-8" type="line"/>
      <point x="1243" y="-8" type="line"/>
      <point x="1243" y="211" type="line"/>
    </contour>
    <contour>
      <point x="1277" y="1382" type="line"/>
      <point x="1185" y="1382" type="line"/>
      <point x="252" y="-15" type="line"/>
      <point x="351" y="-15" type="line"/>
    </contour>
    <contour>
      <point x="491" y="525" type="line"/>
      <point x="491" y="548" type="line"/>
      <point x="386" y="548"/>
      <point x="386" y="564"/>
      <point x="386" y="670" type="curve" smooth="yes"/>
      <point x="386" y="1364" type="line"/>
      <point x="365" y="1364" type="line"/>
      <point x="166" y="1267" type="line"/>
      <point x="173" y="1245" type="line"/>
      <point x="297" y="1303"/>
      <point x="286" y="1222"/>
      <point x="286" y="1112" type="curve" smooth="yes"/>
      <point x="286" y="670" type="line" smooth="yes"/>
      <point x="286" y="564"/>
      <point x="282" y="548"/>
      <point x="179" y="548" type="curve"/>
      <point x="179" y="525" type="line"/>
    </contour>
    <contour>
      <point x="1143" y="295" type="line"/>
      <point x="854" y="295" type="line"/>
      <point x="1143" y="704" type="line"/>
    </contour>
  </outline>
</glyph>
<glyph name="VulgFracThreeQuarters" format="1">
  <advance width="1518"/>
  <unicode hex="00BE"/>
  <outline>
    <contour>
      <point x="1378" y="211" type="line"/>
      <point x="1378" y="295" type="line"/>
      <point x="1269" y="295" type="line"/>
      <point x="1269" y="832" type="line"/>
      <point x="1202" y="832" type="line"/>
      <point x="820" y="286" type="line"/>
      <point x="820" y="211" type="line"/>
      <point x="1168" y="211" type="line"/>
      <point x="1168" y="-8" type="line"/>
      <point x="1269" y="-8" type="line"/>
      <point x="1269" y="211" type="line"/>
    </contour>
    <contour>
      <point x="1322" y="1382" type="line"/>
      <point x="1230" y="1382" type="line"/>
      <point x="297" y="-15" type="line"/>
      <point x="397" y="-15" type="line"/>
    </contour>
    <contour>
      <point x="607" y="796" type="curve"/>
      <point x="607" y="934"/>
      <point x="506" y="991"/>
      <point x="455" y="1011" type="curve"/>
      <point x="528" y="1076"/>
      <point x="566" y="1138"/>
      <point x="566" y="1196" type="curve" smooth="yes"/>
      <point x="566" y="1240"/>
      <point x="534" y="1364"/>
      <point x="374" y="1364" type="curve" smooth="yes"/>
      <point x="224" y="1364"/>
      <point x="177" y="1240"/>
      <point x="152" y="1189" type="curve"/>
      <point x="173" y="1179" type="line"/>
      <point x="215" y="1245"/>
      <point x="269" y="1279"/>
      <point x="331" y="1279" type="curve" smooth="yes"/>
      <point x="384" y="1279"/>
      <point x="465" y="1247"/>
      <point x="465" y="1141" type="curve" smooth="yes"/>
      <point x="465" y="989"/>
      <point x="310" y="954"/>
      <point x="278" y="950" type="curve"/>
      <point x="278" y="931" type="line"/>
      <point x="278" y="931"/>
      <point x="519" y="940"/>
      <point x="519" y="722" type="curve" smooth="yes"/>
      <point x="519" y="625"/>
      <point x="436" y="562"/>
      <point x="365" y="562" type="curve" smooth="yes"/>
      <point x="280" y="562"/>
      <point x="248" y="617"/>
      <point x="190" y="617" type="curve" smooth="yes"/>
      <point x="164" y="617"/>
      <point x="140" y="600"/>
      <point x="140" y="576" type="curve" smooth="yes"/>
      <point x="140" y="558"/>
      <point x="146" y="508"/>
      <point x="282" y="508" type="curve" smooth="yes"/>
      <point x="483" y="508"/>
      <point x="607" y="627"/>
    </contour>
    <contour>
      <point x="1168" y="295" type="line"/>
      <point x="879" y="295" type="line"/>
      <point x="1168" y="704" type="line"/>
    </contour>
  </outline>
</glyph>
<glyph name="LtnCapEGrave" format="1">
  <advance width="1251"/>
  <unicode hex="00C8"/>
  <outline>
    <component base="LtnCapE"/>
    <component base="CombGrave" xOffset="1136" yOffset="435"/>
    <contour>
      <point x="624" y="0" type="move" name="H"/>
    </contour>
    <contour>
      <point x="1251" y="1100" type="move" name="R"/>
    </contour>
    <contour>
      <point x="624" y="1870" type="move" name="U"/>
    </contour>
    <contour>
      <point x="624" y="-100" type="move" name="L"/>
    </contour>
    <contour>
      <point x="1044" y="0" type="move" name="O"/>
    </contour>
  </outline>
</glyph>
<glyph name="LtnCapOCircum" format="1">
  <advance width="1480"/>
  <unicode hex="00D4"/>
  <outline>
    <component base="LtnCapO"/>
    <component base="CombCircum" xOffset="1247" yOffset="435"/>
    <contour>
      <point x="735" y="0" type="move" name="H"/>
    </contour>
    <contour>
      <point x="1400" y="1320" type="move" name="R"/>
    </contour>
    <contour>
      <point x="735" y="1870" type="move" name="U"/>
    </contour>
    <contour>
      <point x="735" y="-100" type="move" name="L"/>
    </contour>
    <contour>
      <point x="990" y="0" type="move" name="O"/>
    </contour>
  </outline>
</glyph>
<glyph name="LtnCapThorn" format="1">
  <advance width="1139"/>
  <unicode hex="00DE"/>
  <outline>
    <contour>
      <point x="1062" y="680" type="curve"/>
      <point x="1062" y="812"/>
      <point x="991" y="909"/>
      <point x="899" y="972" type="curve" smooth="yes"/>
      <point x="814" y="1029"/>
      <point x="735" y="1049"/>
      <point x="495" y="1049" type="curve" smooth="yes"/>
      <point x="420" y="1049" type="line"/>
      <point x="420" y="1115" type="line" smooth="yes"/>
      <point x="420" y="1181"/>
      <point x="423" y="1204"/>
      <point x="438" y="1247" type="curve" smooth="yes"/>
      <point x="455" y="1301"/>
      <point x="530" y="1320"/>
      <point x="574" y="1320" type="curve" smooth="yes"/>
      <point x="615" y="1320" type="line"/>
      <point x="615" y="1356" type="line"/>
      <point x="38" y="1356" type="line"/>
      <point x="38" y="1320" type="line"/>
      <point x="75" y="1320" type="line" smooth="yes"/>
      <point x="150" y="1320"/>
      <point x="203" y="1287"/>
      <point x="215" y="1247" type="curve"/>
      <point x="222" y="1232"/>
      <point x="227" y="1185"/>
      <point x="227" y="1110" type="curve" smooth="yes"/>
      <point x="227" y="241" type="line" smooth="yes"/>
      <point x="227" y="160"/>
      <point x="220" y="111"/>
      <point x="207" y="92" type="curve" smooth="yes"/>
      <point x="181" y="55"/>
      <point x="138" y="38"/>
      <point x="73" y="38" type="curve" smooth="yes"/>
      <point x="38" y="38" type="line"/>
      <point x="38" y="0" type="line"/>
      <point x="615" y="0" type="line"/>
      <point x="615" y="38" type="line"/>
      <point x="574" y="38" type="line" smooth="yes"/>
      <point x="517" y="38"/>
      <point x="479" y="49"/>
      <point x="455" y="75" type="curve" smooth="yes"/>
      <point x="432" y="102"/>
      <point x="420" y="158"/>
      <point x="420" y="244" type="curve" smooth="yes"/>
      <point x="420" y="305" type="line"/>
      <point x="491" y="305" type="line" smooth="yes"/>
      <point x="810" y="305"/>
      <point x="883" y="355"/>
      <point x="954" y="425" type="curve" smooth="yes"/>
      <point x="1019" y="491"/>
      <point x="1062" y="581"/>
    </contour>
    <contour>
      <point x="830" y="678" type="curve"/>
      <point x="830" y="506"/>
      <point x="731" y="374"/>
      <point x="465" y="374" type="curve" smooth="yes"/>
      <point x="420" y="374" type="line"/>
      <point x="420" y="972" type="line"/>
      <point x="467" y="972" type="line" smooth="yes"/>
      <point x="649" y="972"/>
      <point x="664" y="952"/>
      <point x="717" y="914" type="curve" smooth="yes"/>
      <point x="790" y="861"/>
      <point x="830" y="775"/>
    </contour>
    <contour>
      <point x="550" y="1435" type="move" name="U"/>
    </contour>
    <contour>
      <point x="550" y="-100" type="move" name="L"/>
    </contour>
  </outline>
</glyph>
<glyph name="LtnSmSharpS" format="1">
  <advance width="1025"/>
  <unicode hex="00DF"/>
  <outline>
    <contour>
      <point x="960" y="422" type="curve"/>
      <point x="960" y="643"/>
      <point x="859" y="773"/>
      <point x="686" y="822" type="curve"/>
      <point x="848" y="889"/>
      <point x="877" y="995"/>
      <point x="877" y="1098" type="curve" smooth="yes"/>
      <point x="877" y="1291"/>
      <point x="737" y="1423"/>
      <point x="525" y="1423" type="curve" smooth="yes"/>
      <point x="292" y="1423"/>
      <point x="167" y="1293"/>
      <point x="167" y="968" type="curve" smooth="yes"/>
      <point x="167" y="224" type="line" smooth="yes"/>
      <point x="167" y="71"/>
      <point x="140" y="39"/>
      <point x="36" y="38" type="curve"/>
      <point x="36" y="0" type="line"/>
      <point x="335" y="0" type="line"/>
      <point x="335" y="1037" type="line" smooth="yes"/>
      <point x="335" y="1303"/>
      <point x="412" y="1356"/>
      <point x="517" y="1356" type="curve" smooth="yes"/>
      <point x="630" y="1356"/>
      <point x="709" y="1285"/>
      <point x="709" y="1104" type="curve" smooth="yes"/>
      <point x="709" y="899"/>
      <point x="628" y="832"/>
      <point x="495" y="832" type="curve"/>
      <point x="495" y="775" type="line"/>
      <point x="698" y="758"/>
      <point x="788" y="587"/>
      <point x="788" y="314" type="curve" smooth="yes"/>
      <point x="788" y="134"/>
      <point x="728" y="43"/>
      <point x="639" y="43" type="curve"/>
      <point x="603" y="47"/>
      <point x="581" y="59"/>
      <point x="581" y="90" type="curve" smooth="yes"/>
      <point x="581" y="102"/>
      <point x="595" y="140"/>
      <point x="593" y="158" type="curve" smooth="yes"/>
      <point x="591" y="205"/>
      <point x="562" y="237"/>
      <point x="510" y="237" type="curve" smooth="yes"/>
      <point x="459" y="237"/>
      <point x="427" y="201"/>
      <point x="429" y="150" type="curve" smooth="yes"/>
      <point x="432" y="55"/>
      <point x="512" y="-12"/>
      <point x="623" y="-12" type="curve" smooth="yes"/>
      <point x="832" y="-12"/>
      <point x="960" y="193"/>
    </contour>
    <contour>
      <point x="498" y="1435" type="move" name="U"/>
    </contour>
    <contour>
      <point x="498" y="-100" type="move" name="L"/>
    </contour>
  </outline>
</glyph>
<glyph name="LtnSmOCircum" format="1">
  <advance width="1025"/>
  <unicode hex="00F4"/>
  <outline>
    <component base="LtnSmO"/>
    <component base="CombCircum" xOffset="1023"/>
    <contour>
      <point x="511" y="0" type="move" name="H"/>
    </contour>
    <contour>
      <point x="1025" y="900" type="move" name="R"/>
    </contour>
    <contour>
      <point x="511" y="1435" type="move" name="U"/>
    </contour>
    <contour>
      <point x="511" y="-100" type="move" name="L"/>
    </contour>
    <contour>
      <point x="717" y="0" type="move" name="O"/>
    </contour>
  </outline>
</glyph>
<glyph name="LtnSmThorn" format="1">
  <advance width="1005"/>
  <unicode hex="00FE"/>
  <outline>
    <contour>
      <point x="956" y="493" type="curve"/>
      <point x="956" y="747"/>
      <point x="816" y="942"/>
      <point x="613" y="942" type="curve" smooth="yes"/>
      <point x="502" y="942"/>
      <point x="412" y="887"/>
      <point x="318" y="726" type="curve"/>
      <point x="318" y="1423" type="line"/>
      <point x="280" y="1423" type="line"/>
      <point x="-2" y="1311" type="line"/>
      <point x="10" y="1277" type="line"/>
      <point x="71" y="1301"/>
      <point x="98" y="1293"/>
      <point x="118" y="1279" type="curve" smooth="yes"/>
      <point x="146" y="1264"/>
      <point x="152" y="1251"/>
      <point x="152" y="1130" type="curve" smooth="yes"/>
      <point x="152" y="-220" type="line" smooth="yes"/>
      <point x="152" y="-384"/>
      <point x="134" y="-393"/>
      <point x="-8" y="-400" type="curve"/>
      <point x="-8" y="-438" type="line"/>
      <point x="474" y="-438" type="line"/>
      <point x="474" y="-400" type="line"/>
      <point x="329" y="-393"/>
      <point x="318" y="-369"/>
      <point x="318" y="-224" type="curve" smooth="yes"/>
      <point x="318" y="53" type="line"/>
      <point x="404" y="-24"/>
      <point x="455" y="-30"/>
      <point x="536" y="-30" type="curve" smooth="yes"/>
      <point x="790" y="-26"/>
      <point x="956" y="205"/>
    </contour>
    <contour>
      <point x="777" y="398" type="curve"/>
      <point x="777" y="171"/>
      <point x="682" y="30"/>
      <point x="532" y="32" type="curve" smooth="yes"/>
      <point x="414" y="34"/>
      <point x="345" y="107"/>
      <point x="327" y="177" type="curve" smooth="yes"/>
      <point x="321" y="203"/>
      <point x="318" y="250"/>
      <point x="318" y="323" type="curve" smooth="yes"/>
      <point x="318" y="666" type="line"/>
      <point x="446" y="798"/>
      <point x="475" y="800"/>
      <point x="532" y="800" type="curve" smooth="yes"/>
      <point x="682" y="800"/>
      <point x="777" y="630"/>
    </contour>
    <contour>
      <point x="474" y="1435" type="move" name="U"/>
    </contour>
    <contour>
      <point x="474" y="-500" type="move" name="L"/>
    </contour>
  </outline>
</glyph>
<glyph name="LtnSmYDiaer" format="1">
  <advance width="1025"/>
  <unicode hex="00FF"/>
  <outline>
    <component base="LtnSmY"/>
    <component base="CombDiaer" xOffset="1062"/>
    <contour>
      <point x="1025" y="900" type="move" name="R"/>
    </contour>
    <contour>
      <point x="550" y="1435" type="move" name="U"/>
    </contour>
    <contour>
      <point x="513" y="-500" type="move" name="L"/>
    </contour>
  </outline>
</glyph>
<glyph name="LtnCapAMacron" format="1">
  <advance width="1472"/>
  <unicode hex="0100"/>
  <outline>
    <component base="LtnCapA"/>
    <component base="CombMacron" xOffset="1247" yOffset="435"/>
    <contour>
      <point x="735" y="0" type="move" name="H"/>
    </contour>
    <contour>
      <point x="735" y="1800" type="move" name="U"/>
    </contour>
    <contour>
      <point x="735" y="-100" type="move" name="L"/>
    </contour>
    <contour>
      <point x="1300" y="0" type="move" name="O"/>
    </contour>
  </outline>
</glyph>
<glyph name="LtnSmCAcute" format="1">
  <advance width="910"/>
  <unicode hex="0107"/>
  <outline>
    <component base="LtnSmC"/>
    <component base="CombAcute" xOffset="992"/>
    <contour>
      <point x="455" y="0" type="move" name="H"/>
    </contour>
    <contour>
      <point x="910" y="900" type="move" name="R"/>
    </contour>
    <contour>
      <point x="480" y="1435" type="move" name="U"/>
    </contour>
    <contour>
      <point x="480" y="-100" type="move" name="L"/>
    </contour>
  </outline>
</glyph>
<glyph name="LtnSmDCaron" format="1">
  <advance width="1255"/>
  <unicode hex="010F"/>
  <outline>
    <contour>
      <point x="1033" y="85" type="line"/>
      <point x="1021" y="120" type="line"/>
      <point x="968" y="100"/>
      <point x="934" y="96"/>
      <point x="910" y="116" type="curve"/>
      <point x="881" y="137"/>
      <point x="879" y="167"/>
      <point x="879" y="363" type="curve" smooth="yes"/>
      <point x="879" y="1423" type="line"/>
      <point x="833" y="1423" type="line"/>
      <point x="558" y="1313" type="line"/>
      <point x="572" y="1277" type="line"/>
      <point x="625" y="1296"/>
      <point x="657" y="1302"/>
      <point x="680" y="1279" type="curve" smooth="yes"/>
      <point x="704" y="1255"/>
      <point x="711" y="1240"/>
      <point x="711" y="1037" type="curve" smooth="yes"/>
      <point x="711" y="867" type="line"/>
      <point x="658" y="920"/>
      <point x="592" y="944"/>
      <point x="512" y="944" type="curve" smooth="yes"/>
      <point x="227" y="944"/>
      <point x="67" y="656"/>
      <point x="67" y="420" type="curve" smooth="yes"/>
      <point x="67" y="161"/>
      <point x="241" y="-30"/>
      <point x="444" y="-30" type="curve" smooth="yes"/>
      <point x="551" y="-30"/>
      <point x="630" y="17"/>
      <point x="711" y="102" type="curve"/>
      <point x="711" y="-30" type="line"/>
      <point x="756" y="-30" type="line"/>
    </contour>
    <contour>
      <point x="711" y="173" type="line"/>
      <point x="654" y="113"/>
      <point x="598" y="83"/>
      <point x="534" y="83" type="curve"/>
      <point x="406" y="86"/>
      <point x="252" y="203"/>
      <point x="252" y="500" type="curve" smooth="yes"/>
      <point x="252" y="736"/>
      <point x="365" y="888"/>
      <point x="500" y="883" type="curve"/>
      <point x="632" y="880"/>
      <point x="711" y="747"/>
      <point x="711" y="647" type="curve" smooth="yes"/>
    </contour>
    <contour>
      <point x="1185" y="1279" type="curve" smooth="yes"/>
      <point x="1185" y="1370"/>
      <point x="1117" y="1425"/>
      <point x="1057" y="1425" type="curve" smooth="yes"/>
      <point x="1018" y="1425"/>
      <point x="961" y="1396"/>
      <point x="961" y="1341" type="curve" smooth="yes"/>
      <point x="961" y="1291"/>
      <point x="999" y="1262"/>
      <point x="1034" y="1262" type="curve" smooth="yes"/>
      <point x="1053" y="1262"/>
      <point x="1077" y="1273"/>
      <point x="1089" y="1273" type="curve" smooth="yes"/>
      <point x="1097" y="1273"/>
      <point x="1117" y="1265"/>
      <point x="1117" y="1228" type="curve" smooth="yes"/>
      <point x="1117" y="1149"/>
      <point x="1046" y="1105"/>
      <point x="995" y="1076" type="curve"/>
      <point x="995" y="1042" type="line"/>
      <point x="1051" y="1061"/>
      <point x="1185" y="1125"/>
    </contour>
    <contour>
      <point x="550" y="0" type="move" name="H"/>
    </contour>
    <contour>
      <point x="547" y="1435" type="move" name="U"/>
    </contour>
    <contour>
      <point x="550" y="-100" type="move" name="L"/>
    </contour>
  </outline>
</glyph>
<glyph name="LtnCapEDotAbv" format="1">
  <advance width="1251"/>
  <unicode hex="0116"/>
  <outline>
    <component base="LtnCapE"/>
    <component base="DotAbv" xOffset="522" yOffset="435"/>
    <contour>
      <point x="624" y="0" type="move" name="H"/>
    </contour>
    <contour>
      <point x="1251" y="1100" type="move" name="R"/>
    </contour>
    <contour>
      <point x="624" y="1870" type="move" name="U"/>
    </contour>
    <contour>
      <point x="624" y="-100" type="move" name="L"/>
    </contour>
    <contour>
      <point x="1044" y="0" type="move" name="O"/>
    </contour>
  </outline>
</glyph>
<glyph name="LtnCapEOgonek" format="1">
  <advance width="1251"/>
  <unicode hex="0118"/>
  <outline>
    <component base="LtnCapE"/>
    <component base="CombOgonek" xOffset="1352"/>
    <contour>
      <point x="624" y="0" type="move" name="H"/>
    </contour>
    <contour>
      <point x="1251" y="1100" type="move" name="R"/>
    </contour>
    <contour>
      <point x="624" y="1435" type="move" name="U"/>
    </contour>
    <contour>
      <point x="790" y="-500" type="move" name="L"/>
    </contour>
  </outline>
</glyph>
<glyph name="LtnSmEOgonek" format="1">
  <advance width="910"/>
  <unicode hex="0119"/>
  <outline>
    <component base="LtnSmE"/>
    <component base="CombOgonek" xOffset="968"/>
    <contour>
      <point x="464" y="-500" type="move" name="L"/>
    </contour>
    <contour>
      <point x="464" y="1000" type="move" name="U"/>
    </contour>
  </outline>
</glyph>
<glyph name="LtnCapGCircum" format="1">
  <advance width="1480"/>
  <unicode hex="011C"/>
  <outline>
    <component base="LtnCapG"/>
    <component base="CombCircum" xOffset="1272" yOffset="435"/>
    <contour>
      <point x="761" y="0" type="move" name="H"/>
    </contour>
    <contour>
      <point x="760" y="1870" type="move" name="U"/>
    </contour>
    <contour>
      <point x="760" y="-100" type="move" name="L"/>
    </contour>
  </outline>
</glyph>
<glyph name="LtnSmGDotAbv" format="1">
  <advance width="1025"/>
  <unicode hex="0121"/>
  <outline>
    <component base="LtnSmG"/>
    <component base="DotAbv" xOffset="408"/>
    <contour>
      <point x="520" y="-432" type="move" name="H"/>
    </contour>
    <contour>
      <point x="1025" y="900" type="move" name="R"/>
    </contour>
    <contour>
      <point x="510" y="1435" type="move" name="U"/>
    </contour>
    <contour>
      <point x="524" y="-500" type="move" name="L"/>
    </contour>
  </outline>
</glyph>
<glyph name="LtnSmIMacron" format="1">
  <advance width="1013"/>
  <unicode hex="012B"/>
  <outline>
    <component base="LtnSmDotlessI"/>
    <component base="CombMacron.Short" xOffset="72"/>
    <contour>
      <point x="295" y="0" type="move" name="H"/>
    </contour>
    <contour>
      <point x="570" y="900" type="move" name="R"/>
    </contour>
    <contour>
      <point x="293" y="1365" type="move" name="U"/>
    </contour>
    <contour>
      <point x="294" y="-100" type="move" name="L"/>
    </contour>
    <contour>
      <point x="445" y="0" type="move" name="O"/>
    </contour>
  </outline>
</glyph>
<glyph name="LtnCapIOgonek" format="1">
  <advance width="682"/>
  <unicode hex="012E"/>
  <outline>
    <component base="LtnCapI"/>
    <component base="CombOgonek" xOffset="818"/>
    <contour>
      <point x="341" y="0" type="move" name="H"/>
    </contour>
    <contour>
      <point x="682" y="1100" type="move" name="R"/>
    </contour>
    <contour>
      <point x="341" y="1435" type="move" name="U"/>
    </contour>
    <contour>
      <point x="256" y="-500" type="move" name="L"/>
    </contour>
  </outline>
</glyph>
<glyph name="LtnCapLigIj" format="1">
  <advance width="1480"/>
  <unicode hex="0132"/>
  <outline>
    <component base="LtnCapI"/>
    <component base="LtnCapJ" xOffset="682"/>
    <contour>
      <point x="1095" y="-100" type="move" name="L"/>
    </contour>
    <contour>
      <point x="391" y="0" type="move" name="O"/>
    </contour>
    <contour>
      <point x="758" y="1435" type="move" name="U"/>
    </contour>
    <contour>
      <point x="341" y="0" type="move" name="H"/>
    </contour>
  </outline>
</glyph>
<glyph name="LtnCapJCircum" format="1">
  <advance width="798"/>
  <unicode hex="0134"/>
  <outline>
    <component base="LtnCapJ"/>
    <component base="CombCircum" xOffset="1007" yOffset="435"/>
    <contour>
      <point x="495" y="1870" type="move" name="U"/>
    </contour>
    <contour>
      <point x="413" y="-100" type="move" name="L"/>
    </contour>
  </outline>
</glyph>
<glyph name="LtnCapKCedilla" format="1">
  <advance width="1480"/>
  <unicode hex="0136"/>
  <outline>
    <component base="LtnCapK"/>
    <component base="CombCommaBlw" xOffset="1278"/>
    <contour>
      <point x="320" y="0" type="move" name="H"/>
    </contour>
    <contour>
      <point x="766" y="1435" type="move" name="U"/>
    </contour>
    <contour>
      <point x="766" y="-500" type="move" name="L"/>
    </contour>
  </outline>
</glyph>
<glyph name="LtnSmKra" format="1">
  <advance width="995"/>
  <unicode hex="0138"/>
  <outline>
    <component base="CySmKa"/>
    <contour>
      <point x="514" y="1000" type="move" name="U"/>
    </contour>
    <contour>
      <point x="514" y="-100" type="move" name="L"/>
    </contour>
  </outline>
</glyph>
<glyph name="LtnCapNAcute" format="1">
  <advance width="1480"/>
  <unicode hex="0143"/>
  <outline>
    <component base="LtnCapN"/>
    <component base="CombAcute" xOffset="1243" yOffset="435"/>
    <contour>
      <point x="1224" y="0" type="move" name="H"/>
    </contour>
    <contour>
      <point x="731" y="1870" type="move" name="U"/>
    </contour>
    <contour>
      <point x="731" y="-100" type="move" name="L"/>
    </contour>
  </outline>
</glyph>
<glyph name="LtnSmNAcute" format="1">
  <advance width="1025"/>
  <unicode hex="0144"/>
  <outline>
    <component base="LtnSmN"/>
    <component base="CombAcute" xOffset="1027"/>
    <contour>
      <point x="790" y="0" type="move" name="H"/>
    </contour>
    <contour>
      <point x="515" y="1435" type="move" name="U"/>
    </contour>
    <contour>
      <point x="515" y="-100" type="move" name="L"/>
    </contour>
  </outline>
</glyph>
<glyph name="LtnSmNCedilla" format="1">
  <advance width="1025"/>
  <unicode hex="0146"/>
  <outline>
    <component base="LtnSmN"/>
    <component base="CombCommaBlw" xOffset="1027"/>
    <contour>
      <point x="790" y="0" type="move" name="H"/>
    </contour>
    <contour>
      <point x="515" y="1000" type="move" name="U"/>
    </contour>
    <contour>
      <point x="515" y="-500" type="move" name="L"/>
    </contour>
  </outline>
</glyph>
<glyph name="LtnCapOMacron" format="1">
  <advance width="1480"/>
  <unicode hex="014C"/>
  <outline>
    <component base="LtnCapO"/>
    <component base="CombMacron" xOffset="1247" yOffset="435"/>
    <contour>
      <point x="735" y="0" type="move" name="H"/>
    </contour>
    <contour>
      <point x="1400" y="1320" type="move" name="R"/>
    </contour>
    <contour>
      <point x="735" y="1800" type="move" name="U"/>
    </contour>
    <contour>
      <point x="735" y="-100" type="move" name="L"/>
    </contour>
    <contour>
      <point x="990" y="0" type="move" name="O"/>
    </contour>
  </outline>
</glyph>
<glyph name="LtnCapRAcute" format="1">
  <advance width="1368"/>
  <unicode hex="0154"/>
  <outline>
    <component base="LtnCapR"/>
    <component base="CombAcute" xOffset="1123" yOffset="435"/>
    <contour>
      <point x="320" y="0" type="move" name="H"/>
    </contour>
    <contour>
      <point x="611" y="1870" type="move" name="U"/>
    </contour>
    <contour>
      <point x="711" y="-100" type="move" name="L"/>
    </contour>
  </outline>
</glyph>
<glyph name="LtnSmRCaron" format="1">
  <advance width="702"/>
  <unicode hex="0159"/>
  <outline>
    <component base="LtnSmR"/>
    <component base="CombCaron" xOffset="865"/>
    <contour>
      <point x="256" y="0" type="move" name="H"/>
    </contour>
    <contour>
      <point x="353" y="1435" type="move" name="U"/>
    </contour>
    <contour>
      <point x="353" y="-100" type="move" name="L"/>
    </contour>
  </outline>
</glyph>
<glyph name="LtnCapSCircum" format="1">
  <advance width="1139"/>
  <unicode hex="015C"/>
  <outline>
    <component base="LtnCapS"/>
    <component base="CombCircum" xOffset="1092" yOffset="435"/>
    <contour>
      <point x="580" y="0" type="move" name="H"/>
    </contour>
    <contour>
      <point x="580" y="1870" type="move" name="U"/>
    </contour>
    <contour>
      <point x="580" y="-100" type="move" name="L"/>
    </contour>
  </outline>
</glyph>
<glyph name="LtnCapSCedilla" format="1">
  <advance width="1139"/>
  <unicode hex="015E"/>
  <outline>
    <component base="LtnCapS"/>
    <component base="CombCedilla" xOffset="1092"/>
    <contour>
      <point x="580" y="1435" type="move" name="U"/>
    </contour>
    <contour>
      <point x="580" y="-600" type="move" name="L"/>
    </contour>
  </outline>
</glyph>
<glyph name="LtnSmSCedilla" format="1">
  <advance width="798"/>
  <unicode hex="015F"/>
  <outline>
    <component base="LtnSmS"/>
    <component base="CombCedilla" xOffset="925"/>
    <contour>
      <point x="413" y="1000" type="move" name="U"/>
    </contour>
    <contour>
      <point x="413" y="-600" type="move" name="L"/>
    </contour>
  </outline>
</glyph>
<glyph name="LtnCapSCaron" format="1">
  <advance width="1139"/>
  <unicode hex="0160"/>
  <outline>
    <component base="LtnCapS"/>
    <component base="CombCaron" xOffset="1092" yOffset="435"/>
    <contour>
      <point x="580" y="0" type="move" name="H"/>
    </contour>
    <contour>
      <point x="580" y="1870" type="move" name="U"/>
    </contour>
    <contour>
      <point x="580" y="-100" type="move" name="L"/>
    </contour>
  </outline>
</glyph>
<glyph name="LtnSmTCaron" format="1">
  <advance width="570"/>
  <unicode hex="0165"/>
  <outline>
    <contour>
      <point x="532" y="167" type="line"/>
      <point x="508" y="115"/>
      <point x="469" y="82"/>
      <point x="420" y="85" type="curve" smooth="yes"/>
      <point x="369" y="88"/>
      <point x="329" y="117"/>
      <point x="329" y="237" type="curve" smooth="yes"/>
      <point x="329" y="848" type="line"/>
      <point x="544" y="848" type="line"/>
      <point x="544" y="916" type="line"/>
      <point x="329" y="916" type="line"/>
      <point x="329" y="1218" type="line"/>
      <point x="299" y="1218" type="line"/>
      <point x="243" y="1086"/>
      <point x="222" y="1059"/>
      <point x="186" y="1015" type="curve" smooth="yes"/>
      <point x="134" y="954"/>
      <point x="70" y="899"/>
      <point x="15" y="879" type="curve"/>
      <point x="15" y="848" type="line"/>
      <point x="162" y="848" type="line"/>
      <point x="162" y="213" type="line" smooth="yes"/>
      <point x="162" y="8"/>
      <point x="256" y="-30"/>
      <point x="343" y="-30" type="curve" smooth="yes"/>
      <point x="422" y="-30"/>
      <point x="530" y="32"/>
      <point x="572" y="167" type="curve"/>
    </contour>
    <contour>
      <point x="614" y="1279" type="curve" smooth="yes"/>
      <point x="614" y="1370"/>
      <point x="546" y="1425"/>
      <point x="486" y="1425" type="curve" smooth="yes"/>
      <point x="447" y="1425"/>
      <point x="390" y="1396"/>
      <point x="390" y="1341" type="curve" smooth="yes"/>
      <point x="390" y="1291"/>
      <point x="428" y="1262"/>
      <point x="463" y="1262" type="curve" smooth="yes"/>
      <point x="482" y="1262"/>
      <point x="506" y="1273"/>
      <point x="518" y="1273" type="curve" smooth="yes"/>
      <point x="526" y="1273"/>
      <point x="546" y="1265"/>
      <point x="546" y="1228" type="curve" smooth="yes"/>
      <point x="546" y="1149"/>
      <point x="475" y="1105"/>
      <point x="424" y="1076" type="curve"/>
      <point x="424" y="1042" type="line"/>
      <point x="480" y="1061"/>
      <point x="614" y="1125"/>
    </contour>
    <contour>
      <point x="293" y="0" type="move" name="H"/>
    </contour>
    <contour>
      <point x="285" y="1298" type="move" name="U"/>
    </contour>
    <contour>
      <point x="293" y="-100" type="move" name="L"/>
    </contour>
  </outline>
</glyph>
<glyph name="LtnCapUTilde" format="1">
  <advance width="1480"/>
  <unicode hex="0168"/>
  <outline>
    <component base="LtnCapU"/>
    <component base="SmTilde" xOffset="403" yOffset="435"/>
    <contour>
      <point x="744" y="0" type="move" name="H"/>
    </contour>
    <contour>
      <point x="1490" y="1330" type="move" name="R"/>
    </contour>
    <contour>
      <point x="744" y="1870" type="move" name="U"/>
    </contour>
    <contour>
      <point x="744" y="-100" type="move" name="L"/>
    </contour>
    <contour>
      <point x="1006" y="0" type="move" name="O"/>
    </contour>
  </outline>
</glyph>
<glyph name="LtnSmURingAbv" format="1">
  <advance width="1025"/>
  <unicode hex="016F"/>
  <outline>
    <component base="LtnSmU"/>
    <component base="RingAbv" xOffset="322"/>
    <contour>
      <point x="475" y="0" type="move" name="H"/>
    </contour>
    <contour>
      <point x="995" y="900" type="move" name="R"/>
    </contour>
    <contour>
      <point x="513" y="1435" type="move" name="U"/>
    </contour>
    <contour>
      <point x="513" y="-100" type="move" name="L"/>
    </contour>
    <contour>
      <point x="877" y="0" type="move" name="O"/>
    </contour>
  </outline>
</glyph>
<glyph name="LtnCapUDblAcute" format="1">
  <advance width="1480"/>
  <unicode hex="0170"/>
  <outline>
    <component base="LtnCapU"/>
    <component base="DblAcuteAccent" xOffset="404" yOffset="435"/>
    <contour>
      <point x="744" y="0" type="move" name="H"/>
    </contour>
    <contour>
      <point x="1490" y="1330" type="move" name="R"/>
    </contour>
    <contour>
      <point x="744" y="1870" type="move" name="U"/>
    </contour>
    <contour>
      <point x="744" y="-100" type="move" name="L"/>
    </contour>
    <contour>
      <point x="1006" y="0" type="move" name="O"/>
    </contour>
  </outline>
</glyph>
<glyph name="LtnCapUOgonek" format="1">
  <advance width="1480"/>
  <unicode hex="0172"/>
  <outline>
    <component base="LtnCapU"/>
    <component base="CombOgonek" xOffset="1236"/>
    <contour>
      <point x="784" y="-400" type="move" name="L"/>
    </contour>
    <contour>
      <point x="744" y="0" type="move" name="H"/>
    </contour>
    <contour>
      <point x="744" y="1435" type="move" name="U"/>
    </contour>
    <contour>
      <point x="1480" y="900" type="move" name="R"/>
    </contour>
  </outline>
</glyph>
<glyph name="LtnCapZDotAbv" format="1">
  <advance width="1251"/>
  <unicode hex="017B"/>
  <outline>
    <component base="LtnCapZ"/>
    <component base="DotAbv" xOffset="509" yOffset="435"/>
    <contour>
      <point x="611" y="1870" type="move" name="U"/>
    </contour>
    <contour>
      <point x="611" y="-100" type="move" name="L"/>
    </contour>
  </outline>
</glyph>
<glyph name="LtnSmBBarredStem" format="1">
  <advance width="1005"/>
  <unicode hex="0180"/>
  <outline>
    <contour>
      <point x="954" y="495" type="curve"/>
      <point x="954" y="775"/>
      <point x="790" y="942"/>
      <point x="603" y="942" type="curve" smooth="yes"/>
      <point x="499" y="942"/>
      <point x="404" y="881"/>
      <point x="316" y="758" type="curve"/>
      <point x="316" y="1033" type="line"/>
      <point x="560" y="1033" type="line"/>
      <point x="560" y="1136" type="line"/>
      <point x="316" y="1136" type="line"/>
      <point x="316" y="1423" type="line"/>
      <point x="269" y="1423" type="line"/>
      <point x="-8" y="1313" type="line"/>
      <point x="6" y="1277" type="line"/>
      <point x="69" y="1297"/>
      <point x="94" y="1297"/>
      <point x="116" y="1279" type="curve" smooth="yes"/>
      <point x="136" y="1262"/>
      <point x="146" y="1269"/>
      <point x="148" y="1136" type="curve"/>
      <point x="-19" y="1136" type="line"/>
      <point x="-19" y="1033" type="line"/>
      <point x="148" y="1033" type="line"/>
      <point x="148" y="1029" type="line"/>
      <point x="148" y="89" type="line"/>
      <point x="266" y="8"/>
      <point x="376" y="-30"/>
      <point x="481" y="-30" type="curve" smooth="yes"/>
      <point x="733" y="-30"/>
      <point x="954" y="193"/>
    </contour>
    <contour>
      <point x="781" y="438" type="curve"/>
      <point x="781" y="177"/>
      <point x="651" y="45"/>
      <point x="532" y="45" type="curve" smooth="yes"/>
      <point x="455" y="45"/>
      <point x="380" y="81"/>
      <point x="316" y="146" type="curve"/>
      <point x="316" y="696" type="line"/>
      <point x="416" y="790"/>
      <point x="474" y="803"/>
      <point x="523" y="803" type="curve" smooth="yes"/>
      <point x="662" y="803"/>
      <point x="781" y="668"/>
    </contour>
    <contour>
      <point x="467" y="1435" type="move" name="U"/>
    </contour>
    <contour>
      <point x="467" y="-100" type="move" name="L"/>
    </contour>
  </outline>
</glyph>
<glyph name="LtnCapBTopbar" format="1">
  <advance width="1332"/>
  <unicode hex="0182"/>
  <outline>
    <contour>
      <point x="1023" y="355" type="curve"/>
      <point x="1023" y="190"/>
      <point x="893" y="71"/>
      <point x="653" y="71" type="curve" smooth="yes"/>
      <point x="576" y="71"/>
      <point x="500" y="81"/>
      <point x="422" y="98" type="curve"/>
      <point x="422" y="654" type="line"/>
      <point x="459" y="662"/>
      <point x="515" y="664"/>
      <point x="600" y="664" type="curve" smooth="yes"/>
      <point x="875" y="664"/>
      <point x="1023" y="536"/>
    </contour>
    <contour>
      <point x="1006" y="1038" type="line"/>
      <point x="985" y="1356" type="line"/>
      <point x="36" y="1356" type="line"/>
      <point x="36" y="1320" type="line"/>
      <point x="85" y="1320" type="line" smooth="yes"/>
      <point x="138" y="1320"/>
      <point x="175" y="1305"/>
      <point x="201" y="1277" type="curve"/>
      <point x="220" y="1254"/>
      <point x="229" y="1200"/>
      <point x="229" y="1117" type="curve" smooth="yes"/>
      <point x="229" y="241" type="line" smooth="yes"/>
      <point x="229" y="164"/>
      <point x="220" y="115"/>
      <point x="207" y="92" type="curve"/>
      <point x="181" y="55"/>
      <point x="141" y="38"/>
      <point x="85" y="38" type="curve" smooth="yes"/>
      <point x="36" y="38" type="line"/>
      <point x="36" y="0" type="line"/>
      <point x="674" y="0" type="line" smooth="yes"/>
      <point x="907" y="0"/>
      <point x="1031" y="30"/>
      <point x="1117" y="98" type="curve" smooth="yes"/>
      <point x="1206" y="167"/>
      <point x="1254" y="276"/>
      <point x="1254" y="371" type="curve" smooth="yes"/>
      <point x="1254" y="704"/>
      <point x="796" y="741"/>
      <point x="613" y="741" type="curve" smooth="yes"/>
      <point x="549" y="741"/>
      <point x="486" y="739"/>
      <point x="422" y="733" type="curve"/>
      <point x="422" y="1269" type="line"/>
      <point x="475" y="1283"/>
      <point x="536" y="1289"/>
      <point x="603" y="1289" type="curve" smooth="yes"/>
      <point x="794" y="1289"/>
      <point x="951" y="1262"/>
      <point x="956" y="1038" type="curve"/>
    </contour>
    <contour>
      <point x="645" y="1435" type="move" name="U"/>
    </contour>
    <contour>
      <point x="645" y="-100" type="move" name="L"/>
    </contour>
  </outline>
</glyph>
<glyph name="LtnSmTnSix" format="1">
  <advance width="1025"/>
  <unicode hex="0185"/>
  <outline>
    <contour>
      <point x="954" y="495" type="curve"/>
      <point x="954" y="775"/>
      <point x="790" y="942"/>
      <point x="603" y="942" type="curve" smooth="yes"/>
      <point x="499" y="942"/>
      <point x="404" y="881"/>
      <point x="316" y="758" type="curve"/>
      <point x="316" y="1423" type="line"/>
      <point x="-8" y="1099" type="line"/>
      <point x="148" y="943" type="line"/>
      <point x="148" y="89" type="line"/>
      <point x="266" y="8"/>
      <point x="376" y="-30"/>
      <point x="481" y="-30" type="curve" smooth="yes"/>
      <point x="733" y="-30"/>
      <point x="954" y="193"/>
    </contour>
    <contour>
      <point x="781" y="438" type="curve"/>
      <point x="781" y="177"/>
      <point x="651" y="45"/>
      <point x="532" y="45" type="curve" smooth="yes"/>
      <point x="455" y="45"/>
      <point x="380" y="81"/>
      <point x="316" y="146" type="curve"/>
      <point x="316" y="696" type="line"/>
      <point x="416" y="790"/>
      <point x="474" y="803"/>
      <point x="523" y="803" type="curve" smooth="yes"/>
      <point x="662" y="803"/>
      <point x="781" y="668"/>
    </contour>
    <contour>
      <point x="473" y="-100" type="move" name="L"/>
    </contour>
    <contour>
      <point x="473" y="1435" type="move" name="U"/>
    </contour>
  </outline>
</glyph>
<glyph name="LtnCapOpnO" format="1">
  <advance width="1368"/>
  <unicode hex="0186"/>
  <outline>
    <contour>
      <point x="1295" y="698" type="curve" smooth="yes"/>
      <point x="1295" y="1068" name="at01"/>
      <point x="1051" y="1388"/>
      <point x="634" y="1388" type="curve" smooth="yes"/>
      <point x="378" y="1388" name="sv02"/>
      <point x="206" y="1274" name="dh01"/>
      <point x="73" y="1038" type="curve" name="sv01"/>
      <point x="102" y="1017" type="line"/>
      <point x="261" y="1243"/>
      <point x="379" y="1299"/>
      <point x="558" y="1299" type="curve" smooth="yes" name="ab01"/>
      <point x="863" y="1299"/>
      <point x="1066" y="1088" name="ab02"/>
      <point x="1066" y="700" type="curve" smooth="yes" name="dh02"/>
      <point x="1066" y="248"/>
      <point x="865" y="39"/>
      <point x="587" y="39" type="curve" smooth="yes"/>
      <point x="376" y="39"/>
      <point x="217" y="152"/>
      <point x="134" y="429" type="curve"/>
      <point x="102" y="429" type="line"/>
      <point x="134" y="-32" type="line"/>
      <point x="169" y="-32" type="line"/>
      <point x="186" y="32"/>
      <point x="217" y="64"/>
      <point x="252" y="64" type="curve" smooth="yes"/>
      <point x="295" y="64"/>
      <point x="398" y="-32"/>
      <point x="603" y="-32" type="curve" smooth="yes"/>
      <point x="1019" y="-32"/>
      <point x="1295" y="303"/>
    </contour>
    <contour>
      <point x="655" y="1435" type="move" name="U"/>
    </contour>
    <contour>
      <point x="655" y="-100" type="move" name="L"/>
    </contour>
  </outline>
</glyph>
<glyph name="LtnCapAfricanD" format="1">
  <advance width="1480"/>
  <unicode hex="0189"/>
  <outline>
    <contour>
      <point x="818" y="678" type="line"/>
      <point x="818" y="792" type="line"/>
      <point x="36" y="792" type="line"/>
      <point x="36" y="678" type="line"/>
    </contour>
    <component base="LtnCapD"/>
    <contour>
      <point x="717" y="1435" type="move" name="U"/>
    </contour>
    <contour>
      <point x="717" y="-100" type="move" name="L"/>
    </contour>
  </outline>
</glyph>
<glyph name="LtnSmDTopbar" format="1">
  <advance width="1025"/>
  <unicode hex="018C"/>
  <outline>
    <contour>
      <point x="1033" y="85" type="line"/>
      <point x="1021" y="120" type="line"/>
      <point x="992" y="109"/>
      <point x="968" y="103"/>
      <point x="949" y="103" type="curve" smooth="yes"/>
      <point x="933" y="103"/>
      <point x="921" y="107"/>
      <point x="910" y="116" type="curve" smooth="yes"/>
      <point x="881" y="138"/>
      <point x="879" y="166"/>
      <point x="879" y="363" type="curve" smooth="yes"/>
      <point x="879" y="1356" type="line"/>
      <point x="150" y="1356" type="line"/>
      <point x="131" y="1172" type="line"/>
      <point x="181" y="1172" type="line"/>
      <point x="185" y="1249"/>
      <point x="326" y="1289"/>
      <point x="471" y="1289" type="curve"/>
      <point x="538" y="1289"/>
      <point x="658" y="1278"/>
      <point x="711" y="1260" type="curve" smooth="yes"/>
      <point x="711" y="867" type="line"/>
      <point x="658" y="920"/>
      <point x="591" y="944"/>
      <point x="512" y="944" type="curve" smooth="yes"/>
      <point x="227" y="942"/>
      <point x="67" y="658"/>
      <point x="67" y="420" type="curve" smooth="yes"/>
      <point x="67" y="162"/>
      <point x="241" y="-30"/>
      <point x="444" y="-30" type="curve" smooth="yes"/>
      <point x="550" y="-30"/>
      <point x="630" y="17"/>
      <point x="711" y="102" type="curve"/>
      <point x="711" y="-30" type="line"/>
      <point x="756" y="-30" type="line"/>
    </contour>
    <contour>
      <point x="711" y="173" type="line"/>
      <point x="654" y="113"/>
      <point x="598" y="83"/>
      <point x="534" y="83" type="curve" smooth="yes"/>
      <point x="406" y="85"/>
      <point x="252" y="203"/>
      <point x="252" y="500" type="curve" smooth="yes"/>
      <point x="252" y="731"/>
      <point x="360" y="883"/>
      <point x="500" y="883" type="curve"/>
      <point x="632" y="879"/>
      <point x="711" y="749"/>
      <point x="711" y="647" type="curve" smooth="yes"/>
    </contour>
    <contour>
      <point x="550" y="1435" type="move" name="U"/>
    </contour>
    <contour>
      <point x="550" y="-100" type="move" name="L"/>
    </contour>
  </outline>
</glyph>
<glyph name="LtnCapOpnE" format="1">
  <advance width="1208"/>
  <unicode hex="0190"/>
  <outline>
    <contour>
      <point x="1090" y="346" type="line"/>
      <point x="961" y="150" name="sv02"/>
      <point x="831" y="57" name="sh02"/>
      <point x="653" y="57" type="curve" smooth="yes"/>
      <point x="432" y="57" name="sv03"/>
      <point x="301" y="197" name="iv01"/>
      <point x="301" y="400" type="curve" smooth="yes"/>
      <point x="301" y="609" name="sh03"/>
      <point x="461" y="672" name="sv01"/>
      <point x="647" y="672" type="curve" smooth="yes" name="sh04"/>
      <point x="735" y="672" type="line"/>
      <point x="735" y="747" type="line" name="sh05"/>
      <point x="595" y="747" type="line" smooth="yes" name="at01"/>
      <point x="398" y="747" name="sh07"/>
      <point x="301" y="859"/>
      <point x="301" y="1038" type="curve" smooth="yes" name="sh01"/>
      <point x="301" y="1192" name="ab01"/>
      <point x="406" y="1317" name="sh06"/>
      <point x="601" y="1317" type="curve" smooth="yes" name="ah01"/>
      <point x="773" y="1317" name="sh08"/>
      <point x="851" y="1267"/>
      <point x="883" y="1139" type="curve"/>
      <point x="906" y="1059"/>
      <point x="950" y="1035"/>
      <point x="995" y="1035" type="curve" smooth="yes"/>
      <point x="1080" y="1035"/>
      <point x="1088" y="1110"/>
      <point x="1088" y="1139" type="curve" smooth="yes"/>
      <point x="1088" y="1255"/>
      <point x="880" y="1388"/>
      <point x="621" y="1388" type="curve" smooth="yes"/>
      <point x="272" y="1388"/>
      <point x="102" y="1198"/>
      <point x="102" y="1021" type="curve" smooth="yes"/>
      <point x="102" y="780"/>
      <point x="252" y="721"/>
      <point x="345" y="700" type="curve"/>
      <point x="136" y="625"/>
      <point x="73" y="465"/>
      <point x="73" y="346" type="curve" smooth="yes"/>
      <point x="73" y="6"/>
      <point x="461" y="-32"/>
      <point x="560" y="-32" type="curve" smooth="yes"/>
      <point x="770" y="-32"/>
      <point x="962" y="39"/>
      <point x="1127" y="314" type="curve"/>
    </contour>
    <contour>
      <point x="600" y="1435" type="move" name="U"/>
    </contour>
    <contour>
      <point x="600" y="-100" type="move" name="L"/>
    </contour>
  </outline>
</glyph>
<glyph name="LtnCapIStrk" format="1">
  <advance width="682"/>
  <unicode hex="0197"/>
  <outline>
    <contour>
      <point x="632" y="0" type="line" name="ab01"/>
      <point x="632" y="38" type="line" name="sv01"/>
      <point x="583" y="38" type="line" smooth="yes"/>
      <point x="536" y="38"/>
      <point x="474" y="64"/>
      <point x="461" y="85" type="curve" smooth="yes" name="sh02"/>
      <point x="446" y="109"/>
      <point x="438" y="153"/>
      <point x="438" y="241" type="curve" smooth="yes" name="sv05"/>
      <point x="438" y="666" type="line" name="dh02"/>
      <point x="598" y="666" type="line"/>
      <point x="598" y="781" type="line"/>
      <point x="438" y="781" type="line" name="sv03"/>
      <point x="438" y="1117" type="line" smooth="yes" name="at01"/>
      <point x="438" y="1198"/>
      <point x="448" y="1248" name="sv04"/>
      <point x="463" y="1271" type="curve"/>
      <point x="490" y="1304"/>
      <point x="530" y="1320" name="dh01"/>
      <point x="583" y="1320" type="curve" smooth="yes" name="dv01"/>
      <point x="632" y="1320" type="line"/>
      <point x="632" y="1356" type="line"/>
      <point x="51" y="1356" type="line" name="sh01"/>
      <point x="51" y="1320" type="line"/>
      <point x="100" y="1320" type="line" smooth="yes"/>
      <point x="147" y="1320"/>
      <point x="197" y="1301" name="sv02"/>
      <point x="222" y="1269" type="curve"/>
      <point x="244" y="1245"/>
      <point x="244" y="1210"/>
      <point x="244" y="1117" type="curve" smooth="yes"/>
      <point x="244" y="781" type="line"/>
      <point x="85" y="781" type="line"/>
      <point x="85" y="666" type="line"/>
      <point x="244" y="666" type="line"/>
      <point x="244" y="241" type="line" smooth="yes"/>
      <point x="244" y="157"/>
      <point x="236" y="106"/>
      <point x="220" y="87" type="curve" smooth="yes"/>
      <point x="193" y="52"/>
      <point x="156" y="38"/>
      <point x="100" y="38" type="curve" smooth="yes"/>
      <point x="51" y="38" type="line"/>
      <point x="51" y="0" type="line"/>
    </contour>
    <contour>
      <point x="341" y="1435" type="move" name="U"/>
    </contour>
    <contour>
      <point x="341" y="-100" type="move" name="L"/>
    </contour>
  </outline>
</glyph>
<glyph name="LtnSmKHook" format="1">
  <advance width="1025"/>
  <unicode hex="0199"/>
  <outline>
    <contour>
      <point x="1037" y="0" type="line"/>
      <point x="1037" y="38" type="line"/>
      <point x="993" y="38"/>
      <point x="963" y="38"/>
      <point x="950" y="45" type="curve" smooth="yes"/>
      <point x="884" y="84"/>
      <point x="889" y="66"/>
      <point x="733" y="262" type="curve" smooth="yes"/>
      <point x="493" y="562" type="line"/>
      <point x="733" y="777" type="line" smooth="yes"/>
      <point x="780" y="818"/>
      <point x="818" y="844"/>
      <point x="854" y="859" type="curve" smooth="yes"/>
      <point x="889" y="874"/>
      <point x="934" y="883"/>
      <point x="989" y="885" type="curve"/>
      <point x="989" y="916" type="line"/>
      <point x="591" y="916" type="line"/>
      <point x="591" y="885" type="line"/>
      <point x="643" y="881"/>
      <point x="662" y="861"/>
      <point x="662" y="833" type="curve" smooth="yes"/>
      <point x="662" y="813"/>
      <point x="654" y="797"/>
      <point x="568" y="724" type="curve" smooth="yes"/>
      <point x="337" y="528" type="line"/>
      <point x="337" y="982" type="line" smooth="yes"/>
      <point x="337" y="1240"/>
      <point x="352" y="1348"/>
      <point x="491" y="1348" type="curve" smooth="yes"/>
      <point x="692" y="1348"/>
      <point x="621" y="1168"/>
      <point x="761" y="1168" type="curve" smooth="yes"/>
      <point x="806" y="1168"/>
      <point x="841" y="1216"/>
      <point x="841" y="1251" type="curve" smooth="yes"/>
      <point x="841" y="1356"/>
      <point x="722" y="1423"/>
      <point x="570" y="1423" type="curve" smooth="yes"/>
      <point x="506" y="1423"/>
      <point x="169" y="1393"/>
      <point x="169" y="978" type="curve" smooth="yes"/>
      <point x="169" y="201" type="line" smooth="yes"/>
      <point x="169" y="128"/>
      <point x="163" y="87"/>
      <point x="144" y="67" type="curve" smooth="yes"/>
      <point x="121" y="43"/>
      <point x="81" y="38"/>
      <point x="17" y="38" type="curve"/>
      <point x="17" y="0" type="line"/>
      <point x="483" y="0" type="line"/>
      <point x="483" y="38" type="line"/>
      <point x="397" y="38"/>
      <point x="384" y="44"/>
      <point x="359" y="71" type="curve" smooth="yes"/>
      <point x="341" y="92"/>
      <point x="337" y="121"/>
      <point x="337" y="207" type="curve" smooth="yes"/>
      <point x="337" y="506" type="line"/>
      <point x="617" y="152" type="line" smooth="yes"/>
      <point x="656" y="102"/>
      <point x="661" y="83"/>
      <point x="653" y="61" type="curve" smooth="yes"/>
      <point x="646" y="42"/>
      <point x="630" y="38"/>
      <point x="591" y="38" type="curve"/>
      <point x="591" y="0" type="line"/>
    </contour>
    <contour>
      <point x="527" y="1435" type="move" name="U"/>
    </contour>
    <contour>
      <point x="527" y="-100" type="move" name="L"/>
    </contour>
  </outline>
</glyph>
<glyph name="LtnCapNLftHook" format="1">
  <advance width="1480"/>
  <unicode hex="019D"/>
  <outline>
    <contour>
      <point x="1450" y="1320" type="line"/>
      <point x="1450" y="1356" type="line"/>
      <point x="980" y="1356" type="line"/>
      <point x="980" y="1320" type="line"/>
      <point x="1025" y="1320" type="line" smooth="yes"/>
      <point x="1080" y="1320"/>
      <point x="1119" y="1305"/>
      <point x="1143" y="1277" type="curve" smooth="yes"/>
      <point x="1163" y="1258"/>
      <point x="1171" y="1206"/>
      <point x="1171" y="1121" type="curve" smooth="yes"/>
      <point x="1171" y="339" type="line"/>
      <point x="343" y="1356" type="line"/>
      <point x="12" y="1356" type="line"/>
      <point x="12" y="1320" type="line"/>
      <point x="171" y="1320"/>
      <point x="215" y="1208"/>
      <point x="241" y="1179" type="curve"/>
      <point x="241" y="-104" type="line" smooth="yes"/>
      <point x="241" y="-196"/>
      <point x="213" y="-298"/>
      <point x="134" y="-298" type="curve" smooth="yes"/>
      <point x="14" y="-298"/>
      <point x="93" y="-117"/>
      <point x="-57" y="-117" type="curve" smooth="yes"/>
      <point x="-100" y="-117"/>
      <point x="-140" y="-149"/>
      <point x="-140" y="-230" type="curve" smooth="yes"/>
      <point x="-140" y="-326"/>
      <point x="-12" y="-373"/>
      <point x="89" y="-373" type="curve" smooth="yes"/>
      <point x="326" y="-373"/>
      <point x="327" y="-176"/>
      <point x="327" y="65" type="curve" smooth="yes"/>
      <point x="327" y="1070" type="line"/>
      <point x="1224" y="-22" type="line"/>
      <point x="1260" y="-22" type="line"/>
      <point x="1260" y="1121" type="line" smooth="yes"/>
      <point x="1260" y="1198"/>
      <point x="1266" y="1245"/>
      <point x="1281" y="1269" type="curve" smooth="yes"/>
      <point x="1303" y="1303"/>
      <point x="1346" y="1320"/>
      <point x="1403" y="1320" type="curve" smooth="yes"/>
    </contour>
    <contour>
      <point x="655" y="1435" type="move" name="U"/>
    </contour>
    <contour>
      <point x="655" y="-500" type="move" name="L"/>
    </contour>
  </outline>
</glyph>
<glyph name="LtnYr" format="1">
  <advance width="1351"/>
  <unicode hex="01A6"/>
  <outline>
    <contour>
      <point x="1486" y="-140" type="line"/>
      <point x="1486" y="-102" type="line"/>
      <point x="1336" y="-87"/>
      <point x="1261" y="-42"/>
      <point x="1138" y="130" type="curve" smooth="yes"/>
      <point x="761" y="660" type="line"/>
      <point x="987" y="711"/>
      <point x="1094" y="761"/>
      <point x="1094" y="930" type="curve" smooth="yes"/>
      <point x="1094" y="1085"/>
      <point x="989" y="1139"/>
      <point x="850" y="1184" type="curve" smooth="yes"/>
      <point x="781" y="1206"/>
      <point x="672" y="1216"/>
      <point x="528" y="1216" type="curve" smooth="yes"/>
      <point x="427" y="1216" type="line"/>
      <point x="431" y="1242"/>
      <point x="437" y="1260"/>
      <point x="445" y="1271" type="curve" smooth="yes"/>
      <point x="471" y="1303"/>
      <point x="510" y="1320"/>
      <point x="565" y="1320" type="curve" smooth="yes"/>
      <point x="614" y="1320" type="line"/>
      <point x="614" y="1356" type="line"/>
      <point x="33" y="1356" type="line"/>
      <point x="33" y="1320" type="line"/>
      <point x="85" y="1320" type="line" smooth="yes"/>
      <point x="131" y="1320"/>
      <point x="182" y="1301"/>
      <point x="207" y="1269" type="curve"/>
      <point x="228" y="1245"/>
      <point x="229" y="1210"/>
      <point x="229" y="1117" type="curve"/>
      <point x="229" y="241" type="line" smooth="yes"/>
      <point x="229" y="162"/>
      <point x="222" y="113"/>
      <point x="209" y="92" type="curve" smooth="yes"/>
      <point x="186" y="55"/>
      <point x="144" y="38"/>
      <point x="87" y="38" type="curve" smooth="yes"/>
      <point x="36" y="38" type="line"/>
      <point x="36" y="0" type="line"/>
      <point x="617" y="0" type="line"/>
      <point x="617" y="38" type="line"/>
      <point x="564" y="38" type="line" smooth="yes"/>
      <point x="512" y="38"/>
      <point x="474" y="53"/>
      <point x="449" y="83" type="curve"/>
      <point x="429" y="102"/>
      <point x="420" y="156"/>
      <point x="420" y="241" type="curve" smooth="yes"/>
      <point x="420" y="634" type="line"/>
      <point x="440" y="631"/>
      <point x="455" y="630"/>
      <point x="473" y="630" type="curve" smooth="yes"/>
      <point x="496" y="630"/>
      <point x="523" y="632"/>
      <point x="564" y="634" type="curve"/>
      <point x="1123" y="-140" type="line"/>
    </contour>
    <contour>
      <point x="869" y="913" type="curve"/>
      <point x="869" y="742"/>
      <point x="743" y="698"/>
      <point x="477" y="698" type="curve" smooth="yes"/>
      <point x="420" y="698" type="line"/>
      <point x="420" y="1124" type="line"/>
      <point x="481" y="1138"/>
      <point x="511" y="1141"/>
      <point x="577" y="1141" type="curve" smooth="yes"/>
      <point x="755" y="1141"/>
      <point x="869" y="1083"/>
    </contour>
    <contour>
      <point x="759" y="1435" type="move" name="U"/>
    </contour>
    <contour>
      <point x="759" y="-100" type="move" name="L"/>
    </contour>
  </outline>
</glyph>
<glyph name="LtnCapTnTwo" format="1">
  <advance width="1139"/>
  <unicode hex="01A7"/>
  <outline>
    <contour>
      <point x="108" y="346" type="curve"/>
      <point x="108" y="140"/>
      <point x="285" y="-32"/>
      <point x="536" y="-32" type="curve" smooth="yes"/>
      <point x="814" y="-32"/>
      <point x="934" y="144"/>
      <point x="962" y="-32" type="curve"/>
      <point x="998" y="-32" type="line"/>
      <point x="998" y="434" type="line"/>
      <point x="962" y="434" type="line"/>
      <point x="928" y="154"/>
      <point x="751" y="47"/>
      <point x="558" y="47" type="curve" smooth="yes"/>
      <point x="392" y="47"/>
      <point x="287" y="150"/>
      <point x="287" y="269" type="curve" smooth="yes"/>
      <point x="287" y="402"/>
      <point x="376" y="459"/>
      <point x="614" y="593" type="curve" smooth="yes"/>
      <point x="938" y="775"/>
      <point x="1009" y="863"/>
      <point x="1009" y="1031" type="curve" smooth="yes"/>
      <point x="1009" y="1222"/>
      <point x="857" y="1388"/>
      <point x="614" y="1388" type="curve" smooth="yes"/>
      <point x="376" y="1388"/>
      <point x="280" y="1216"/>
      <point x="236" y="1388" type="curve"/>
      <point x="199" y="1388" type="line"/>
      <point x="199" y="918" type="line"/>
      <point x="236" y="918" type="line"/>
      <point x="262" y="1173"/>
      <point x="422" y="1309"/>
      <point x="613" y="1309" type="curve" smooth="yes"/>
      <point x="744" y="1309"/>
      <point x="851" y="1213"/>
      <point x="851" y="1100" type="curve" smooth="yes"/>
      <point x="851" y="993"/>
      <point x="782" y="931"/>
      <point x="514" y="786" type="curve" smooth="yes"/>
      <point x="386" y="717"/>
      <point x="302" y="664"/>
      <point x="254" y="628" type="curve" smooth="yes"/>
      <point x="163" y="560"/>
      <point x="108" y="457"/>
    </contour>
    <contour>
      <point x="559" y="1435" type="move" name="U"/>
    </contour>
    <contour>
      <point x="559" y="-100" type="move" name="L"/>
    </contour>
  </outline>
</glyph>
<glyph name="LtnSmTnTwo" format="1">
  <advance width="798"/>
  <unicode hex="01A8"/>
  <outline>
    <contour>
      <point x="72" y="231" type="curve"/>
      <point x="72" y="92"/>
      <point x="215" y="-30"/>
      <point x="378" y="-30" type="curve" smooth="yes"/>
      <point x="477" y="-30"/>
      <point x="563" y="24"/>
      <point x="625" y="32" type="curve"/>
      <point x="640" y="32"/>
      <point x="652" y="4"/>
      <point x="660" y="-13" type="curve"/>
      <point x="693" y="-13" type="line"/>
      <point x="693" y="314" type="line"/>
      <point x="660" y="314" type="line"/>
      <point x="625" y="128"/>
      <point x="508" y="32"/>
      <point x="378" y="32" type="curve" smooth="yes"/>
      <point x="279" y="32"/>
      <point x="222" y="94"/>
      <point x="221" y="167" type="curve" smooth="yes"/>
      <point x="219" y="258"/>
      <point x="254" y="310"/>
      <point x="453" y="412" type="curve" smooth="yes"/>
      <point x="648" y="512"/>
      <point x="698" y="585"/>
      <point x="698" y="698" type="curve" smooth="yes"/>
      <point x="698" y="835"/>
      <point x="591" y="942"/>
      <point x="400" y="942" type="curve" smooth="yes"/>
      <point x="317" y="942"/>
      <point x="232" y="907"/>
      <point x="200" y="907" type="curve" smooth="yes"/>
      <point x="181" y="907"/>
      <point x="171" y="910"/>
      <point x="155" y="942" type="curve"/>
      <point x="122" y="942" type="line"/>
      <point x="122" y="630" type="line"/>
      <point x="155" y="630" type="line"/>
      <point x="203" y="826"/>
      <point x="288" y="885"/>
      <point x="403" y="885" type="curve" smooth="yes"/>
      <point x="526" y="885"/>
      <point x="580" y="835"/>
      <point x="581" y="765" type="curve" smooth="yes"/>
      <point x="583" y="692"/>
      <point x="559" y="632"/>
      <point x="431" y="574" type="curve" smooth="yes"/>
      <point x="283" y="504" type="line" smooth="yes"/>
      <point x="145" y="440"/>
      <point x="72" y="346"/>
    </contour>
    <contour>
      <point x="385" y="1000" type="move" name="U"/>
    </contour>
    <contour>
      <point x="385" y="-100" type="move" name="L"/>
    </contour>
  </outline>
</glyph>
<glyph name="LtnCapTHook" format="1">
  <advance width="1251"/>
  <unicode hex="01AC"/>
  <outline>
    <contour>
      <point x="1285" y="1038" type="line"/>
      <point x="1271" y="1356" type="line"/>
      <point x="299" y="1356" type="line" smooth="yes"/>
      <point x="205" y="1356"/>
      <point x="55" y="1334"/>
      <point x="55" y="1157" type="curve" smooth="yes"/>
      <point x="55" y="1051"/>
      <point x="107" y="968"/>
      <point x="203" y="968" type="curve" smooth="yes"/>
      <point x="284" y="968"/>
      <point x="310" y="1008"/>
      <point x="310" y="1051" type="curve" smooth="yes"/>
      <point x="310" y="1165"/>
      <point x="154" y="1100"/>
      <point x="154" y="1198" type="curve" smooth="yes"/>
      <point x="154" y="1224"/>
      <point x="171" y="1273"/>
      <point x="270" y="1273" type="curve" smooth="yes"/>
      <point x="617" y="1273" type="line"/>
      <point x="617" y="237" type="line" smooth="yes"/>
      <point x="617" y="152"/>
      <point x="607" y="100"/>
      <point x="589" y="79" type="curve" smooth="yes"/>
      <point x="566" y="51"/>
      <point x="526" y="38"/>
      <point x="474" y="38" type="curve" smooth="yes"/>
      <point x="425" y="38" type="line"/>
      <point x="425" y="0" type="line"/>
      <point x="1001" y="0" type="line"/>
      <point x="1001" y="38" type="line"/>
      <point x="952" y="38" type="line" smooth="yes"/>
      <point x="895" y="38"/>
      <point x="857" y="53"/>
      <point x="830" y="90" type="curve"/>
      <point x="818" y="111"/>
      <point x="810" y="158"/>
      <point x="810" y="237" type="curve" smooth="yes"/>
      <point x="810" y="1273" type="line"/>
      <point x="972" y="1273" type="line" smooth="yes"/>
      <point x="1080" y="1273"/>
      <point x="1117" y="1264"/>
      <point x="1155" y="1230" type="curve"/>
      <point x="1204" y="1194"/>
      <point x="1232" y="1130"/>
      <point x="1240" y="1038" type="curve"/>
    </contour>
    <contour>
      <point x="670" y="1435" type="move" name="U"/>
    </contour>
    <contour>
      <point x="670" y="-100" type="move" name="L"/>
    </contour>
  </outline>
</glyph>
<glyph name="LtnCapUpsilon" format="1">
  <advance width="1277"/>
  <unicode hex="01B1"/>
  <outline>
    <contour>
      <point x="1267" y="1322" type="curve"/>
      <point x="1267" y="1356" type="line"/>
      <point x="854" y="1356" type="line"/>
      <point x="966" y="1216"/>
      <point x="1017" y="1082"/>
      <point x="1017" y="788" type="curve" smooth="yes"/>
      <point x="1017" y="418"/>
      <point x="887" y="53"/>
      <point x="639" y="53" type="curve" smooth="yes"/>
      <point x="398" y="53"/>
      <point x="260" y="402"/>
      <point x="260" y="788" type="curve" smooth="yes"/>
      <point x="260" y="1055"/>
      <point x="312" y="1216"/>
      <point x="423" y="1356" type="curve"/>
      <point x="10" y="1356" type="line"/>
      <point x="10" y="1322" type="line"/>
      <point x="154" y="1322"/>
      <point x="203" y="1247"/>
      <point x="203" y="1190" type="curve" smooth="yes"/>
      <point x="203" y="1023"/>
      <point x="87" y="948"/>
      <point x="87" y="645" type="curve" smooth="yes"/>
      <point x="87" y="201"/>
      <point x="305" y="-34"/>
      <point x="639" y="-34" type="curve" smooth="yes"/>
      <point x="976" y="-34"/>
      <point x="1190" y="203"/>
      <point x="1190" y="645" type="curve" smooth="yes"/>
      <point x="1190" y="948"/>
      <point x="1074" y="1023"/>
      <point x="1074" y="1190" type="curve" smooth="yes"/>
      <point x="1074" y="1247"/>
      <point x="1123" y="1322"/>
    </contour>
    <contour>
      <point x="638" y="1435" type="move" name="U"/>
    </contour>
    <contour>
      <point x="638" y="-100" type="move" name="L"/>
    </contour>
  </outline>
</glyph>
<glyph name="LtnCapEzhRev" format="1">
  <advance width="1230"/>
  <unicode hex="01B8"/>
  <outline>
    <contour>
      <point x="73" y="243" type="curve"/>
      <point x="73" y="-314"/>
      <point x="583" y="-374"/>
      <point x="751" y="-374" type="curve" smooth="yes"/>
      <point x="1025" y="-374"/>
      <point x="1157" y="-246"/>
      <point x="1157" y="-120" type="curve" smooth="yes"/>
      <point x="1157" y="-43"/>
      <point x="1114" y="-15"/>
      <point x="1047" y="-15" type="curve" smooth="yes"/>
      <point x="980" y="-15"/>
      <point x="952" y="-89"/>
      <point x="944" y="-152" type="curve" smooth="yes"/>
      <point x="936" y="-217"/>
      <point x="923" y="-297"/>
      <point x="668" y="-297" type="curve" smooth="yes"/>
      <point x="504" y="-297"/>
      <point x="264" y="-136"/>
      <point x="264" y="141" type="curve" smooth="yes"/>
      <point x="264" y="449"/>
      <point x="438" y="623"/>
      <point x="656" y="623" type="curve" smooth="yes"/>
      <point x="705" y="623"/>
      <point x="794" y="600"/>
      <point x="826" y="581" type="curve"/>
      <point x="852" y="615" type="line"/>
      <point x="321" y="1216" type="line"/>
      <point x="796" y="1216" type="line" smooth="yes"/>
      <point x="999" y="1216"/>
      <point x="1001" y="1173"/>
      <point x="1059" y="1017" type="curve"/>
      <point x="1096" y="1017" type="line"/>
      <point x="1029" y="1356" type="line"/>
      <point x="150" y="1356" type="line"/>
      <point x="150" y="1264" type="line"/>
      <point x="621" y="722" type="line"/>
      <point x="367" y="753"/>
      <point x="73" y="589"/>
    </contour>
    <contour>
      <point x="615" y="1435" type="move" name="U"/>
    </contour>
    <contour>
      <point x="615" y="-500" type="move" name="L"/>
    </contour>
  </outline>
</glyph>
<glyph name="LtnTwoStrk" format="1">
  <advance width="1025"/>
  <unicode hex="01BB"/>
  <outline>
    <contour>
      <point x="948" y="528" type="line"/>
      <point x="948" y="613" type="line"/>
      <point x="680" y="613" type="line"/>
      <point x="771" y="731"/>
      <point x="857" y="881"/>
      <point x="857" y="1029" type="curve" smooth="yes"/>
      <point x="857" y="1251"/>
      <point x="662" y="1386"/>
      <point x="469" y="1386" type="curve" smooth="yes"/>
      <point x="171" y="1386"/>
      <point x="100" y="1125"/>
      <point x="85" y="1003" type="curve"/>
      <point x="120" y="1003" type="line"/>
      <point x="146" y="1078"/>
      <point x="227" y="1232"/>
      <point x="418" y="1232" type="curve" smooth="yes"/>
      <point x="502" y="1232"/>
      <point x="686" y="1168"/>
      <point x="686" y="936" type="curve" smooth="yes"/>
      <point x="686" y="837"/>
      <point x="649" y="729"/>
      <point x="574" y="613" type="curve"/>
      <point x="69" y="613" type="line"/>
      <point x="69" y="528" type="line"/>
      <point x="517" y="528" type="line"/>
      <point x="418" y="397"/>
      <point x="258" y="235"/>
      <point x="45" y="38" type="curve"/>
      <point x="45" y="0" type="line"/>
      <point x="844" y="0" type="line"/>
      <point x="940" y="260" type="line"/>
      <point x="903" y="260" type="line"/>
      <point x="841" y="171"/>
      <point x="818" y="152"/>
      <point x="613" y="152" type="curve" smooth="yes"/>
      <point x="258" y="152" type="line"/>
      <point x="299" y="190"/>
      <point x="402" y="299"/>
      <point x="568" y="479" type="curve" smooth="yes"/>
      <point x="581" y="495"/>
      <point x="598" y="510"/>
      <point x="611" y="528" type="curve"/>
    </contour>
    <contour>
      <point x="496" y="1435" type="move" name="U"/>
    </contour>
    <contour>
      <point x="496" y="-100" type="move" name="L"/>
    </contour>
  </outline>
</glyph>
<glyph name="LtnAlveolarClick" format="1">
  <advance width="841"/>
  <unicode hex="01C2"/>
  <outline>
    <contour>
      <point x="781" y="316" type="line"/>
      <point x="781" y="417" type="line"/>
      <point x="472" y="417" type="line"/>
      <point x="472" y="594" type="line"/>
      <point x="781" y="594" type="line"/>
      <point x="781" y="694" type="line"/>
      <point x="472" y="694" type="line"/>
      <point x="472" y="1450" type="line"/>
      <point x="371" y="1450" type="line"/>
      <point x="371" y="694" type="line"/>
      <point x="60" y="694" type="line"/>
      <point x="60" y="594" type="line"/>
      <point x="371" y="594" type="line"/>
      <point x="371" y="417" type="line"/>
      <point x="60" y="417" type="line"/>
      <point x="60" y="316" type="line"/>
      <point x="371" y="316" type="line"/>
      <point x="371" y="-440" type="line"/>
      <point x="472" y="-440" type="line"/>
      <point x="472" y="316" type="line"/>
    </contour>
    <contour>
      <point x="420" y="1435" type="move" name="U"/>
    </contour>
    <contour>
      <point x="420" y="-500" type="move" name="L"/>
    </contour>
  </outline>
</glyph>
<glyph name="LtnCapLj" format="1">
  <advance width="2049"/>
  <unicode hex="01C7"/>
  <outline>
    <component base="LtnCapL"/>
    <component base="LtnCapJ" xOffset="1251"/>
    <contour>
      <point x="624" y="0" type="move" name="H"/>
    </contour>
    <contour>
      <point x="1664" y="-100" type="move" name="L"/>
    </contour>
    <contour>
      <point x="1747" y="1435" type="move" name="U"/>
    </contour>
  </outline>
</glyph>
<glyph name="LtnCapNj" format="1">
  <advance width="2278"/>
  <unicode hex="01CA"/>
  <outline>
    <component base="LtnCapN"/>
    <component base="LtnCapJ" xOffset="1480"/>
    <contour>
      <point x="1224" y="0" type="move" name="H"/>
    </contour>
    <contour>
      <point x="1975" y="1435" type="move" name="U"/>
    </contour>
    <contour>
      <point x="1893" y="-100" type="move" name="L"/>
    </contour>
  </outline>
</glyph>
<glyph name="LtnCapNSmJ" format="1">
  <advance width="2050"/>
  <unicode hex="01CB"/>
  <outline>
    <component base="LtnCapN"/>
    <component base="LtnSmJ" xOffset="1680"/>
    <contour>
      <point x="1780" y="1435" type="move" name="U"/>
    </contour>
    <contour>
      <point x="1601" y="-500" type="move" name="L"/>
    </contour>
    <contour>
      <point x="731" y="0" type="move" name="H"/>
    </contour>
  </outline>
</glyph>
<glyph name="LtnCapUDiaerMacron" format="1">
  <advance width="1480"/>
  <unicode hex="01D5"/>
  <outline>
    <component base="LtnCapU"/>
    <component base="CombDiaer" xOffset="1256" yOffset="435"/>
    <component base="CombMacron" xOffset="1256" yOffset="870"/>
    <contour>
      <point x="744" y="0" type="move" name="H"/>
    </contour>
    <contour>
      <point x="1490" y="1330" type="move" name="R"/>
    </contour>
    <contour>
      <point x="744" y="2235" type="move" name="U"/>
    </contour>
    <contour>
      <point x="744" y="-100" type="move" name="L"/>
    </contour>
    <contour>
      <point x="1006" y="0" type="move" name="O"/>
    </contour>
  </outline>
</glyph>
<glyph name="LtnSmUDiaerCaron" format="1">
  <advance width="1025"/>
  <unicode hex="01DA"/>
  <outline>
    <component base="LtnSmU"/>
    <component base="CombDiaer" xOffset="1025"/>
    <component base="CombCaron" xOffset="1025" yOffset="435"/>
    <contour>
      <point x="475" y="0" type="move" name="H"/>
    </contour>
    <contour>
      <point x="995" y="900" type="move" name="R"/>
    </contour>
    <contour>
      <point x="513" y="1870" type="move" name="U"/>
    </contour>
    <contour>
      <point x="513" y="-100" type="move" name="L"/>
    </contour>
    <contour>
      <point x="877" y="0" type="move" name="O"/>
    </contour>
  </outline>
</glyph>
<glyph name="LtnCapUDiaerGrave" format="1">
  <advance width="1480"/>
  <unicode hex="01DB"/>
  <outline>
    <component base="LtnCapU"/>
    <component base="CombDiaer" xOffset="1256" yOffset="435"/>
    <component base="CombGrave" xOffset="1256" yOffset="870"/>
    <contour>
      <point x="744" y="0" type="move" name="H"/>
    </contour>
    <contour>
      <point x="1490" y="1330" type="move" name="R"/>
    </contour>
    <contour>
      <point x="744" y="2305" type="move" name="U"/>
    </contour>
    <contour>
      <point x="744" y="-100" type="move" name="L"/>
    </contour>
    <contour>
      <point x="1006" y="0" type="move" name="O"/>
    </contour>
  </outline>
</glyph>
<glyph name="LtnCapADotAbvMacron" format="1">
  <advance width="1472"/>
  <unicode hex="01E0"/>
  <outline>
    <component base="LtnCapA"/>
    <component base="DotAbv" xOffset="633" yOffset="435"/>
    <component base="CombMacron" xOffset="1248" yOffset="870"/>
    <contour>
      <point x="735" y="-100" type="move" name="L"/>
    </contour>
    <contour>
      <point x="1347" y="0" type="move" name="O"/>
    </contour>
    <contour>
      <point x="1180" y="0" type="move" name="H"/>
    </contour>
    <contour>
      <point x="735" y="2305" type="move" name="U"/>
    </contour>
  </outline>
</glyph>
<glyph name="LtnCapAeMacron" format="1">
  <advance width="1823"/>
  <unicode hex="01E2"/>
  <outline>
    <component base="LtnCapAe"/>
    <component base="CombMacron" xOffset="1382" yOffset="435"/>
    <contour>
      <point x="870" y="1800" type="move" name="U"/>
    </contour>
    <contour>
      <point x="870" y="-100" type="move" name="L"/>
    </contour>
  </outline>
</glyph>
<glyph name="LtnSmGStrk" format="1">
  <advance width="1025"/>
  <unicode hex="01E5"/>
  <outline>
    <contour>
      <point x="1052" y="-225" type="line"/>
      <point x="1052" y="-122" type="line"/>
      <point x="973" y="-122" type="line"/>
      <point x="975" y="-109"/>
      <point x="976" y="-97"/>
      <point x="976" y="-85" type="curve" smooth="yes"/>
      <point x="976" y="128"/>
      <point x="728" y="130"/>
      <point x="656" y="132" type="curve" smooth="yes"/>
      <point x="359" y="140"/>
      <point x="325" y="144"/>
      <point x="299" y="167" type="curve" smooth="yes"/>
      <point x="288" y="177"/>
      <point x="283" y="189"/>
      <point x="283" y="203" type="curve" smooth="yes"/>
      <point x="283" y="240"/>
      <point x="319" y="287"/>
      <point x="359" y="316" type="curve"/>
      <point x="406" y="301"/>
      <point x="453" y="295"/>
      <point x="499" y="295" type="curve" smooth="yes"/>
      <point x="726" y="295"/>
      <point x="859" y="436"/>
      <point x="859" y="601" type="curve" smooth="yes"/>
      <point x="859" y="605" type="line" smooth="yes"/>
      <point x="859" y="680"/>
      <point x="839" y="741"/>
      <point x="805" y="788" type="curve"/>
      <point x="931" y="788" type="line" smooth="yes"/>
      <point x="945" y="788"/>
      <point x="969" y="789"/>
      <point x="978" y="796" type="curve"/>
      <point x="985" y="805"/>
      <point x="987" y="828"/>
      <point x="987" y="835" type="curve" smooth="yes"/>
      <point x="987" y="861"/>
      <point x="984" y="873"/>
      <point x="974" y="875" type="curve" smooth="yes"/>
      <point x="963" y="877"/>
      <point x="954" y="878"/>
      <point x="944" y="878" type="curve" smooth="yes"/>
      <point x="919" y="878"/>
      <point x="892" y="873"/>
      <point x="833" y="873" type="curve" smooth="yes"/>
      <point x="707" y="873"/>
      <point x="658" y="942"/>
      <point x="500" y="942" type="curve" smooth="yes"/>
      <point x="272" y="942"/>
      <point x="136" y="784"/>
      <point x="136" y="613" type="curve" smooth="yes"/>
      <point x="136" y="502"/>
      <point x="193" y="386"/>
      <point x="310" y="335" type="curve"/>
      <point x="171" y="217"/>
      <point x="150" y="166"/>
      <point x="150" y="118" type="curve" smooth="yes"/>
      <point x="150" y="71"/>
      <point x="183" y="47"/>
      <point x="244" y="8" type="curve"/>
      <point x="190" y="-45"/>
      <point x="152" y="-87"/>
      <point x="124" y="-122" type="curve"/>
      <point x="-22" y="-122" type="line"/>
      <point x="-22" y="-225" type="line"/>
      <point x="64" y="-225" type="line"/>
      <point x="62" y="-234"/>
      <point x="61" y="-243"/>
      <point x="61" y="-252" type="curve" smooth="yes"/>
      <point x="61" y="-345"/>
      <point x="260" y="-444"/>
      <point x="463" y="-444" type="curve" smooth="yes"/>
      <point x="678" y="-444"/>
      <point x="855" y="-349"/>
      <point x="933" y="-225" type="curve"/>
    </contour>
    <contour>
      <point x="682" y="579" type="curve"/>
      <point x="682" y="414"/>
      <point x="607" y="345"/>
      <point x="510" y="345" type="curve" smooth="yes"/>
      <point x="382" y="345"/>
      <point x="310" y="474"/>
      <point x="310" y="656" type="curve" smooth="yes"/>
      <point x="310" y="824"/>
      <point x="388" y="895"/>
      <point x="483" y="895" type="curve" smooth="yes"/>
      <point x="607" y="895"/>
      <point x="682" y="767"/>
    </contour>
    <contour>
      <point x="903" y="-122" type="curve"/>
      <point x="214" y="-122" type="line"/>
      <point x="229" y="-83"/>
      <point x="258" y="-47"/>
      <point x="299" y="0" type="curve"/>
      <point x="380" y="-12"/>
      <point x="497" y="-15"/>
      <point x="647" y="-22" type="curve" smooth="yes"/>
      <point x="857" y="-32"/>
      <point x="903" y="-57"/>
    </contour>
    <contour>
      <point x="551" y="-321" type="curve"/>
      <point x="389" y="-321"/>
      <point x="267" y="-283"/>
      <point x="223" y="-225" type="curve"/>
      <point x="856" y="-225" type="line"/>
      <point x="803" y="-279"/>
      <point x="702" y="-321"/>
    </contour>
    <contour>
      <point x="515" y="1000" type="move" name="U"/>
    </contour>
    <contour>
      <point x="515" y="-500" type="move" name="L"/>
    </contour>
  </outline>
</glyph>
<glyph name="LtnCapOOgonek" format="1">
  <advance width="1480"/>
  <unicode hex="01EA"/>
  <outline>
    <component base="LtnCapO"/>
    <component base="CombOgonek" xOffset="1298"/>
    <contour>
      <point x="735" y="0" type="move" name="H"/>
    </contour>
    <contour>
      <point x="1400" y="1320" type="move" name="R"/>
    </contour>
    <contour>
      <point x="735" y="1435" type="move" name="U"/>
    </contour>
    <contour>
      <point x="736" y="-500" type="move" name="L"/>
    </contour>
  </outline>
</glyph>
<glyph name="LtnSmOOgonek" format="1">
  <advance width="1025"/>
  <unicode hex="01EB"/>
  <outline>
    <component base="LtnSmO"/>
    <component base="CombOgonek" xOffset="1059" yOffset="18"/>
    <contour>
      <point x="1025" y="900" type="move" name="R"/>
    </contour>
    <contour>
      <point x="571" y="-400" type="move" name="L"/>
    </contour>
    <contour>
      <point x="511" y="1000" type="move" name="U"/>
    </contour>
    <contour>
      <point x="511" y="0" type="move" name="H"/>
    </contour>
  </outline>
</glyph>
<glyph name="LtnCapEzhCaron" format="1">
  <advance width="1230"/>
  <unicode hex="01EE"/>
  <outline>
    <component base="LtnCapEzh"/>
    <component base="CombCaron" xOffset="1127" yOffset="435"/>
    <contour>
      <point x="615" y="1870" type="move" name="U"/>
    </contour>
    <contour>
      <point x="615" y="-500" type="move" name="L"/>
    </contour>
  </outline>
</glyph>
<glyph name="LtnCapDSmZ" format="1">
  <advance width="2390"/>
  <unicode hex="01F2"/>
  <outline>
    <component base="LtnCapD"/>
    <component base="LtnSmZ" xOffset="1480"/>
    <contour>
      <point x="1939" y="0" type="move" name="H"/>
    </contour>
    <contour>
      <point x="1939" y="1000" type="move" name="U"/>
    </contour>
    <contour>
      <point x="1939" y="-100" type="move" name="L"/>
    </contour>
  </outline>
</glyph>
<glyph name="LtnCapGAcute" format="1">
  <advance width="1480"/>
  <unicode hex="01F4"/>
  <outline>
    <component base="LtnCapG"/>
    <component base="CombAcute" xOffset="1272" yOffset="435"/>
    <contour>
      <point x="761" y="0" type="move" name="H"/>
    </contour>
    <contour>
      <point x="760" y="1870" type="move" name="U"/>
    </contour>
    <contour>
      <point x="760" y="-100" type="move" name="L"/>
    </contour>
  </outline>
</glyph>
<glyph name="LtnSmEDblGrave" format="1">
  <advance width="910"/>
  <unicode hex="0205"/>
  <outline>
    <component base="LtnSmE"/>
    <component base="CombDblGrave" xOffset="997"/>
    <contour>
      <point x="463" y="0" type="move" name="H"/>
    </contour>
    <contour>
      <point x="910" y="900" type="move" name="R"/>
    </contour>
    <contour>
      <point x="485" y="1435" type="move" name="U"/>
    </contour>
    <contour>
      <point x="485" y="-100" type="move" name="L"/>
    </contour>
    <contour>
      <point x="661" y="0" type="move" name="O"/>
    </contour>
  </outline>
</glyph>
<glyph name="LtnCapIInvBreve" format="1">
  <advance width="682"/>
  <unicode hex="020A"/>
  <outline>
    <component base="LtnCapI"/>
    <component base="CombInvBreve" xOffset="853" yOffset="435"/>
    <contour>
      <point x="341" y="0" type="move" name="H"/>
    </contour>
    <contour>
      <point x="682" y="1100" type="move" name="R"/>
    </contour>
    <contour>
      <point x="341" y="1870" type="move" name="U"/>
    </contour>
    <contour>
      <point x="341" y="-100" type="move" name="L"/>
    </contour>
    <contour>
      <point x="510" y="0" type="move" name="O"/>
    </contour>
  </outline>
</glyph>
<glyph name="LtnSmIInvBreve" format="1">
  <advance width="570"/>
  <unicode hex="020B"/>
  <outline>
    <component base="LtnSmDotlessI"/>
    <component base="CombInvBreve" xOffset="806"/>
    <contour>
      <point x="295" y="0" type="move" name="H"/>
    </contour>
    <contour>
      <point x="570" y="900" type="move" name="R"/>
    </contour>
    <contour>
      <point x="294" y="1435" type="move" name="U"/>
    </contour>
    <contour>
      <point x="294" y="-100" type="move" name="L"/>
    </contour>
    <contour>
      <point x="445" y="0" type="move" name="O"/>
    </contour>
  </outline>
</glyph>
<glyph name="LtnCapODblGrave" format="1">
  <advance width="1480"/>
  <unicode hex="020C"/>
  <outline>
    <component base="LtnCapO"/>
    <component base="CombDblGrave" xOffset="1247" yOffset="435"/>
    <contour>
      <point x="735" y="0" type="move" name="H"/>
    </contour>
    <contour>
      <point x="1400" y="1320" type="move" name="R"/>
    </contour>
    <contour>
      <point x="735" y="1870" type="move" name="U"/>
    </contour>
    <contour>
      <point x="735" y="-100" type="move" name="L"/>
    </contour>
    <contour>
      <point x="990" y="0" type="move" name="O"/>
    </contour>
  </outline>
</glyph>
<glyph name="LtnCapSCommaBlw" format="1">
  <advance width="1139"/>
  <unicode hex="0218"/>
  <outline>
    <component base="LtnCapS"/>
    <component base="CombCommaBlw" xOffset="1092"/>
    <contour>
      <point x="580" y="0" type="move" name="H"/>
    </contour>
    <contour>
      <point x="580" y="1435" type="move" name="U"/>
    </contour>
    <contour>
      <point x="580" y="-500" type="move" name="L"/>
    </contour>
  </outline>
</glyph>
<glyph name="LtnCapYogh" format="1">
  <advance width="1059"/>
  <unicode hex="021C"/>
  <outline>
    <contour>
      <point x="972" y="265" type="curve" smooth="yes"/>
      <point x="972" y="384"/>
      <point x="909" y="544"/>
      <point x="700" y="619" type="curve"/>
      <point x="806" y="674"/>
      <point x="922" y="820"/>
      <point x="922" y="1021" type="curve" smooth="yes"/>
      <point x="922" y="1198"/>
      <point x="794" y="1388"/>
      <point x="483" y="1388" type="curve" smooth="yes"/>
      <point x="335" y="1388"/>
      <point x="290" y="1311"/>
      <point x="243" y="1311" type="curve" smooth="yes"/>
      <point x="243" y="1311"/>
      <point x="195" y="1299"/>
      <point x="173" y="1388" type="curve"/>
      <point x="124" y="1388" type="line"/>
      <point x="124" y="1058" type="line"/>
      <point x="173" y="1058" type="line"/>
      <point x="193" y="1211"/>
      <point x="320" y="1317"/>
      <point x="483" y="1317" type="curve" smooth="yes"/>
      <point x="637" y="1317"/>
      <point x="724" y="1192"/>
      <point x="724" y="1038" type="curve" smooth="yes"/>
      <point x="724" y="791"/>
      <point x="524" y="661"/>
      <point x="350" y="579" type="curve" smooth="yes"/>
      <point x="197" y="508" type="line"/>
      <point x="197" y="463" type="line"/>
      <point x="571" y="581" type="line"/>
      <point x="680" y="523"/>
      <point x="766" y="426"/>
      <point x="766" y="282" type="curve" smooth="yes"/>
      <point x="766" y="56"/>
      <point x="528" y="-53"/>
      <point x="170" y="-152" type="curve"/>
      <point x="179" y="-203" type="line"/>
      <point x="693" y="-99"/>
      <point x="972" y="29"/>
    </contour>
    <contour>
      <point x="548" y="1435" type="move" name="U"/>
    </contour>
    <contour>
      <point x="548" y="-220" type="move" name="L"/>
    </contour>
  </outline>
</glyph>
<glyph name="LtnSmYogh" format="1">
  <advance width="910"/>
  <unicode hex="021D"/>
  <outline>
    <contour>
      <point x="791" y="-39" type="curve" smooth="yes"/>
      <point x="791" y="62"/>
      <point x="738" y="198"/>
      <point x="560" y="262" type="curve"/>
      <point x="650" y="309"/>
      <point x="749" y="433"/>
      <point x="749" y="604" type="curve" smooth="yes"/>
      <point x="749" y="754"/>
      <point x="640" y="916"/>
      <point x="376" y="916" type="curve" smooth="yes"/>
      <point x="250" y="916"/>
      <point x="212" y="850"/>
      <point x="172" y="850" type="curve" smooth="yes"/>
      <point x="172" y="850"/>
      <point x="131" y="840"/>
      <point x="112" y="916" type="curve"/>
      <point x="71" y="916" type="line"/>
      <point x="71" y="635" type="line"/>
      <point x="112" y="635" type="line"/>
      <point x="129" y="765"/>
      <point x="237" y="855"/>
      <point x="376" y="855" type="curve" smooth="yes"/>
      <point x="507" y="855"/>
      <point x="581" y="749"/>
      <point x="581" y="618" type="curve" smooth="yes"/>
      <point x="581" y="408"/>
      <point x="411" y="298"/>
      <point x="263" y="228" type="curve" smooth="yes"/>
      <point x="133" y="168" type="line"/>
      <point x="133" y="129" type="line"/>
      <point x="451" y="230" type="line"/>
      <point x="543" y="180"/>
      <point x="616" y="98"/>
      <point x="616" y="-25" type="curve" smooth="yes"/>
      <point x="616" y="-217"/>
      <point x="414" y="-309"/>
      <point x="110" y="-393" type="curve"/>
      <point x="117" y="-437" type="line"/>
      <point x="554" y="-348"/>
      <point x="791" y="-240"/>
    </contour>
    <contour>
      <point x="431" y="1000" type="move" name="U"/>
    </contour>
    <contour>
      <point x="431" y="-500" type="move" name="L"/>
    </contour>
  </outline>
</glyph>
<glyph name="LtnCapHCaron" format="1">
  <advance width="1480"/>
  <unicode hex="021E"/>
  <outline>
    <component base="LtnCapH"/>
    <component base="CombCaron" xOffset="1249" yOffset="435"/>
    <contour>
      <point x="320" y="0" type="move" name="H"/>
    </contour>
    <contour>
      <point x="737" y="1870" type="move" name="U"/>
    </contour>
    <contour>
      <point x="737" y="-100" type="move" name="L"/>
    </contour>
  </outline>
</glyph>
<glyph name="LtnCapOu" format="1">
  <advance width="1165"/>
  <unicode hex="0222"/>
  <outline>
    <contour>
      <point x="583" y="1317" type="curve" smooth="yes"/>
      <point x="743" y="1317"/>
      <point x="853" y="1195"/>
      <point x="853" y="1063" type="curve" smooth="yes"/>
      <point x="853" y="944"/>
      <point x="832" y="756"/>
      <point x="581" y="756" type="curve" smooth="yes"/>
      <point x="330" y="756"/>
      <point x="312" y="944"/>
      <point x="312" y="1063" type="curve" smooth="yes"/>
      <point x="312" y="1195"/>
      <point x="418" y="1317"/>
    </contour>
    <contour>
      <point x="583" y="1388" type="curve" smooth="yes"/>
      <point x="323" y="1388"/>
      <point x="127" y="1244"/>
      <point x="127" y="1052" type="curve" smooth="yes"/>
      <point x="127" y="871"/>
      <point x="258" y="760"/>
      <point x="434" y="715" type="curve"/>
      <point x="244" y="664"/>
      <point x="71" y="559"/>
      <point x="71" y="354" type="curve" smooth="yes"/>
      <point x="71" y="93"/>
      <point x="322" y="-32"/>
      <point x="583" y="-32" type="curve" smooth="yes"/>
      <point x="843" y="-32"/>
      <point x="1094" y="93"/>
      <point x="1094" y="354" type="curve" smooth="yes"/>
      <point x="1094" y="559"/>
      <point x="921" y="664"/>
      <point x="731" y="715" type="curve"/>
      <point x="907" y="760"/>
      <point x="1038" y="871"/>
      <point x="1038" y="1052" type="curve" smooth="yes"/>
      <point x="1038" y="1248"/>
      <point x="843" y="1388"/>
    </contour>
    <contour>
      <point x="583" y="39" type="curve" smooth="yes"/>
      <point x="379" y="39"/>
      <point x="276" y="149"/>
      <point x="276" y="358" type="curve" smooth="yes"/>
      <point x="276" y="500"/>
      <point x="390" y="676"/>
      <point x="583" y="676" type="curve" smooth="yes"/>
      <point x="775" y="676"/>
      <point x="889" y="500"/>
      <point x="889" y="358" type="curve" smooth="yes"/>
      <point x="889" y="149"/>
      <point x="786" y="39"/>
    </contour>
    <contour>
      <point x="554" y="1520" type="move" name="U"/>
    </contour>
    <contour>
      <point x="554" y="-100" type="move" name="L"/>
    </contour>
  </outline>
</glyph>
<glyph name="LtnCapZHook" format="1">
  <advance width="1251"/>
  <unicode hex="0224"/>
  <outline>
    <contour>
      <point x="1118" y="83" type="curve"/>
      <point x="296" y="83" type="line"/>
      <point x="1187" y="1356" type="line"/>
      <point x="183" y="1356" type="line"/>
      <point x="156" y="1017" type="line"/>
      <point x="194" y="1017" type="line"/>
      <point x="215" y="1149"/>
      <point x="239" y="1196"/>
      <point x="274" y="1228" type="curve" smooth="yes"/>
      <point x="313" y="1262"/>
      <point x="367" y="1277"/>
      <point x="471" y="1277" type="curve" smooth="yes"/>
      <point x="903" y="1277" type="line"/>
      <point x="36" y="38" type="line"/>
      <point x="36" y="0" type="line"/>
      <point x="984" y="0" type="line"/>
      <point x="1033" y="-105"/>
      <point x="1003" y="-261"/>
      <point x="953" y="-326" type="curve"/>
      <point x="954" y="-326" type="line"/>
      <point x="1061" y="-275"/>
      <point x="1143" y="-146"/>
      <point x="1143" y="-43" type="curve" smooth="yes"/>
      <point x="1143" y="9"/>
      <point x="1125" y="68"/>
    </contour>
    <contour>
      <point x="612" y="1435" type="move" name="U"/>
    </contour>
    <contour>
      <point x="612" y="-100" type="move" name="L"/>
    </contour>
  </outline>
</glyph>
<glyph name="LtnCapECedilla" format="1">
  <advance width="1251"/>
  <unicode hex="0228"/>
  <outline>
    <component base="LtnCapE"/>
    <component base="CombCedilla" xOffset="1136"/>
    <contour>
      <point x="1251" y="1100" type="move" name="R"/>
    </contour>
    <contour>
      <point x="624" y="1435" type="move" name="U"/>
    </contour>
    <contour>
      <point x="624" y="-600" type="move" name="L"/>
    </contour>
    <contour>
      <point x="1044" y="0" type="move" name="O"/>
    </contour>
  </outline>
</glyph>
<glyph name="LtnCapODiaerMacron" format="1">
  <advance width="1480"/>
  <unicode hex="022A"/>
  <outline>
    <component base="LtnCapO"/>
    <component base="CombDiaer" xOffset="1247" yOffset="435"/>
    <component base="CombMacron" xOffset="1247" yOffset="870"/>
    <contour>
      <point x="735" y="0" type="move" name="H"/>
    </contour>
    <contour>
      <point x="1400" y="1320" type="move" name="R"/>
    </contour>
    <contour>
      <point x="735" y="2235" type="move" name="U"/>
    </contour>
    <contour>
      <point x="735" y="-100" type="move" name="L"/>
    </contour>
    <contour>
      <point x="990" y="0" type="move" name="O"/>
    </contour>
  </outline>
</glyph>
<glyph name="LtnCapYMacron" format="1">
  <advance width="1480"/>
  <unicode hex="0232"/>
  <outline>
    <component base="LtnCapY"/>
    <component base="CombMacron" xOffset="1245" yOffset="435"/>
    <contour>
      <point x="733" y="1800" type="move" name="U"/>
    </contour>
    <contour>
      <point x="733" y="-100" type="move" name="L"/>
    </contour>
  </outline>
</glyph>
<glyph name="LtnSmYMacron" format="1">
  <advance width="1025"/>
  <unicode hex="0233"/>
  <outline>
    <component base="LtnSmY"/>
    <component base="CombMacron" xOffset="1062"/>
    <contour>
      <point x="1025" y="900" type="move" name="R"/>
    </contour>
    <contour>
      <point x="550" y="1365" type="move" name="U"/>
    </contour>
    <contour>
      <point x="513" y="-500" type="move" name="L"/>
    </contour>
  </outline>
</glyph>
<glyph name="LtnSmLCurl" format="1">
  <advance width="755"/>
  <unicode hex="0234"/>
  <outline>
    <contour>
      <point x="726" y="217" type="curve"/>
      <point x="726" y="276"/>
      <point x="690" y="359"/>
      <point x="577" y="359" type="curve" smooth="yes"/>
      <point x="510" y="359"/>
      <point x="444" y="339"/>
      <point x="378" y="303" type="curve"/>
      <point x="378" y="363" type="line"/>
      <point x="378" y="1423" type="line"/>
      <point x="335" y="1423" type="line"/>
      <point x="59" y="1313" type="line"/>
      <point x="77" y="1277" type="line"/>
      <point x="134" y="1299"/>
      <point x="158" y="1295"/>
      <point x="183" y="1279" type="curve"/>
      <point x="203" y="1260"/>
      <point x="211" y="1247"/>
      <point x="211" y="1038" type="curve" smooth="yes"/>
      <point x="211" y="192" type="line"/>
      <point x="211" y="169" type="line"/>
      <point x="120" y="75"/>
      <point x="39" y="-53"/>
      <point x="-22" y="-197" type="curve"/>
      <point x="41" y="-220" type="line"/>
      <point x="77" y="-134"/>
      <point x="140" y="-10"/>
      <point x="227" y="92" type="curve"/>
      <point x="254" y="17"/>
      <point x="323" y="-30"/>
      <point x="453" y="-30" type="curve" smooth="yes"/>
      <point x="617" y="-30"/>
      <point x="726" y="69"/>
    </contour>
    <contour>
      <point x="658" y="203" type="curve"/>
      <point x="658" y="96"/>
      <point x="546" y="41"/>
      <point x="499" y="41" type="curve" smooth="yes"/>
      <point x="423" y="41"/>
      <point x="391" y="77"/>
      <point x="382" y="235" type="curve"/>
      <point x="436" y="270"/>
      <point x="497" y="292"/>
      <point x="558" y="292" type="curve" smooth="yes"/>
      <point x="625" y="292"/>
      <point x="658" y="260"/>
    </contour>
    <contour>
      <point x="352" y="1435" type="move" name="U"/>
    </contour>
    <contour>
      <point x="352" y="-100" type="move" name="L"/>
    </contour>
  </outline>
</glyph>
<glyph name="LtnSmZSwashTail" format="1">
  <advance width="910"/>
  <unicode hex="0240"/>
  <outline>
    <contour>
      <point x="877" y="879" type="line"/>
      <point x="877" y="916" type="line"/>
      <point x="109" y="916" type="line"/>
      <point x="109" y="662" type="line"/>
      <point x="141" y="662" type="line"/>
      <point x="152" y="771"/>
      <point x="181" y="816"/>
      <point x="220" y="833" type="curve"/>
      <point x="244" y="841"/>
      <point x="285" y="848"/>
      <point x="348" y="848" type="curve" smooth="yes"/>
      <point x="651" y="848" type="line"/>
      <point x="41" y="38" type="line"/>
      <point x="41" y="0" type="line"/>
      <point x="98" y="0" type="line"/>
      <point x="370" y="0"/>
      <point x="439" y="-445"/>
      <point x="741" y="-445" type="curve" smooth="yes"/>
      <point x="872" y="-445"/>
      <point x="921" y="-395"/>
      <point x="921" y="-338" type="curve" smooth="yes"/>
      <point x="921" y="-297"/>
      <point x="899" y="-252"/>
      <point x="830" y="-252" type="curve" smooth="yes"/>
      <point x="738" y="-252"/>
      <point x="776" y="-367"/>
      <point x="715" y="-367" type="curve" smooth="yes"/>
      <point x="597" y="-367"/>
      <point x="400" y="47"/>
      <point x="262" y="67" type="curve"/>
    </contour>
    <contour>
      <point x="481" y="1000" type="move" name="U"/>
    </contour>
    <contour>
      <point x="481" y="-500" type="move" name="L"/>
    </contour>
  </outline>
</glyph>
<glyph name="LtnCapGlottalStop" format="1">
  <advance width="912"/>
  <unicode hex="0241"/>
  <outline>
    <contour>
      <point x="841" y="993" type="curve"/>
      <point x="841" y="1238"/>
      <point x="637" y="1388"/>
      <point x="420" y="1388" type="curve" smooth="yes"/>
      <point x="188" y="1388"/>
      <point x="49" y="1249"/>
      <point x="49" y="1100" type="curve" smooth="yes"/>
      <point x="49" y="970"/>
      <point x="152" y="942"/>
      <point x="179" y="942" type="curve" smooth="yes"/>
      <point x="215" y="942"/>
      <point x="280" y="972"/>
      <point x="280" y="1029" type="curve" smooth="yes"/>
      <point x="280" y="1074"/>
      <point x="207" y="1145"/>
      <point x="207" y="1200" type="curve" smooth="yes"/>
      <point x="207" y="1260"/>
      <point x="260" y="1332"/>
      <point x="388" y="1332" type="curve" smooth="yes"/>
      <point x="525" y="1332"/>
      <point x="607" y="1218"/>
      <point x="607" y="1017" type="curve" smooth="yes"/>
      <point x="607" y="733"/>
      <point x="376" y="682"/>
      <point x="320" y="678" type="curve"/>
      <point x="320" y="207" type="line" smooth="yes"/>
      <point x="320" y="90"/>
      <point x="310" y="38"/>
      <point x="186" y="38" type="curve"/>
      <point x="186" y="0" type="line"/>
      <point x="658" y="0" type="line"/>
      <point x="658" y="38" type="line"/>
      <point x="525" y="38"/>
      <point x="510" y="81"/>
      <point x="510" y="207" type="curve" smooth="yes"/>
      <point x="510" y="621" type="line"/>
      <point x="574" y="630"/>
      <point x="841" y="763"/>
    </contour>
    <contour>
      <point x="456" y="1435" type="move" name="U"/>
    </contour>
    <contour>
      <point x="456" y="-100" type="move" name="L"/>
    </contour>
  </outline>
</glyph>
<glyph name="LtnCapUBar" format="1">
  <advance width="1480"/>
  <unicode hex="0244"/>
  <outline>
    <contour>
      <point x="1459" y="1320" type="line"/>
      <point x="1459" y="1356" type="line"/>
      <point x="978" y="1356" type="line"/>
      <point x="978" y="1320" type="line"/>
      <point x="1029" y="1320" type="line" smooth="yes"/>
      <point x="1080" y="1320"/>
      <point x="1119" y="1305"/>
      <point x="1145" y="1277" type="curve" smooth="yes"/>
      <point x="1165" y="1254"/>
      <point x="1173" y="1200"/>
      <point x="1173" y="1117" type="curve" smooth="yes"/>
      <point x="1173" y="781" type="line"/>
      <point x="400" y="781" type="line"/>
      <point x="400" y="1117" type="line" smooth="yes"/>
      <point x="400" y="1192"/>
      <point x="410" y="1241"/>
      <point x="425" y="1267" type="curve" smooth="yes"/>
      <point x="449" y="1303"/>
      <point x="491" y="1320"/>
      <point x="546" y="1320" type="curve" smooth="yes"/>
      <point x="598" y="1320" type="line"/>
      <point x="598" y="1356" type="line"/>
      <point x="10" y="1356" type="line"/>
      <point x="10" y="1320" type="line"/>
      <point x="61" y="1320" type="line" smooth="yes"/>
      <point x="115" y="1320"/>
      <point x="152" y="1309"/>
      <point x="173" y="1281" type="curve" smooth="yes"/>
      <point x="197" y="1254"/>
      <point x="207" y="1200"/>
      <point x="207" y="1117" type="curve" smooth="yes"/>
      <point x="207" y="781" type="line"/>
      <point x="49" y="781" type="line"/>
      <point x="49" y="666" type="line"/>
      <point x="207" y="666" type="line"/>
      <point x="207" y="585" type="line" smooth="yes"/>
      <point x="207" y="371"/>
      <point x="183" y="-32"/>
      <point x="739" y="-32" type="curve" smooth="yes"/>
      <point x="940" y="-32"/>
      <point x="1046" y="15"/>
      <point x="1145" y="118" type="curve" smooth="yes"/>
      <point x="1241" y="218"/>
      <point x="1264" y="371"/>
      <point x="1264" y="558" type="curve" smooth="yes"/>
      <point x="1264" y="666" type="line"/>
      <point x="1421" y="666" type="line"/>
      <point x="1421" y="781" type="line"/>
      <point x="1264" y="781" type="line"/>
      <point x="1264" y="1110" type="line" smooth="yes"/>
      <point x="1264" y="1185"/>
      <point x="1269" y="1232"/>
      <point x="1285" y="1251" type="curve"/>
      <point x="1315" y="1297"/>
      <point x="1352" y="1320"/>
      <point x="1407" y="1320" type="curve" smooth="yes"/>
    </contour>
    <contour>
      <point x="1173" y="568" type="line"/>
      <point x="1173" y="493"/>
      <point x="1181" y="272"/>
      <point x="1078" y="175" type="curve" smooth="yes"/>
      <point x="1029" y="130"/>
      <point x="916" y="53"/>
      <point x="753" y="53" type="curve" smooth="yes"/>
      <point x="408" y="53"/>
      <point x="400" y="348"/>
      <point x="400" y="525" type="curve" smooth="yes"/>
      <point x="400" y="666" type="line"/>
      <point x="1173" y="666" type="line"/>
    </contour>
    <contour>
      <point x="735" y="1435" type="move" name="U"/>
    </contour>
    <contour>
      <point x="735" y="-100" type="move" name="L"/>
    </contour>
  </outline>
</glyph>
<glyph name="LtnSmEStrk" format="1">
  <advance width="910"/>
  <unicode hex="0247"/>
  <outline>
    <contour>
      <point x="820" y="355" type="line"/>
      <point x="758" y="191"/>
      <point x="675" y="136"/>
      <point x="560" y="136" type="curve" smooth="yes"/>
      <point x="479" y="136"/>
      <point x="404" y="164"/>
      <point x="343" y="223" type="curve"/>
      <point x="656" y="572" type="line"/>
      <point x="852" y="572" type="line"/>
      <point x="852" y="640"/>
      <point x="839" y="699"/>
      <point x="816" y="750" type="curve"/>
      <point x="982" y="936" type="line"/>
      <point x="936" y="980" type="line"/>
      <point x="782" y="808" type="line"/>
      <point x="720" y="895"/>
      <point x="619" y="944"/>
      <point x="500" y="944" type="curve" smooth="yes"/>
      <point x="252" y="944"/>
      <point x="75" y="757"/>
      <point x="75" y="448" type="curve" smooth="yes"/>
      <point x="75" y="317"/>
      <point x="111" y="208"/>
      <point x="171" y="127" type="curve"/>
      <point x="36" y="-24" type="line"/>
      <point x="83" y="-67" type="line"/>
      <point x="213" y="78" type="line"/>
      <point x="284" y="8"/>
      <point x="376" y="-30"/>
      <point x="475" y="-30" type="curve" smooth="yes"/>
      <point x="685" y="-30"/>
      <point x="825" y="156"/>
      <point x="852" y="335" type="curve"/>
    </contour>
    <contour>
      <point x="444" y="873" type="curve" smooth="yes"/>
      <point x="507" y="873"/>
      <point x="632" y="833"/>
      <point x="642" y="652" type="curve"/>
      <point x="620" y="628" type="line"/>
      <point x="217" y="628" type="line"/>
      <point x="233" y="786"/>
      <point x="336" y="873"/>
    </contour>
    <contour>
      <point x="301" y="272" type="line"/>
      <point x="249" y="345"/>
      <point x="217" y="446"/>
      <point x="217" y="572" type="curve"/>
      <point x="570" y="572" type="line"/>
    </contour>
    <contour>
      <point x="463" y="1000" type="move" name="U"/>
    </contour>
    <contour>
      <point x="463" y="-100" type="move" name="L"/>
    </contour>
  </outline>
</glyph>
<glyph name="LtnSmRBar" format="1">
  <advance width="702"/>
  <unicode hex="024D"/>
  <outline>
    <contour>
      <point x="698" y="832" type="curve"/>
      <point x="698" y="897"/>
      <point x="641" y="942"/>
      <point x="568" y="942" type="curve" smooth="yes"/>
      <point x="485" y="942"/>
      <point x="408" y="875"/>
      <point x="331" y="737" type="curve"/>
      <point x="331" y="942" type="line"/>
      <point x="292" y="942" type="line"/>
      <point x="8" y="832" type="line"/>
      <point x="17" y="796" type="line"/>
      <point x="73" y="820"/>
      <point x="105" y="814"/>
      <point x="134" y="798" type="curve"/>
      <point x="156" y="773"/>
      <point x="164" y="784"/>
      <point x="164" y="591" type="curve" smooth="yes"/>
      <point x="164" y="558" type="line"/>
      <point x="10" y="558" type="line"/>
      <point x="10" y="455" type="line"/>
      <point x="164" y="455" type="line"/>
      <point x="164" y="207" type="line" smooth="yes"/>
      <point x="164" y="51"/>
      <point x="132" y="38"/>
      <point x="17" y="38" type="curve"/>
      <point x="17" y="0" type="line"/>
      <point x="493" y="0" type="line"/>
      <point x="493" y="38" type="line"/>
      <point x="363" y="38"/>
      <point x="331" y="98"/>
      <point x="331" y="213" type="curve" smooth="yes"/>
      <point x="331" y="455" type="line"/>
      <point x="485" y="455" type="line"/>
      <point x="485" y="558" type="line"/>
      <point x="331" y="558" type="line"/>
      <point x="331" y="654" type="line"/>
      <point x="382" y="751"/>
      <point x="432" y="810"/>
      <point x="465" y="810" type="curve" smooth="yes"/>
      <point x="508" y="810"/>
      <point x="540" y="739"/>
      <point x="607" y="739" type="curve" smooth="yes"/>
      <point x="658" y="739"/>
      <point x="698" y="784"/>
    </contour>
    <contour>
      <point x="353" y="1000" type="move" name="U"/>
    </contour>
    <contour>
      <point x="353" y="-100" type="move" name="L"/>
    </contour>
  </outline>
</glyph>
<glyph name="LtnSmAlpha" format="1">
  <advance width="1025"/>
  <unicode hex="0251"/>
  <outline>
    <contour>
      <point x="1033" y="85" type="line"/>
      <point x="1021" y="120" type="line"/>
      <point x="968" y="100"/>
      <point x="934" y="96" name="sh06"/>
      <point x="910" y="116" type="curve"/>
      <point x="881" y="137" name="at02"/>
      <point x="879" y="167" name="sh05"/>
      <point x="879" y="363" type="curve" smooth="yes" name="at01"/>
      <point x="879" y="942" type="line" name="sh01"/>
      <point x="841" y="942" type="line" name="ab01"/>
      <point x="711" y="867" type="line" name="sh04"/>
      <point x="658" y="920"/>
      <point x="592" y="944" name="ab02"/>
      <point x="512" y="944" type="curve" smooth="yes" name="sh03"/>
      <point x="227" y="944" name="sv02"/>
      <point x="67" y="656" name="sh02"/>
      <point x="67" y="420" type="curve" smooth="yes" name="sv01"/>
      <point x="67" y="161"/>
      <point x="241" y="-30" name="ah01"/>
      <point x="444" y="-30" type="curve" smooth="yes" name="sh07"/>
      <point x="551" y="-30"/>
      <point x="630" y="17"/>
      <point x="711" y="102" type="curve"/>
      <point x="711" y="-30" type="line"/>
      <point x="756" y="-30" type="line"/>
    </contour>
    <contour>
      <point x="711" y="173" type="line"/>
      <point x="654" y="113"/>
      <point x="598" y="83"/>
      <point x="534" y="83" type="curve"/>
      <point x="406" y="86"/>
      <point x="252" y="203"/>
      <point x="252" y="500" type="curve" smooth="yes"/>
      <point x="252" y="736"/>
      <point x="365" y="888"/>
      <point x="500" y="883" type="curve"/>
      <point x="632" y="880"/>
      <point x="711" y="747"/>
      <point x="711" y="647" type="curve" smooth="yes"/>
    </contour>
    <contour>
      <point x="550" y="1000" type="move" name="U"/>
    </contour>
    <contour>
      <point x="550" y="-100" type="move" name="L"/>
    </contour>
    <contour>
      <point x="1025" y="900" type="move" name="R"/>
    </contour>
    <contour>
      <point x="875" y="0" type="move" name="O"/>
    </contour>
    <contour>
      <point x="550" y="0" type="move" name="H"/>
    </contour>
  </outline>
</glyph>
<glyph name="LtnSmOpnO" format="1">
  <advance width="891"/>
  <unicode hex="0254"/>
  <outline>
    <contour>
      <point x="841" y="461" type="curve" smooth="yes"/>
      <point x="838" y="757" name="at01"/>
      <point x="667" y="948" name="sh04"/>
      <point x="451" y="948" type="curve" smooth="yes"/>
      <point x="271" y="948" name="sv02"/>
      <point x="106" y="791" name="ah02"/>
      <point x="69" y="570" type="curve" name="sv01"/>
      <point x="96" y="556" type="line" name="sh03"/>
      <point x="176" y="745"/>
      <point x="270" y="788" name="sh02"/>
      <point x="380" y="788" type="curve" smooth="yes"/>
      <point x="572" y="788" name="ab01"/>
      <point x="678" y="591" name="sh01"/>
      <point x="678" y="374" type="curve" smooth="yes" name="ah01"/>
      <point x="678" y="186" name="sh05"/>
      <point x="589" y="41"/>
      <point x="438" y="41" type="curve" smooth="yes"/>
      <point x="345" y="41"/>
      <point x="304" y="90"/>
      <point x="297" y="162" type="curve"/>
      <point x="289" y="271"/>
      <point x="228" y="280"/>
      <point x="188" y="280" type="curve" smooth="yes"/>
      <point x="124" y="280"/>
      <point x="92" y="242"/>
      <point x="92" y="195" type="curve" smooth="yes"/>
      <point x="92" y="144"/>
      <point x="124" y="94"/>
      <point x="181" y="47" type="curve" smooth="yes"/>
      <point x="240" y="0"/>
      <point x="314" y="-24"/>
      <point x="404" y="-24" type="curve" smooth="yes"/>
      <point x="643" y="-24"/>
      <point x="844" y="171"/>
    </contour>
    <contour>
      <point x="455" y="1000" type="move" name="U"/>
    </contour>
    <contour>
      <point x="455" y="-100" type="move" name="L"/>
    </contour>
    <contour>
      <point x="891" y="900" type="move" name="R"/>
    </contour>
    <contour>
      <point x="506" y="0" type="move" name="O"/>
    </contour>
    <contour>
      <point x="456" y="0" type="move" name="H"/>
    </contour>
  </outline>
</glyph>
<glyph name="LtnSmOpnE" format="1">
  <advance width="869"/>
  <unicode hex="025B"/>
  <outline>
    <contour>
      <point x="810" y="235" type="line"/>
      <point x="702" y="122"/>
      <point x="599" y="79"/>
      <point x="495" y="79" type="curve" smooth="yes"/>
      <point x="398" y="79"/>
      <point x="264" y="122"/>
      <point x="264" y="280" type="curve" smooth="yes"/>
      <point x="264" y="369"/>
      <point x="321" y="465"/>
      <point x="448" y="465" type="curve" smooth="yes"/>
      <point x="509" y="465"/>
      <point x="509" y="434"/>
      <point x="577" y="434" type="curve" smooth="yes"/>
      <point x="620" y="434"/>
      <point x="643" y="449"/>
      <point x="643" y="493" type="curve" smooth="yes"/>
      <point x="643" y="532"/>
      <point x="623" y="558"/>
      <point x="579" y="558" type="curve" smooth="yes"/>
      <point x="526" y="558"/>
      <point x="492" y="530"/>
      <point x="436" y="530" type="curve" smooth="yes"/>
      <point x="380" y="530"/>
      <point x="264" y="560"/>
      <point x="264" y="717" type="curve" smooth="yes"/>
      <point x="264" y="806"/>
      <point x="323" y="877"/>
      <point x="436" y="877" type="curve" smooth="yes"/>
      <point x="528" y="877"/>
      <point x="574" y="846"/>
      <point x="595" y="777" type="curve"/>
      <point x="619" y="704"/>
      <point x="649" y="678"/>
      <point x="705" y="678" type="curve" smooth="yes"/>
      <point x="769" y="678"/>
      <point x="790" y="716"/>
      <point x="790" y="763" type="curve" smooth="yes"/>
      <point x="790" y="855"/>
      <point x="648" y="942"/>
      <point x="469" y="942" type="curve" smooth="yes"/>
      <point x="232" y="942"/>
      <point x="115" y="812"/>
      <point x="115" y="692" type="curve" smooth="yes"/>
      <point x="115" y="527"/>
      <point x="215" y="493"/>
      <point x="266" y="477" type="curve"/>
      <point x="125" y="394"/>
      <point x="94" y="318"/>
      <point x="94" y="237" type="curve" smooth="yes"/>
      <point x="94" y="-10"/>
      <point x="360" y="-30"/>
      <point x="427" y="-30" type="curve" smooth="yes"/>
      <point x="535" y="-30"/>
      <point x="643" y="-4"/>
      <point x="830" y="197" type="curve"/>
    </contour>
    <contour>
      <point x="462" y="1000" type="move" name="U"/>
    </contour>
    <contour>
      <point x="462" y="-100" type="move" name="L"/>
    </contour>
    <contour>
      <point x="869" y="900" type="move" name="R"/>
    </contour>
    <contour>
      <point x="512" y="0" type="move" name="O"/>
    </contour>
    <contour>
      <point x="462" y="0" type="move" name="H"/>
    </contour>
  </outline>
</glyph>
<glyph name="LtnSmRevOpnEHook" format="1">
  <advance width="1159"/>
  <unicode hex="025D"/>
  <outline>
    <contour>
      <point x="1189" y="717" type="curve"/>
      <point x="1149" y="739" type="line"/>
      <point x="1130" y="649"/>
      <point x="1104" y="591"/>
      <point x="1035" y="591" type="curve" smooth="yes"/>
      <point x="968" y="591"/>
      <point x="956" y="658"/>
      <point x="956" y="713" type="curve" smooth="yes"/>
      <point x="956" y="869" type="line"/>
      <point x="916" y="891" type="line"/>
      <point x="773" y="792" type="line"/>
      <point x="745" y="873"/>
      <point x="658" y="942"/>
      <point x="467" y="942" type="curve" smooth="yes"/>
      <point x="260" y="942"/>
      <point x="107" y="854"/>
      <point x="107" y="763" type="curve" smooth="yes"/>
      <point x="107" y="717"/>
      <point x="128" y="678"/>
      <point x="192" y="678" type="curve" smooth="yes"/>
      <point x="248" y="678"/>
      <point x="262" y="704"/>
      <point x="282" y="777" type="curve" smooth="yes"/>
      <point x="301" y="854"/>
      <point x="378" y="877"/>
      <point x="442" y="877" type="curve" smooth="yes"/>
      <point x="553" y="877"/>
      <point x="632" y="828"/>
      <point x="632" y="698" type="curve" smooth="yes"/>
      <point x="632" y="560"/>
      <point x="504" y="530"/>
      <point x="449" y="530" type="curve" smooth="yes"/>
      <point x="395" y="530"/>
      <point x="371" y="558"/>
      <point x="318" y="558" type="curve" smooth="yes"/>
      <point x="274" y="558"/>
      <point x="254" y="532"/>
      <point x="254" y="493" type="curve" smooth="yes"/>
      <point x="254" y="449"/>
      <point x="278" y="434"/>
      <point x="320" y="434" type="curve" smooth="yes"/>
      <point x="386" y="434"/>
      <point x="400" y="465"/>
      <point x="461" y="465" type="curve" smooth="yes"/>
      <point x="589" y="465"/>
      <point x="632" y="374"/>
      <point x="632" y="266" type="curve" smooth="yes"/>
      <point x="632" y="132"/>
      <point x="506" y="79"/>
      <point x="461" y="79" type="curve" smooth="yes"/>
      <point x="391" y="79"/>
      <point x="248" y="65"/>
      <point x="130" y="237" type="curve"/>
      <point x="87" y="197" type="line"/>
      <point x="148" y="96"/>
      <point x="239" y="-30"/>
      <point x="449" y="-30" type="curve" smooth="yes"/>
      <point x="617" y="-30"/>
      <point x="803" y="67"/>
      <point x="803" y="295" type="curve" smooth="yes"/>
      <point x="803" y="440"/>
      <point x="724" y="479"/>
      <point x="630" y="517" type="curve"/>
      <point x="682" y="532"/>
      <point x="781" y="603"/>
      <point x="782" y="729" type="curve"/>
      <point x="897" y="806" type="line"/>
      <point x="897" y="676" type="line" smooth="yes"/>
      <point x="897" y="600"/>
      <point x="944" y="534"/>
      <point x="1033" y="534" type="curve" smooth="yes"/>
      <point x="1132" y="534"/>
      <point x="1181" y="630"/>
    </contour>
    <contour>
      <point x="638" y="1000" type="move" name="U"/>
    </contour>
    <contour>
      <point x="638" y="-100" type="move" name="L"/>
    </contour>
  </outline>
</glyph>
<glyph name="LtnSmIStrk" format="1">
  <advance width="570"/>
  <unicode hex="0268"/>
  <outline>
    <contour>
      <point x="402" y="1228" type="curve" smooth="yes"/>
      <point x="402" y="1283" name="dv02"/>
      <point x="357" y="1328" name="ih01"/>
      <point x="301" y="1328" type="curve" smooth="yes" name="dv01"/>
      <point x="245" y="1328" name="sh03"/>
      <point x="199" y="1287" name="sh10"/>
      <point x="199" y="1228" type="curve" smooth="yes"/>
      <point x="199" y="1168" name="sh09"/>
      <point x="242" y="1125"/>
      <point x="301" y="1125" type="curve" smooth="yes" name="at01"/>
      <point x="360" y="1125"/>
      <point x="402" y="1171" name="sh08"/>
    </contour>
    <contour>
      <point x="538" y="455" type="line"/>
      <point x="538" y="558" type="line" name="sh07"/>
      <point x="384" y="558" type="line"/>
      <point x="384" y="942" type="line" name="sh06"/>
      <point x="341" y="942" type="line"/>
      <point x="64" y="832" type="line" name="sh01"/>
      <point x="77" y="796" type="line"/>
      <point x="134" y="816" name="sh05"/>
      <point x="166" y="819" name="ab01"/>
      <point x="190" y="796" type="curve" smooth="yes"/>
      <point x="216" y="772" name="sh04"/>
      <point x="217" y="754"/>
      <point x="217" y="589" type="curve" smooth="yes" name="sh02"/>
      <point x="217" y="558" type="line"/>
      <point x="64" y="558" type="line" name="ah01"/>
      <point x="64" y="455" type="line" name="sh11"/>
      <point x="217" y="455" type="line"/>
      <point x="217" y="207" type="line" smooth="yes"/>
      <point x="217" y="122"/>
      <point x="206" y="93"/>
      <point x="190" y="69" type="curve"/>
      <point x="171" y="45"/>
      <point x="144" y="38"/>
      <point x="77" y="38" type="curve"/>
      <point x="77" y="0" type="line"/>
      <point x="525" y="0" type="line"/>
      <point x="525" y="38" type="line"/>
      <point x="450" y="38"/>
      <point x="435" y="42"/>
      <point x="408" y="71" type="curve" smooth="yes"/>
      <point x="391" y="90"/>
      <point x="384" y="126"/>
      <point x="384" y="207" type="curve" smooth="yes"/>
      <point x="384" y="455" type="line"/>
    </contour>
    <contour>
      <point x="301" y="1000" type="move" name="U"/>
    </contour>
    <contour>
      <point x="301" y="-100" type="move" name="L"/>
    </contour>
    <contour>
      <point x="570" y="900" type="move" name="R"/>
    </contour>
    <contour>
      <point x="351" y="0" type="move" name="O"/>
    </contour>
    <contour>
      <point x="301" y="0" type="move" name="H"/>
    </contour>
  </outline>
</glyph>
<glyph name="LtnSmLMiddleTilde" format="1">
  <advance width="684"/>
  <unicode hex="026B"/>
  <outline>
    <contour>
      <point x="688" y="879" type="curve"/>
      <point x="634" y="879" type="line"/>
      <point x="619" y="814"/>
      <point x="558" y="779"/>
      <point x="493" y="779" type="curve" smooth="yes"/>
      <point x="474" y="779"/>
      <point x="455" y="782"/>
      <point x="438" y="786" type="curve"/>
      <point x="438" y="1423" type="line"/>
      <point x="395" y="1423" type="line"/>
      <point x="118" y="1313" type="line"/>
      <point x="136" y="1277" type="line"/>
      <point x="193" y="1299"/>
      <point x="217" y="1295"/>
      <point x="243" y="1279" type="curve"/>
      <point x="262" y="1260"/>
      <point x="270" y="1247"/>
      <point x="270" y="1038" type="curve" smooth="yes"/>
      <point x="270" y="865" type="line"/>
      <point x="258" y="867"/>
      <point x="244" y="869"/>
      <point x="231" y="869" type="curve" smooth="yes"/>
      <point x="102" y="869"/>
      <point x="32" y="779"/>
      <point x="4" y="660" type="curve"/>
      <point x="57" y="660" type="line"/>
      <point x="64" y="705"/>
      <point x="118" y="755"/>
      <point x="173" y="755" type="curve" smooth="yes"/>
      <point x="215" y="755"/>
      <point x="244" y="745"/>
      <point x="270" y="733" type="curve"/>
      <point x="270" y="207" type="line" smooth="yes"/>
      <point x="270" y="122"/>
      <point x="258" y="89"/>
      <point x="243" y="69" type="curve" smooth="yes"/>
      <point x="220" y="41"/>
      <point x="197" y="38"/>
      <point x="136" y="38" type="curve"/>
      <point x="136" y="0" type="line"/>
      <point x="585" y="0" type="line"/>
      <point x="585" y="38" type="line"/>
      <point x="506" y="38"/>
      <point x="481" y="49"/>
      <point x="463" y="73" type="curve" smooth="yes"/>
      <point x="446" y="96"/>
      <point x="438" y="126"/>
      <point x="438" y="207" type="curve" smooth="yes"/>
      <point x="438" y="662" type="line"/>
      <point x="448" y="660"/>
      <point x="459" y="660"/>
      <point x="471" y="660" type="curve" smooth="yes"/>
      <point x="585" y="660"/>
      <point x="676" y="769"/>
    </contour>
    <contour>
      <point x="346" y="1435" type="move" name="U"/>
    </contour>
    <contour>
      <point x="346" y="-100" type="move" name="L"/>
    </contour>
  </outline>
</glyph>
